<?xml version="1.0" encoding="UTF-8"?>
<svg xmlns="http://www.w3.org/2000/svg" xmlns:xlink="http://www.w3.org/1999/xlink" width="px" height="0px" viewBox="0 0 10 11" version="1.1">
<g id="surface1">
<path style=" stroke:none;fill-rule:nonzero;fill:rgb(0%,0%,0%);fill-opacity:1;" d="M 7.339844 8.765625 C 7.253906 8.792969 7.757812 8.507812 7.671875 8.539062 C 7.5 8.566406 7.808594 9.605469 7.636719 9.625 C 6.808594 9.710938 5.640625 11.039062 5.046875 10.378906 C 5.007812 10.308594 4.976562 10.242188 4.929688 10.175781 C 4.816406 10.023438 4.898438 9.710938 4.707031 9.695312 C 4.328125 9.664062 3.949219 9.492188 3.558594 9.605469 C 3.496094 9.625 3.460938 9.675781 3.398438 9.722656 C 3.117188 9.957031 2.871094 10.1875 2.59375 10.417969 C 2.199219 10.742188 1.773438 10.753906 1.355469 10.433594 C 1.242188 10.34375 1.136719 10.242188 1.023438 10.148438 C 0.957031 10.023438 0.886719 9.90625 0.816406 9.785156 C 0.683594 9.351562 0.828125 8.964844 1.019531 8.59375 C 1.019531 8.59375 1.035156 8.574219 1.035156 8.574219 C 1.140625 8.4375 1.253906 8.304688 1.363281 8.167969 C 1.605469 7.941406 1.945312 7.867188 2.230469 7.707031 C 2.660156 7.46875 2.703125 7.320312 2.421875 6.90625 C 2.375 6.835938 2.308594 6.765625 2.25 6.695312 C 2.226562 6.671875 2.199219 6.648438 2.175781 6.621094 C 1.820312 6.183594 1.460938 5.742188 1.109375 5.304688 C 1.070312 5.25 1.023438 5.191406 0.984375 5.136719 C 0.757812 4.769531 0.53125 4.40625 0.304688 4.042969 C 0.25 3.886719 0.195312 3.722656 0.136719 3.566406 C 0.128906 3.519531 0.117188 3.476562 0.109375 3.425781 C 0.144531 2.765625 0.242188 2.132812 0.890625 1.734375 C 0.996094 1.667969 0.925781 1.574219 0.929688 1.488281 C 0.945312 0.621094 1.816406 0.03125 2.703125 0.300781 C 2.875 0.355469 2.984375 0.359375 3.140625 0.265625 C 3.691406 -0.0585938 4.257812 0.0507812 4.695312 0.527344 C 4.761719 0.597656 4.777344 0.695312 4.933594 0.683594 C 5.707031 0.640625 5.980469 0.789062 6.28125 1.460938 C 6.554688 2.078125 6.902344 2.628906 7.394531 3.113281 C 7.769531 3.476562 8.113281 3.875 8.46875 4.257812 C 8.804688 4.644531 9.011719 4.925781 9.179688 5.367188 C 9.417969 6.027344 9.5625 6.703125 9.359375 7.378906 C 9.296875 7.59375 9.21875 7.726562 9.382812 7.859375 C 9.828125 8.214844 9.429688 8.519531 9.289062 9.023438 C 9.21875 9.300781 8.277344 8.824219 8.128906 9.058594 C 7.898438 9.257812 7.492188 8.824219 7.257812 9.019531 C 7.179688 9.066406 7.335938 8.976562 7.257812 9.019531 M 4.71875 1.320312 C 4.589844 1.003906 4.429688 0.730469 4.144531 0.503906 C 3.851562 0.269531 3.628906 0.421875 3.378906 0.535156 C 3.082031 0.667969 3.324219 0.828125 3.359375 0.96875 C 3.574219 1.855469 4.089844 2.621094 4.609375 3.386719 C 4.382812 3.460938 4.296875 3.3125 4.203125 3.195312 C 3.726562 2.589844 3.328125 1.949219 3.105469 1.222656 C 3.007812 0.890625 2.816406 0.585938 2.402344 0.550781 C 1.984375 0.515625 1.632812 0.65625 1.414062 1.007812 C 1.191406 1.363281 1.261719 1.550781 1.664062 1.71875 C 1.964844 1.839844 2.191406 2.046875 2.328125 2.324219 C 2.457031 2.582031 2.574219 2.839844 2.660156 3.113281 C 2.8125 3.597656 3.03125 4.042969 3.441406 4.402344 C 3.011719 4.253906 2.6875 4 2.507812 3.59375 C 2.382812 3.324219 2.28125 3.042969 2.171875 2.765625 C 2.085938 2.546875 1.964844 2.34375 1.789062 2.179688 C 1.457031 1.871094 1.078125 1.875 0.816406 2.226562 C 0.4375 2.734375 0.355469 3.289062 0.644531 3.886719 C 0.988281 4.59375 1.496094 5.203125 1.972656 5.835938 C 2.25 6.203125 2.570312 6.542969 2.773438 6.957031 C 3.039062 7.503906 2.914062 7.789062 2.328125 7.996094 C 1.839844 8.167969 1.488281 8.472656 1.246094 8.898438 C 1.078125 9.191406 1.058594 9.503906 1.214844 9.8125 C 1.5 10.382812 2.101562 10.492188 2.558594 10.054688 C 2.925781 9.710938 3.273438 9.359375 3.851562 9.296875 C 4.121094 9.265625 4.289062 9.488281 4.539062 9.445312 C 4.664062 9.425781 4.78125 9.484375 4.859375 9.304688 C 5.496094 7.882812 7.089844 7.09375 8.652344 7.460938 C 9.070312 7.558594 9.128906 7.425781 9.136719 7.105469 C 9.171875 6.046875 8.847656 5.105469 8.070312 4.308594 C 7.65625 3.878906 7.253906 3.4375 6.828125 3.011719 C 6.371094 2.546875 6.121094 1.976562 5.859375 1.410156 C 5.742188 1.15625 5.558594 1.015625 5.277344 0.980469 C 5.046875 0.949219 4.957031 1 5.046875 1.25 C 5.242188 1.800781 5.527344 2.3125 5.828125 2.820312 C 5.894531 2.929688 6.007812 3.019531 5.988281 3.253906 C 5.363281 2.664062 5.007812 2.003906 4.722656 1.308594 Z M 9.324219 9.695312 C 10.125 8.820312 9.714844 7.824219 8.484375 7.652344 C 7.253906 7.480469 6.214844 7.863281 5.445312 8.757812 C 4.722656 9.601562 5.105469 10.496094 6.445312 10.761719 C 7.472656 10.882812 8.53125 10.570312 9.324219 9.699219 Z M 9.324219 9.695312 "/>
<path style="fill-rule:nonzero;fill:rgb(96.078432%,96.862745%,96.470588%);fill-opacity:1;stroke-width:0.25;stroke-linecap:butt;stroke-linejoin:miter;stroke:rgb(0%,0%,0%);stroke-opacity:1;stroke-miterlimit:10;" d="M 9.980461 18.85732 C 9.512379 19.420605 8.481011 18.770051 7.941527 18.833519 C 6.767355 18.960457 6.069199 19.658613 5.331375 20.356769 C 4.403144 21.253265 3.038566 21.046992 2.459414 19.888687 C 2.14207 19.246066 2.173805 18.34957 2.507016 17.762484 C 2.998898 16.897723 3.879527 16.532777 4.863293 16.191633 C 6.053332 15.771152 6.299273 15.192 5.751855 14.089231 C 5.339308 13.24827 4.696687 12.558047 4.133402 11.812289 C 3.173437 10.527047 2.126203 9.29734 1.443914 7.86136 C 0.856828 6.64752 1.031367 5.528883 1.792992 4.497516 C 2.316609 3.791426 3.086168 3.783492 3.75259 4.410246 C 4.109601 4.751391 4.347609 5.148071 4.530082 5.600285 C 4.752223 6.163571 4.958496 6.726856 5.212371 7.282207 C 5.442445 7.789957 5.791523 8.186637 6.227871 8.48018 C 6.386543 8.59125 6.576949 8.377043 6.457945 8.218371 C 6.021597 7.639219 5.743922 6.988664 5.521781 6.298442 C 5.347242 5.758957 5.109234 5.219473 4.847426 4.711723 C 4.56975 4.148438 4.109601 3.743825 3.498715 3.482016 C 2.681555 3.140871 2.53875 2.760059 2.998898 2.038102 C 3.451113 1.332012 4.157203 1.046403 5.006098 1.117805 C 5.847058 1.189207 6.243738 1.808028 6.442078 2.466516 C 6.886359 3.950098 7.687652 5.243274 8.663484 6.472981 C 8.790422 6.631653 8.909426 6.806192 9.107765 6.877594 C 9.266437 6.933129 9.401308 6.742723 9.306105 6.599918 C 8.32234 5.132203 7.370308 3.672422 6.949828 1.9667 C 6.878426 1.68109 6.386543 1.363746 6.989496 1.086071 C 7.497246 0.86393 7.949461 0.546586 8.552414 1.022602 C 9.131566 1.466883 9.44891 2.030168 9.710718 2.672789 C 10.202601 3.862828 10.789687 4.997332 11.733785 6.0525 C 11.87659 6.219106 12.146332 6.012832 12.019394 5.822426 C 12.003527 5.790692 11.979726 5.758957 11.963859 5.727223 C 11.360906 4.703789 10.77382 3.672422 10.37714 2.553785 C 10.202601 2.038102 10.37714 1.942899 10.853156 1.998434 C 11.416441 2.07777 11.78932 2.363379 12.019394 2.871129 C 12.550945 4.013567 13.050761 5.171871 13.978992 6.123903 C 14.827886 6.980731 15.65298 7.869293 16.493941 8.741988 C 18.056859 10.360442 18.723281 12.272438 18.651878 14.406574 L 18.128261 17.096062 L 10.916625 19.492008 L 10.147066 19.071527 " transform="matrix(0.492368,0,0,0.492368,0,0.0199407)"/>
<path style="fill-rule:nonzero;fill:rgb(0%,0%,0%);fill-opacity:1;stroke-width:0.25;stroke-linecap:butt;stroke-linejoin:miter;stroke:rgb(0%,0%,0%);stroke-opacity:1;stroke-miterlimit:10;" d="M 19.849851 16.239234 C 19.667378 15.993293 19.326234 15.882223 19.080292 15.723551 C 19.080292 15.723551 18.096527 15.263402 17.279367 15.247535 C 14.43914 15.223734 11.940058 16.09643 10.091531 18.333703 C 9.980461 18.516176 9.86939 18.706582 9.782121 18.920789 C 9.726586 19.039793 9.678984 19.158797 9.631383 19.277801 C 9.512379 19.603078 9.472711 19.936289 9.480644 20.277433 C 9.480644 20.309168 9.480644 20.348836 9.480644 20.388504 C 9.480644 20.793117 9.75832 21.126328 10.06773 21.419871 C 10.607215 21.911754 11.257769 22.157695 11.971793 22.221164 C 14.796152 22.467105 17.231765 21.538875 19.302433 19.618945 C 19.683246 19.269867 19.968855 18.833519 20.151328 18.341637 C 20.429003 17.580012 20.309999 16.889789 19.841917 16.239234 Z M 19.588042 18.167098 C 19.342101 18.738316 18.929554 19.190531 18.437671 19.56341 C 16.620878 20.927988 14.597812 21.713414 12.29707 21.626144 C 11.376773 21.602344 10.440609 21.388137 10.059797 20.420238 C 9.686918 19.468207 10.218468 18.690715 10.876957 18.079828 C 12.852422 16.247168 15.176964 15.453809 17.858519 15.723551 C 18.318667 15.81082 18.739148 15.993293 19.09616 16.263035 C 19.762582 16.746984 19.929187 17.413406 19.60391 18.167098 Z M 19.588042 18.167098 " transform="matrix(0.492368,0,0,0.492368,0,0.0199407)"/>
<path style="fill-rule:nonzero;fill:rgb(96.078432%,96.862745%,96.470588%);fill-opacity:1;stroke-width:0.5;stroke-linecap:butt;stroke-linejoin:miter;stroke:rgb(0%,0%,0%);stroke-opacity:1;stroke-miterlimit:10;" d="M 19.088226 16.247168 C 18.723281 15.977426 18.310734 15.802887 17.850585 15.707684 C 15.169031 15.437941 12.836554 16.247168 10.869023 18.071894 C 10.210535 18.682781 9.837656 19.76175 10.051863 20.412305 C 10.369207 21.39607 11.36884 21.586476 12.289136 21.618211 C 14.589879 21.697547 16.620878 20.920055 18.429738 19.547543 C 18.921621 19.182598 19.326234 18.730383 19.580109 18.159164 C 19.91332 17.397539 19.738781 16.739051 19.080292 16.247168 Z M 19.088226 16.247168 " transform="matrix(0.492368,0,0,0.492368,0,0.0199407)"/>
<path style=" stroke:none;fill-rule:nonzero;fill:rgb(96.078432%,96.862745%,96.470588%);fill-opacity:1;" d="M 6.316406 9.546875 C 6.316406 9.546875 6.332031 9.503906 6.339844 9.484375 C 6.328125 9.503906 6.316406 9.523438 6.316406 9.546875 Z M 6.316406 9.546875 "/>
<path style=" stroke:none;fill-rule:nonzero;fill:rgb(96.078432%,96.862745%,96.470588%);fill-opacity:1;" d="M 8.4375 9 C 8.4375 9 8.457031 8.972656 8.464844 8.957031 C 8.464844 8.945312 8.472656 8.9375 8.480469 8.921875 C 8.480469 8.933594 8.46875 8.941406 8.464844 8.957031 C 8.457031 8.972656 8.449219 8.984375 8.4375 9 Z M 8.4375 9 "/>
<path style=" stroke:none;fill-rule:nonzero;fill:rgb(96.078432%,96.862745%,96.470588%);fill-opacity:1;" d="M 6.765625 9.171875 C 6.65625 9.238281 6.554688 9.304688 6.449219 9.386719 C 6.441406 9.394531 6.429688 9.398438 6.421875 9.410156 C 6.429688 9.398438 6.441406 9.394531 6.449219 9.386719 C 6.554688 9.304688 6.65625 9.238281 6.765625 9.171875 Z M 6.765625 9.171875 "/>
<path style=" stroke:none;fill-rule:nonzero;fill:rgb(96.078432%,96.862745%,96.470588%);fill-opacity:1;" d="M 8.472656 8.730469 C 8.445312 8.695312 8.386719 8.679688 8.285156 8.691406 C 8.246094 8.695312 8.203125 8.699219 8.164062 8.707031 C 8.203125 8.699219 8.246094 8.695312 8.285156 8.691406 C 8.378906 8.679688 8.4375 8.691406 8.472656 8.730469 Z M 8.472656 8.730469 "/>
<path style=" stroke:none;fill-rule:nonzero;fill:rgb(96.078432%,96.862745%,96.470588%);fill-opacity:1;" d="M 6.839844 9.75 C 7.390625 9.660156 7.941406 9.464844 8.40625 9.039062 C 8.414062 9.03125 8.429688 9.015625 8.4375 9 C 8.429688 9.015625 8.417969 9.023438 8.40625 9.039062 C 7.941406 9.464844 7.390625 9.664062 6.839844 9.75 Z M 6.839844 9.75 "/>
<path style=" stroke:none;fill-rule:nonzero;fill:rgb(96.078432%,96.862745%,96.470588%);fill-opacity:1;" d="M 8.492188 8.769531 C 8.492188 8.769531 8.484375 8.746094 8.472656 8.734375 C 8.484375 8.746094 8.488281 8.757812 8.492188 8.769531 Z M 8.492188 8.769531 "/>
<path style="fill-rule:nonzero;fill:rgb(96.078432%,96.862745%,96.470588%);fill-opacity:1;stroke-width:0.5;stroke-linecap:butt;stroke-linejoin:miter;stroke:rgb(0%,0%,0%);stroke-opacity:1;stroke-miterlimit:10;" d="M 17.207964 17.691082 C 17.152429 17.61968 17.033425 17.587945 16.827152 17.611746 C 16.747816 17.61968 16.660546 17.627613 16.581211 17.64348 C 16.081394 17.706949 15.581578 17.818019 15.113496 17.976691 C 14.94689 18.032226 14.796152 18.087762 14.63748 18.15123 C 14.32807 18.270234 14.026593 18.420973 13.740984 18.587578 C 13.518843 18.722449 13.31257 18.85732 13.098363 19.023926 C 13.082496 19.039793 13.058695 19.047726 13.042828 19.071527 C 12.979359 19.119129 12.923824 19.16673 12.876222 19.222266 C 12.852422 19.261933 12.828621 19.301601 12.828621 19.349203 C 12.828621 19.396805 12.828621 19.45234 12.852422 19.523742 C 12.852422 19.539609 12.868289 19.571344 12.876222 19.587211 C 12.963492 19.730016 13.122164 19.801418 13.407773 19.833152 C 13.566445 19.809351 13.73305 19.793484 13.891722 19.769683 C 15.010359 19.587211 16.16073 19.190531 17.096894 18.333703 C 17.120695 18.309902 17.152429 18.278168 17.168296 18.246434 C 17.192097 18.222633 17.168296 18.190898 17.17623 18.159164 C 17.17623 18.143297 17.200031 18.119496 17.207964 18.087762 C 17.2635 17.960824 17.271433 17.849754 17.239699 17.770418 C 17.239699 17.738684 17.223832 17.722816 17.200031 17.699016 Z M 17.207964 17.691082 " transform="matrix(0.492368,0,0,0.492368,0,0.0199407)"/>
<path style=" stroke:none;fill-rule:nonzero;fill:rgb(0%,0%,0%);fill-opacity:1;" d="M 6.148438 9.859375 L 6.382812 10.074219 L 6.292969 10.074219 L 6.148438 10.003906 Z M 6.148438 9.859375 "/>
<path style=" stroke:none;fill-rule:nonzero;fill:rgb(0%,0%,0%);fill-opacity:1;" d="M 6.09375 9.917969 L 6.199219 9.984375 L 6.253906 9.675781 L 6.128906 9.589844 Z M 6.09375 9.917969 "/>
<path style=" stroke:none;fill-rule:nonzero;fill:rgb(96.078432%,96.862745%,96.470588%);fill-opacity:1;" d="M 6.289062 9.90625 C 6.289062 9.90625 6.382812 10.011719 6.300781 10.082031 C 6.222656 10.15625 5.992188 10.082031 5.992188 10.082031 L 6.464844 10.289062 L 6.464844 10.023438 L 6.28125 9.910156 Z M 6.289062 9.90625 "/>
<path style="fill-rule:nonzero;fill:rgb(96.078432%,96.862745%,96.470588%);fill-opacity:1;stroke-width:0.75;stroke-linecap:butt;stroke-linejoin:miter;stroke:rgb(0%,0%,0%);stroke-opacity:1;stroke-miterlimit:10;" d="M 18.390543 18.667811 C 18.387768 18.062312 16.920112 17.567893 15.099099 17.565949 C 13.285479 17.56688 11.806567 18.064097 11.809342 18.669596 C 11.812117 19.275095 13.279773 19.769513 15.100787 19.771458 C 16.914407 19.770527 18.390442 19.280704 18.390543 18.667811 Z M 18.390543 18.667811 " transform="matrix(0.45886,-0.178533,0.178533,0.45886,-2.826194,3.338503)"/>
</g>
</svg>
