<?xml version="1.0" encoding="UTF-8"?><svg id="Layer_1" xmlns="http://www.w3.org/2000/svg" viewBox="0 0 20.31 22.26"><defs><style>.cls-1{fill:#332b27;}.cls-1,.cls-2,.cls-3,.cls-4{stroke-width:0px;}.cls-3{fill:none;}.cls-4{fill:#f5f7f6;}</style></defs><path class="cls-2" d="M15.83,18.5c-.15.05.68-.42.54-.37-.28.04.22,1.75-.06,1.78-1.35.14-3.27,2.32-4.25,1.24-.06-.11-.12-.23-.19-.33-.18-.25-.05-.76-.36-.79-.62-.05-1.24-.33-1.88-.15-.1.03-.16.11-.27.2-.46.38-.86.76-1.32,1.14-.64.54-1.35.55-2.03.02-.19-.15-.36-.31-.54-.47-.11-.2-.23-.4-.34-.6-.22-.71.02-1.34.33-1.95,0,0,.02-.03.02-.03.18-.22.36-.44.54-.66.4-.37.95-.5,1.42-.76.7-.39.77-.63.32-1.31-.08-.12-.19-.23-.28-.35-.04-.04-.08-.08-.12-.12-.58-.72-1.17-1.44-1.75-2.17-.07-.09-.14-.18-.2-.27-.37-.6-.74-1.19-1.11-1.79-.09-.26-.18-.52-.27-.78-.02-.07-.03-.15-.05-.22.06-1.08.22-2.13,1.29-2.78.17-.1.06-.26.06-.4.02-1.42,1.45-2.39,2.91-1.95.28.08.46.1.72-.05.9-.53,1.84-.36,2.55.43.1.11.13.28.39.26,1.27-.08,1.72.17,2.21,1.28.44,1.01,1.01,1.92,1.82,2.71.62.6,1.18,1.25,1.76,1.88.55.63.89,1.09,1.16,1.82.4,1.09.63,2.19.3,3.3-.1.35-.23.57.04.78.73.58.07,1.08-.15,1.91-.12.45-1.66-.33-1.91.06-.38.32-1.04-.38-1.43-.06-.13.08.13-.08,0,0M11.52,6.3c-.21-.52-.46-.97-.94-1.34-.49-.38-.85-.13-1.26.06-.49.22-.09.47-.03.71.36,1.46,1.2,2.7,2.05,3.96-.37.12-.51-.12-.66-.31-.79-.99-1.44-2.04-1.8-3.23-.16-.54-.48-1.04-1.16-1.1-.69-.06-1.26.17-1.63.75-.37.58-.25.89.41,1.16.49.21.87.54,1.09.99.21.42.4.85.54,1.29.25.8.61,1.53,1.28,2.11-.7-.24-1.24-.66-1.53-1.32-.2-.45-.37-.9-.55-1.36-.14-.36-.34-.69-.63-.96-.54-.51-1.16-.5-1.59.07-.62.83-.76,1.74-.29,2.72.56,1.16,1.4,2.16,2.18,3.2.45.6.98,1.17,1.31,1.84.44.9.24,1.36-.72,1.7-.8.28-1.38.78-1.78,1.48-.27.48-.31.99-.05,1.51.47.94,1.45,1.11,2.21.4.6-.57,1.17-1.14,2.11-1.24.44-.05.72.31,1.13.25.2-.03.39.06.52-.22,1.04-2.33,3.65-3.62,6.22-3.03.68.16.78-.05.8-.58.05-1.73-.48-3.28-1.75-4.59-.68-.7-1.34-1.42-2.03-2.12-.75-.76-1.16-1.7-1.59-2.63-.19-.41-.49-.64-.95-.7-.38-.05-.53.03-.38.44.32.91.79,1.74,1.28,2.57.1.18.29.33.26.71-1.03-.97-1.61-2.05-2.07-3.19ZM19.08,20.03c1.31-1.43.63-3.07-1.38-3.35-2.02-.28-3.72.35-4.98,1.81-1.19,1.38-.56,2.85,1.64,3.28,1.69.19,3.42-.31,4.72-1.74Z"/><path class="cls-4" d="M11.84,19.39c-.38.46-1.21-.07-1.65-.02-.94.1-1.51.67-2.11,1.24-.75.72-1.85.56-2.31-.38-.26-.51-.23-1.24.04-1.72.39-.69,1.1-.99,1.9-1.27.96-.34,1.16-.8.72-1.7-.33-.67-.85-1.24-1.3-1.84-.78-1.03-1.61-2.03-2.17-3.19-.47-.98-.33-1.88.28-2.71.43-.57,1.05-.58,1.58-.07.29.27.49.6.63.96.18.45.35.91.55,1.35.18.41.46.73.82.97.13.08.27-.06.2-.19-.26-.48-.58-.92-.74-1.44-.14-.49-.35-.96-.58-1.42-.23-.45-.6-.79-1.09-.99-.66-.28-.77-.58-.41-1.16.36-.57.94-.8,1.62-.75.68.06.99.55,1.16,1.09.36,1.19,1.01,2.24,1.79,3.22.1.13.2.28.36.33.13.04.23-.11.16-.23-.8-1.18-1.57-2.37-1.9-3.74-.06-.24-.45-.49.03-.71.41-.19.77-.43,1.26-.06.47.36.72.82.93,1.33.39.96.87,1.88,1.63,2.72.12.14.34-.03.23-.18-.02-.02-.03-.05-.05-.07-.49-.83-.96-1.66-1.28-2.57-.15-.41,0-.49.38-.44.46.06.76.29.95.7.43.92.83,1.86,1.59,2.62.69.7,1.35,1.41,2.03,2.12,1.03,1.06,1.57,2.28,1.71,3.62.06.55-.01,1.11-.17,1.64h0c-.68,1.62-1.02,1.75-2.31,2.18l-3.73,1.24-.62-.34"/><path class="cls-2" d="M7.03,21.18c-.09,0-.17,0-.26-.02-.47-.08-.88-.4-1.11-.87-.27-.55-.25-1.32.05-1.84.42-.73,1.17-1.04,1.96-1.33.46-.16.72-.35.81-.58.09-.23.04-.53-.16-.95-.24-.49-.59-.92-.93-1.35-.12-.15-.25-.31-.37-.47-.14-.18-.27-.36-.41-.54-.64-.84-1.31-1.7-1.78-2.67-.47-.98-.37-1.94.3-2.84.22-.29.49-.46.8-.49.33-.03.67.11.97.4.28.27.5.61.66,1.01l.09.22c.14.37.29.76.46,1.12.17.38.43.68.78.92l.13-.08-.11.06c-.07-.14-.15-.27-.23-.4-.2-.33-.4-.68-.51-1.06-.12-.42-.3-.87-.57-1.4-.21-.42-.56-.73-1.03-.93-.39-.16-.59-.34-.66-.56-.07-.21,0-.46.2-.78.37-.59.97-.85,1.74-.8.62.05,1.04.45,1.26,1.18.32,1.05.88,2.06,1.77,3.18l.04.05c.08.1.16.2.26.23l.02-.04c-.86-1.27-1.59-2.44-1.92-3.78-.01-.04-.05-.1-.08-.16-.07-.11-.16-.26-.11-.41.03-.11.13-.2.3-.28l.13-.06c.36-.17.76-.36,1.25.02.52.4.78.9.97,1.38.32.77.79,1.78,1.6,2.69.05-.01.04-.02.04-.03-.02-.03-.04-.05-.05-.08-.49-.84-.96-1.67-1.29-2.59-.06-.16-.11-.36,0-.5.11-.14.32-.13.51-.11.49.07.83.32,1.04.77l.09.19c.39.84.79,1.7,1.47,2.4.4.4.79.82,1.18,1.23.28.3.56.59.85.89,1.01,1.04,1.6,2.29,1.75,3.69.06.54,0,1.11-.18,1.69-.68,1.64-1.03,1.81-2.39,2.26l-3.78,1.25-.67-.37.12-.22.58.31,3.67-1.22c1.27-.42,1.57-.52,2.24-2.11.16-.54.21-1.08.16-1.58-.14-1.37-.69-2.53-1.68-3.54-.29-.29-.57-.59-.85-.89-.39-.41-.78-.82-1.18-1.23-.72-.73-1.13-1.61-1.52-2.47l-.09-.19c-.18-.38-.45-.58-.85-.63-.24-.03-.28,0-.29.01,0,0-.04.05.04.26.32.9.78,1.72,1.27,2.55.01.02.03.04.04.06.09.12.06.28-.06.37-.12.09-.27.08-.37-.03-.84-.94-1.32-1.97-1.65-2.76-.18-.45-.42-.91-.9-1.28-.37-.29-.64-.16-.99,0l-.14.07c-.09.04-.15.09-.16.12-.01.05.04.13.09.21.05.07.09.15.11.23.32,1.3,1.04,2.45,1.89,3.7.07.1.06.22,0,.32-.07.09-.18.13-.29.1-.18-.06-.29-.2-.38-.32l-.04-.05c-.91-1.14-1.48-2.18-1.81-3.27-.19-.64-.53-.96-1.05-1-.67-.06-1.18.18-1.5.69-.16.25-.22.44-.17.58.05.15.21.27.52.4.52.22.92.58,1.15,1.05.27.54.46,1,.59,1.44.1.36.29.67.49,1.01.08.13.16.27.24.41.06.11.03.24-.06.33-.09.08-.22.09-.32.02-.39-.26-.68-.6-.87-1.02-.17-.38-.32-.76-.46-1.14l-.09-.22c-.14-.36-.34-.67-.6-.92-.25-.24-.52-.35-.78-.33-.23.02-.44.15-.62.39-.61.82-.7,1.69-.27,2.58.46.95,1.11,1.8,1.75,2.63.14.18.28.36.41.54.12.16.24.31.36.46.35.43.71.88.95,1.39.24.49.29.85.17,1.15-.12.3-.43.53-.96.72-.78.27-1.45.56-1.83,1.21-.25.45-.27,1.14-.04,1.61.2.4.53.66.93.74.42.07.84-.07,1.18-.39l.06-.05c.58-.55,1.17-1.12,2.12-1.22.18-.02.39.04.62.1.37.1.75.2.95-.03l.19.16c-.29.36-.8.22-1.2.11-.2-.05-.4-.1-.53-.09-.87.1-1.41.61-1.98,1.15l-.06.05c-.33.31-.73.48-1.14.48Z"/><path class="cls-3" d="M17.91,19.27c-.05-.05-.1-.04-.15,0,.04-.03.09-.04.15,0,.03.05.03.09.02.13.02-.04.02-.08-.02-.13Z"/><path class="cls-3" d="M11.94,18.97c1.49-1.79,3.51-2.51,5.8-2.48-2.24-.02-4.65.56-5.8,2.48Z"/><path class="cls-3" d="M17.83,19.56s.02-.03.03-.04c0,.01-.02.03-.03.04Z"/><path class="cls-3" d="M17.86,19.51s.03-.04.04-.06c-.01.02-.02.04-.04.06Z"/><path class="cls-3" d="M17.9,19.44s.01-.02.02-.04c0,.01-.01.02-.02.04Z"/><path class="cls-3" d="M15.61,18.82c.12-.05.25-.1.38-.14-.13.04-.25.09-.38.14Z"/><path class="cls-3" d="M14.15,19.79s0,.08.02.13c0,.02.02.04.03.05,0-.02-.02-.03-.03-.05-.02-.05-.02-.09-.02-.13Z"/><path class="cls-2" d="M19.82,17.27c-.14-.2-.42-.29-.62-.42,0,0,0,0,0,0,0,0-.79-.37-1.45-.38-2.29-.02-4.31.69-5.8,2.48-.09.15-.17.31-.25.48-.04.09-.08.19-.12.29-.1.26-.13.53-.12.81,0,.03,0,.06,0,.09,0,.33.22.6.48.83.44.4.96.6,1.53.65,2.29.2,4.25-.55,5.92-2.1.31-.29.54-.64.69-1.04.23-.61.13-1.17-.25-1.7ZM19.61,18.83c-.2.46-.53.82-.93,1.12-1.47,1.11-3.1,1.74-4.96,1.67-.75-.03-1.5-.19-1.81-.98-.3-.76.13-1.39.66-1.89,1.59-1.48,3.47-2.13,5.63-1.91.37.08.71.22,1,.44.53.4.67.93.4,1.54Z"/><path class="cls-2" d="M14.17,22.26c-.24,0-.48-.01-.72-.03-.63-.06-1.17-.28-1.6-.68-.22-.2-.52-.52-.52-.92,0-.03,0-.05,0-.08-.01-.3.03-.59.13-.86.04-.1.08-.2.12-.3.07-.17.16-.33.25-.49,1.4-1.69,3.35-2.54,5.81-2.54h.1c.68,0,1.47.37,1.5.39.06.04.12.07.18.1.17.09.37.19.49.36.41.57.5,1.18.27,1.81-.16.43-.4.79-.72,1.08-1.55,1.44-3.33,2.16-5.29,2.16ZM17.64,16.61c-2.38,0-4.26.82-5.61,2.44-.08.14-.16.29-.23.45-.04.09-.08.19-.12.29-.09.24-.12.49-.11.76,0,.03,0,.06,0,.09,0,.23.14.46.43.73.4.36.89.57,1.46.62,2.17.19,4.13-.5,5.82-2.06.29-.27.51-.6.66-.99.21-.56.13-1.07-.23-1.58h0c-.09-.12-.25-.2-.4-.28-.07-.03-.13-.07-.19-.1h0s-.76-.35-1.39-.36h-.1ZM13.98,21.75c-.09,0-.18,0-.27,0-.71-.03-1.58-.17-1.92-1.05-.27-.68-.04-1.35.69-2.03,1.62-1.51,3.55-2.17,5.73-1.94.41.08.76.23,1.06.46.58.44.73,1.02.44,1.7h0c-.19.44-.51.83-.97,1.17-1.5,1.13-3.1,1.7-4.77,1.7ZM17.4,16.93c-1.78,0-3.38.64-4.75,1.92-.66.61-.86,1.17-.63,1.75.29.75,1.06.87,1.7.9,1.73.06,3.33-.47,4.88-1.64.42-.32.72-.67.89-1.07h0c.25-.56.12-1.03-.36-1.39-.28-.21-.59-.34-.95-.42-.26-.03-.52-.04-.78-.04Z"/><path class="cls-4" d="M19.2,17.29c-.3-.22-.63-.36-1-.44-2.16-.22-4.05.43-5.63,1.91-.53.5-.83,1.36-.66,1.89.26.8,1.07.95,1.81.98,1.86.07,3.49-.56,4.96-1.67.4-.3.73-.66.93-1.12.27-.61.13-1.15-.4-1.54Z"/><path class="cls-2" d="M13.98,21.88c-.09,0-.18,0-.28,0-.46-.02-1.69-.06-2.04-1.15-.2-.63.13-1.59.73-2.15,1.65-1.53,3.61-2.2,5.83-1.97.44.09.8.25,1.13.49h0c.62.47.8,1.12.48,1.84-.2.46-.53.86-1.01,1.22-1.52,1.15-3.15,1.73-4.84,1.73ZM17.4,17.05c-1.74,0-3.31.63-4.66,1.88-.46.43-.73,1.19-.59,1.63.17.53.64.77,1.58.8,1.7.07,3.27-.47,4.8-1.62.41-.31.69-.64.85-1.02.22-.51.12-.92-.32-1.25-.26-.2-.56-.32-.9-.39-.25-.03-.51-.04-.75-.04Z"/><path class="cls-1" d="M17.9,19.45s0,0,0,0c0,0,0,0,0,0Z"/><path class="cls-1" d="M17.85,19.52s0,0,0-.01c0,0,0,0,0,.01Z"/><path class="cls-4" d="M14.15,19.79s.02-.07.04-.1c-.02.03-.04.07-.04.1Z"/><path class="cls-4" d="M17.63,18.89s.03-.05.04-.07c0-.02.01-.04.02-.05,0,.02-.01.03-.02.05-.01.02-.02.05-.04.07Z"/><path class="cls-4" d="M14.88,19.18c-.18.1-.35.22-.51.35-.02.01-.03.02-.05.04.02-.01.03-.02.05-.04.17-.13.34-.24.51-.35Z"/><path class="cls-4" d="M17.68,18.45c-.05-.06-.15-.08-.3-.07-.07,0-.14.02-.2.03.07,0,.14-.02.2-.03.15-.02.25,0,.3.07Z"/><path class="cls-4" d="M15.01,20.12c.9-.14,1.81-.47,2.57-1.17.02-.02.04-.04.05-.06-.02.02-.03.04-.05.06-.76.7-1.66,1.02-2.57,1.17Z"/><path class="cls-4" d="M17.71,18.51s-.02-.04-.03-.06c.01.02.03.04.03.06Z"/><path class="cls-4" d="M17.68,18.45c-.05-.06-.15-.08-.3-.07-.07,0-.14.02-.2.03-.41.06-.8.15-1.19.27-.13.04-.25.09-.38.14-.25.1-.49.22-.73.36-.18.1-.35.22-.51.35-.02.01-.03.02-.05.04-.05.04-.1.08-.13.12-.02.03-.04.07-.04.1,0,.04,0,.08.02.13,0,.02.02.04.03.05.07.11.19.17.43.2.13-.01.26-.03.39-.05.9-.14,1.83-.47,2.59-1.17.02-.02.04-.04.05-.06.02-.02,0-.05.01-.07,0-.02.01-.04.02-.05.04-.1.05-.19.03-.26,0-.02-.02-.04-.03-.06Z"/><path class="cls-2" d="M14.65,20.42c-.29-.03-.54-.09-.67-.32l-.04-.09c-.03-.08-.04-.17-.03-.25.01-.07.04-.15.08-.21.06-.08.12-.13.18-.18.22-.17.4-.29.59-.4.23-.14.49-.26.76-.37.13-.05.26-.1.39-.14.38-.12.79-.22,1.23-.28l.21-.03c.24-.02.41.02.52.15.04.04.06.09.08.14.04.12.03.26-.03.42v.02s0,.05,0,.05l-.05.11s-.06.08-.09.1c-.69.64-1.61,1.05-2.72,1.23-.13.02-.27.04-.4.05ZM17.47,18.63s-.03,0-.06,0l-.2.03c-.41.06-.79.15-1.15.26-.12.04-.24.08-.36.13-.25.1-.48.21-.69.34-.17.1-.33.21-.49.33-.06.05-.11.08-.12.11.03.05.12.08.26.09.07-.01.19-.03.32-.05,1-.16,1.83-.53,2.45-1.09,0-.02,0-.04.02-.06.02-.04.03-.07.03-.09ZM17.9,18.91h0s0,0,0,0ZM17.47,18.58h0s0,0,0,0Z"/><polygon class="cls-2" points="13.87 20.3 14.26 20.65 14.11 20.65 13.87 20.54 13.87 20.3"/><polygon class="cls-2" points="13.79 20.39 13.96 20.5 14.04 19.99 13.84 19.86 13.79 20.39"/><path class="cls-4" d="M14.1,20.37s.15.17.03.29-.51,0-.51,0l.78.34v-.44l-.29-.19Z"/><ellipse class="cls-4" cx="15.98" cy="19.24" rx="2.65" ry=".89" transform="translate(-5.89 7.1) rotate(-21.26)"/><path class="cls-2" d="M14.32,20.88c-.57,0-1.02-.16-1.17-.54-.32-.81.96-1.73,2.36-2.28.7-.27,1.4-.44,1.96-.46.91-.05,1.21.27,1.32.54h0c.11.27.09.72-.61,1.29-.44.36-1.06.71-1.76.99-.71.28-1.49.46-2.11.46ZM17.65,18.34c-.4,0-1.04.1-1.86.41-1.34.52-1.93,1.16-1.93,1.33.1.08.96.16,2.31-.37,1.29-.5,1.88-1.11,1.93-1.31-.06-.04-.21-.07-.45-.07Z"/></svg>