<?xml version="1.0" encoding="UTF-8"?>
<svg id="Layer_1" data-name="Layer 1" xmlns="http://www.w3.org/2000/svg" viewBox="0 0 30.43 33.35">
  <defs>
    <style>
      .cls-1 {
        fill: #332b27;
      }

      .cls-1, .cls-2, .cls-3, .cls-4 {
        stroke-width: 0px;
      }

      .cls-5, .cls-6, .cls-7 {
        stroke-miterlimit: 10;
      }

      .cls-5, .cls-7 {
        stroke: #000;
      }

      .cls-5, .cls-7, .cls-4 {
        fill: #f5f7f6;
      }

      .cls-6 {
        stroke: #fff;
        stroke-width: .5px;
      }

      .cls-3 {
        fill: none;
      }

      .cls-7 {
        stroke-width: .75px;
      }
    </style>
  </defs>
  <path class="cls-3" d="M25.53,32.76s.01-.05.02-.08c0,.02-.01.05-.02.08Z"/>
  <path class="cls-3" d="M25.59,32.76c.06-.11.14-.2.17-.29-.04.09-.11.17-.17.29Z"/>
  <path class="cls-1" d="M25.55,32.76s.02-.07.04-.1c-.01.03-.03.06-.04.1Z"/>
  <path class="cls-1" d="M25.73,32.52c-.11-.1-.21-.06-.3,0,.09-.07.19-.11.3,0,.06.09.06.17.03.24.03-.07.03-.14-.03-.24Z"/>
  <g>
    <path class="cls-2" d="M21.98,26.21c-.26.09,1.23-.76.97-.67-.51.08.4,3.16-.11,3.21-2.44.25-5.9,4.18-7.66,2.23-.11-.2-.21-.41-.34-.59-.33-.45-.08-1.38-.66-1.43-1.12-.09-2.24-.6-3.38-.26-.19.05-.36.13-.39.36-.82.69-1.64,1.37-2.47,2.06-1.16.97-2.44.99-3.67.04-.34-.26-.65-.57-.97-.85-.21-.36-.41-.72-.62-1.07-.39-1.28.03-2.41.59-3.52,0,0,.04-.05.04-.05.33-.4.65-.79.98-1.19.72-.67,1.71-.89,2.56-1.36,1.27-.71,1.39-1.14.57-2.36-.15-.22-.34-.42-.51-.63-.07-.07-.15-.14-.22-.21-1.05-1.3-2.1-2.6-3.16-3.91-.12-.16-.25-.33-.37-.49-.67-1.08-1.34-2.15-2.01-3.23-.16-.47-.33-.94-.49-1.41-.03-.13-.06-.27-.09-.4.11-1.96.39-3.84,2.32-5.01.31-.19.11-.47.11-.72.04-2.56,2.62-4.3,5.24-3.51.5.15.84.18,1.3-.1,1.63-.96,3.31-.64,4.6.78.18.2.23.5.71.47,2.29-.14,3.11.3,3.98,2.31.79,1.82,1.83,3.45,3.29,4.88,1.11,1.08,2.12,2.25,3.18,3.39.7,1.09,1.4,2.18,2.1,3.27.72,1.96,1.13,3.95.54,5.96-.18.62-.42,1.02.07,1.42,1.31,1.05.13,1.95-.27,3.45-.22.81-3-.59-3.44.11-.69.58-1.88-.69-2.57-.11-.24.14.24-.14,0,0M14.22,4.2c-.38-.93-.84-1.75-1.69-2.41-.88-.68-1.53-.23-2.28.11-.88.4-.17.86-.06,1.28.64,2.63,2.17,4.87,3.7,7.14-.67.21-.92-.21-1.2-.57-1.42-1.78-2.59-3.68-3.24-5.83-.3-.98-.86-1.87-2.09-1.98-1.24-.1-2.27.31-2.93,1.35-.66,1.05-.46,1.6.74,2.1.88.37,1.56.98,1.97,1.79.38.75.72,1.53.97,2.33.45,1.44,1.1,2.75,2.31,3.81-1.26-.44-2.23-1.19-2.76-2.38-.36-.81-.67-1.63-.99-2.45-.25-.65-.62-1.25-1.14-1.74-.97-.92-2.09-.91-2.86.13-1.12,1.5-1.37,3.14-.51,4.9,1.01,2.1,2.53,3.9,3.93,5.76.82,1.09,1.76,2.1,2.36,3.32.79,1.62.43,2.46-1.3,3.07-1.44.51-2.49,1.41-3.2,2.66-.49.87-.55,1.78-.09,2.71.84,1.69,2.62,2.01,3.98.71,1.08-1.02,2.11-2.05,3.81-2.24.8-.09,1.3.57,2.04.44.36-.06.71.11.94-.41,1.88-4.2,6.59-6.53,11.21-5.46,1.23.29,1.42-.1,1.44-1.04.09-3.13-.86-5.91-3.16-8.27-1.23-1.27-2.42-2.57-3.66-3.83-1.36-1.38-2.09-3.07-2.87-4.74-.34-.74-.88-1.16-1.71-1.27-.69-.09-.95.06-.69.8.58,1.63,1.43,3.14,2.31,4.64.19.32.52.59.46,1.28-1.85-1.74-2.9-3.69-3.74-5.74ZM27.84,28.96c2.36-2.58,1.14-5.54-2.49-6.04-3.64-.51-6.71.63-8.99,3.27-2.14,2.49-1,5.14,2.96,5.92,3.05.35,6.16-.57,8.52-3.15Z"/>
    <path class="cls-2" d="M20.57,32.76c-.43,0-.87-.03-1.31-.08-.8-.16-1.51-.39-2.12-.68-.88.21-1.71.11-2.39-.64l-.07-.1c-.04-.07-.07-.13-.11-.2-.06-.11-.12-.23-.2-.33-.22-.3-.28-.67-.32-.96-.01-.07-.03-.17-.04-.24-.36-.04-.71-.11-1.05-.18-.69-.14-1.35-.28-1.97-.1v.09s-2.66,2.21-2.66,2.21c-1.38,1.15-2.95,1.17-4.4.06-.25-.2-.49-.41-.71-.61-.1-.09-.19-.18-.29-.26l-.07-.06-.72-1.28c-.45-1.47.03-2.77.63-3.96l.11-.16,1.04-1.25c.54-.5,1.18-.77,1.79-1.03.31-.13.61-.26.88-.41.61-.34.76-.52.79-.62.02-.1-.03-.33-.41-.9-.09-.13-.2-.25-.3-.38-.05-.06-.1-.12-.15-.18l-.24-.24-3.54-4.42-2.09-3.39-.61-1.96v-.08c.11-1.91.4-4.05,2.47-5.39-.02-.09-.04-.19-.04-.31.02-1.35.67-2.58,1.77-3.39,1.2-.88,2.74-1.12,4.22-.67.41.13.56.12.83-.04,1.85-1.09,3.84-.76,5.33.89.06.07.11.14.17.22.02.03.04.06.06.09,2.57-.18,3.6.42,4.56,2.63.82,1.89,1.86,3.42,3.16,4.7.78.76,1.52,1.57,2.24,2.36.32.35.64.7.96,1.05l.06.08,2.15,3.39c.63,1.7,1.25,3.95.55,6.33-.03.1-.06.19-.09.28-.05.15-.12.38-.11.44h0s.01.03.07.07c.58.47.79.94.82,1.4.09.17.18.34.24.53.49,1.37.07,2.93-1.17,4.28h0c-2.03,2.22-4.73,3.41-7.71,3.41ZM18.73,31.37c.22.06.46.12.7.17,3.06.35,5.91-.71,7.97-2.97.29-.32.52-.65.69-.97-.44.48-1.38.28-2.16.12-.37-.08-.96-.2-1.19-.17h0s-.07.06-.07.06c-.35.29-.74.33-1.11.26.05.57.02.93-.19,1.19-.12.15-.29.25-.48.27-.82.09-1.87.71-2.89,1.31-.42.25-.85.5-1.28.73ZM23.67,23.39c-2.74,0-5.04,1.07-6.87,3.19-.81.94-1.1,1.92-.81,2.75.19.55.63,1.04,1.27,1.43.6-.22,1.31-.62,2.15-1.12,1-.59,2.04-1.2,3-1.41,0-.2-.04-.47-.07-.72-.09-.02-.17-.03-.22-.02-.01.01-.03.02-.04.03h0s-.07.04-.07.04c0,0,0,0,0,0l-.06.03h0c-.52.25-.79-.19-.8-.21s-.26-.47.22-.8h0s.03-.02.03-.02c.03-.02.07-.05.1-.07l-.08-.03c-.23-.49.14-.71.74-1.08.08-.05.16-.1.23-.14.09-.13.23-.22.41-.26l.46-.15.25.47c.13.29.06.48-.14.67,0,.16.02.42.05.67.19.06.39.12.48.1.47-.54,1.39-.34,2.28-.16.31.07.83.17,1.05.17.13-.42.3-.78.46-1.11.16-.33.27-.57.32-.77-.53-.7-1.49-1.19-2.73-1.36-.55-.08-1.08-.11-1.6-.11ZM4.09,6.67s-.05,0-.08,0c-.32.03-.61.22-.86.56-1.03,1.39-1.18,2.8-.46,4.3.81,1.68,1.98,3.2,3.12,4.68.25.33.5.65.75.98.21.28.43.55.65.83.64.8,1.3,1.63,1.77,2.59.48.98.58,1.73.32,2.37-.27.65-.89,1.13-1.95,1.51-1.28.45-2.23,1.24-2.89,2.4-.41.73-.44,1.44-.08,2.17.32.65.81,1.06,1.38,1.16.56.1,1.16-.12,1.67-.61l.1-.09c1.08-1.03,2.2-2.1,4.05-2.3.55-.06.98.13,1.33.28.3.13.48.21.67.17.16-.03.35-.02.49-.03,0,0,.01-.02.02-.04,2.01-4.48,7.01-6.91,11.88-5.79.53.12.66.06.67.06,0,0,.05-.11.06-.55.09-3.11-.88-5.67-2.99-7.85-.52-.54-1.04-1.08-1.55-1.63-.7-.74-1.39-1.47-2.11-2.19-1.34-1.35-2.09-2.98-2.82-4.56l-.16-.34c-.27-.58-.64-.86-1.26-.94-.03,0-.05,0-.07,0,0,0,0,.02.01.03.56,1.59,1.39,3.06,2.26,4.54.03.05.07.1.1.16.2.28.5.71.44,1.47l-.1,1.21-.88-.83c-2.07-1.94-3.12-4.1-3.88-5.95h0c-.31-.76-.71-1.56-1.51-2.17-.48-.37-.76-.26-1.42.06l-.26.12s-.02,0-.03.01c.02.03.03.05.04.07.09.15.2.32.25.53.61,2.5,2.05,4.63,3.57,6.89l.48.71-.74.24c-1,.32-1.5-.32-1.76-.67l-.07-.09c-1.67-2.11-2.74-4.02-3.34-6.03-.31-1.02-.79-1.5-1.58-1.56-1.08-.09-1.88.27-2.39,1.08-.3.48-.29.68-.27.74.02.07.14.25.74.51,1.02.43,1.8,1.14,2.26,2.07.45.91.77,1.67,1.01,2.41.5,1.6,1.16,2.69,2.14,3.54l2.28,1.99-2.86-1c-1.5-.52-2.54-1.43-3.1-2.7-.31-.69-.58-1.41-.85-2.09l-.15-.38c-.24-.62-.57-1.12-.99-1.53-.35-.34-.71-.51-1.05-.51ZM21.98,26.2l.04.12s.04,0,.06,0l-.09-.12h-.01ZM3.64,4.95c.02.15.04.39-.07.61.11-.03.22-.05.33-.05.08,0,.15,0,.23,0-.2-.15-.37-.33-.49-.55ZM14.18,2.8c.12.2.23.41.33.61.02-.15.08-.31.19-.45-.22-.02-.39-.08-.52-.16ZM8.88,1.93c.13.1.25.21.36.34,0-.06.02-.12.04-.18.03-.09.06-.17.11-.24-.17.05-.34.08-.5.08Z"/>
  </g>
  <path class="cls-7" d="M14.87,28.14c-.68.82-2.43-.42-3.23-.34-1.7.19-2.73,1.22-3.81,2.24-1.36,1.29-3.14.98-3.98-.71-.46-.93-.4-1.85.09-2.71.71-1.25,1.77-2.16,3.2-2.66,1.73-.61,2.09-1.46,1.3-3.07-.6-1.22-1.54-2.24-2.36-3.32-1.41-1.86-2.92-3.66-3.93-5.76-.85-1.77-.6-3.41.51-4.9.77-1.04,1.89-1.05,2.86-.13.52.49.88,1.09,1.14,1.74.32.82.63,1.64.99,2.45.33.75.84,1.32,1.49,1.76.24.16.52-.14.34-.38-.64-.84-1.06-1.79-1.38-2.81-.25-.79-.6-1.57-.97-2.33-.41-.82-1.09-1.42-1.97-1.79-1.19-.5-1.4-1.05-.74-2.1.66-1.04,1.69-1.45,2.93-1.35,1.23.1,1.79,1,2.09,1.98.65,2.16,1.82,4.05,3.24,5.83.19.23.36.5.65.59.23.07.42-.21.29-.41-1.44-2.14-2.84-4.28-3.44-6.76-.1-.43-.81-.89.06-1.28.75-.34,1.4-.79,2.28-.11.85.66,1.31,1.48,1.69,2.41.71,1.74,1.57,3.4,2.94,4.93.22.25.61-.06.42-.33-.03-.04-.06-.09-.08-.13-.88-1.5-1.73-3.01-2.31-4.64-.26-.74,0-.89.69-.8.83.11,1.37.53,1.71,1.27.78,1.67,1.51,3.36,2.87,4.74,1.24,1.26,2.44,2.56,3.66,3.83,2.29,2.37,3.25,5.15,3.16,8.27l-.76,3.92-10.53,3.5-1.13-.61"/>
  <path class="cls-3" d="M25.73,27.59c-.1-.09-.18-.07-.26-.02.08-.05.17-.07.26.02.06.09.06.17.03.24.03-.07.03-.14-.03-.24Z"/>
  <path class="cls-3" d="M14.96,27.04c2.69-3.24,6.33-4.52,10.46-4.48-4.04-.04-8.39,1.02-10.46,4.48Z"/>
  <path class="cls-3" d="M25.59,28.12s.03-.06.05-.08c-.02.03-.03.05-.05.08Z"/>
  <path class="cls-3" d="M25.64,28.02s.05-.07.07-.11c-.02.03-.04.07-.07.11Z"/>
  <path class="cls-3" d="M25.72,27.9s.02-.04.03-.07c0,.02-.02.04-.03.07Z"/>
  <path class="cls-3" d="M21.58,26.78c.22-.09.45-.17.68-.25-.23.07-.46.16-.68.25Z"/>
  <path class="cls-3" d="M18.95,28.53c0,.07,0,.15.03.24.01.03.03.07.05.1-.02-.03-.03-.06-.05-.1-.03-.09-.04-.17-.03-.24Z"/>
  <g>
    <path class="cls-2" d="M29.17,23.99c-.26-.36-.76-.53-1.12-.75,0,0,0,0,0,0,0,0-1.42-.67-2.62-.68-4.14-.04-7.78,1.24-10.46,4.48-.16.27-.31.56-.45.86-.21.47-.38,1-.53,1.48.07.17.1.39.1.66,0,.59.4,1.08.86,1.5.79.72,1.74,1.08,2.76,1.17,4.12.36,7.66-1,10.67-3.78.56-.51.97-1.15,1.24-1.87.41-1.1.24-2.11-.45-3.06ZM28.79,26.8c-.36.84-.96,1.48-1.68,2.02-2.65,1.99-5.6,3.13-8.94,3.01-1.34-.05-2.71-.35-3.27-1.76-.54-1.38.23-2.52,1.19-3.41,2.86-2.66,6.26-3.83,10.16-3.44.67.14,1.27.39,1.81.79.96.72,1.21,1.68.72,2.78Z"/>
    <path class="cls-2" d="M18.99,33.35c-.44,0-.89-.02-1.34-.06-1.21-.11-2.26-.55-3.1-1.32-.46-.41-1.06-1.06-1.05-1.94,0-.19-.02-.33-.06-.44l-.07-.19.06-.19c.18-.61.36-1.12.55-1.55.14-.31.29-.61.48-.92l.05-.07c2.62-3.16,6.29-4.74,10.92-4.69,1.31.01,2.8.7,2.86.73l.05.03c.09.05.19.11.29.16.33.17.74.38,1.01.75h0c.82,1.14,1,2.35.52,3.61-.31.82-.78,1.53-1.39,2.09-2.87,2.65-6.16,3.99-9.78,3.99ZM24.81,23.73c-3.1,0-5.91,1.13-8.31,3.36-1.07.99-1.4,1.87-1.05,2.77.36.92,1.18,1.33,2.74,1.39,3.04.11,5.84-.84,8.57-2.89.71-.54,1.2-1.12,1.49-1.79h0c.38-.87.21-1.53-.54-2.08-.46-.34-.97-.57-1.57-.69-.45-.05-.9-.07-1.33-.07Z"/>
  </g>
  <path class="cls-5" d="M28.07,24.01c-.53-.4-1.13-.66-1.81-.79-3.9-.39-7.3.78-10.16,3.44-.96.89-1.73,2.03-1.19,3.41.55,1.41,1.92,1.71,3.27,1.76,3.35.12,6.3-1.02,8.94-3.01.71-.54,1.31-1.19,1.68-2.02.48-1.11.24-2.07-.72-2.78ZM25.84,28.02c0-.06-.32.32-.31.27,0-.03.01-.05.02-.08.01-.03.02-.07.04-.1.01-.03.03-.06.05-.08,0,0,0-.01.01-.02.02-.04.05-.07.07-.11,0,0,0,0,0-.01.01-.02.02-.04.03-.07.03-.07.03-.14-.03-.24-.1-.09-.18-.07-.26-.02-.01,0-.02.02-.03.02-.01,0-.03.02-.04.03-1.46,1.21-3.17,1.81-5.02,2.05-.7.09-1.36-.01-1.9-.66-.21.65.18.19.55.46-1,.08-1.3.24-1.08-.6.1-.39.34-.72.63-.98,1.83-1.62,4.01-2.43,6.42-2.63.73-.06,1.42.23,1.58,1.03.17.85.16,1.13-.73,1.71Z"/>
  <path class="cls-1" d="M25.71,27.91s0,0,0-.01c0,0,0,0,0,.01Z"/>
  <path class="cls-1" d="M25.63,28.04s0-.01.01-.02c0,0,0,.01-.01.02Z"/>
  <path class="cls-4" d="M18.95,28.53c0-.07.04-.13.08-.19-.04.06-.07.12-.08.19Z"/>
  <path class="cls-4" d="M25.22,26.91s.05-.08.07-.13c.01-.03.03-.06.04-.1-.01.03-.02.06-.04.1-.02.04-.04.09-.07.13Z"/>
  <path class="cls-4" d="M20.27,27.42c-.32.19-.63.39-.93.62-.03.02-.06.04-.09.07.03-.02.06-.04.09-.07.3-.23.61-.44.93-.62Z"/>
  <path class="cls-4" d="M25.32,26.11c-.09-.11-.27-.15-.55-.12-.12.02-.25.03-.37.05.12-.02.25-.03.37-.05.28-.03.45.01.55.12Z"/>
  <g>
    <path class="cls-2" d="M25.1,25.27c-2.4.2-4.59,1-6.42,2.63-.29.26-.53.59-.63.98-.13.52-.02.89.33,1.08.2.11.41-.14.27-.33-.11-.14-.16-.33-.07-.61.54.65,1.2.75,1.9.66,1.85-.24,3.56-.84,5.02-2.05.01-.01.03-.02.04-.03.01,0,.02-.02.03-.02.08-.05.17-.07.26.02.06.09.06.17.03.24,0,.02-.02.04-.03.07,0,0,0,0,0,.01-.02.03-.04.07-.07.11,0,0,0,.01-.01.02-.02.03-.03.05-.05.08-.01.03-.03.06-.04.1,0,.02-.01.05-.02.08,0,.05-.16.26.07.12.89-.58,1.14-1.26.97-2.1-.16-.8-.85-1.09-1.58-1.03ZM25.44,26.68s-.02.06-.04.1c-.02.04-.04.09-.07.13-.03.04-.06.08-.1.11-1.37,1.26-3,1.84-4.63,2.1-.23.04-.46.07-.7.09-.43-.05-.66-.15-.78-.35-.02-.03-.03-.06-.05-.1-.03-.09-.04-.17-.03-.24s.04-.13.08-.19c.06-.08.14-.16.23-.22.03-.02.06-.04.09-.07.3-.23.61-.44.93-.62.42-.25.86-.46,1.31-.64.22-.09.45-.17.68-.25.69-.22,1.41-.38,2.14-.49.12-.02.25-.03.37-.05.28-.03.45.01.55.12.03.03.05.07.06.11.04.12.02.28-.05.46Z"/>
    <path class="cls-6" d="M18.48,30.57c-.13,0-.25-.03-.37-.09-.28-.15-.91-.62-.62-1.74.12-.48.39-.9.81-1.27,1.82-1.62,4.09-2.55,6.75-2.77,1.14-.09,2,.49,2.2,1.5.23,1.13-.17,2.02-1.22,2.71-.44.27-.73.08-.83-.01-.04-.04-.1-.1-.15-.2-1.27.83-2.75,1.34-4.49,1.57-.52.07-.97.03-1.37-.11-.03.05-.06.09-.09.14-.16.19-.38.29-.61.29ZM19.71,28.58s.11.02.21.04c.2-.02.4-.05.6-.08,1.78-.29,2.86-.89,3.98-1.92-.08.01.18-.01.1,0-.73.11-1.42.26-2.04.47-.22.07-.43.15-.65.23-.43.17-.84.38-1.23.6-.3.18-.59.37-.87.58l-.09.07s0,0-.01,0Z"/>
  </g>
  <path class="cls-4" d="M25.43,26.11c-.09-.11-.27-.15-.55-.12-.12.02-.25.03-.37.05-.73.11-1.45.27-2.14.49-.23.07-.46.16-.68.25-.45.18-.89.39-1.31.64-.32.19-.63.39-.93.62-.03.02-.06.04-.09.07-.09.07-.17.14-.23.22-.04.06-.07.12-.08.19,0,.07,0,.15.03.24.01.03.03.07.05.1.12.21.35.3.78.35.23-.02.46-.06.7-.09,1.63-.26,3.26-.85,4.63-2.1.04-.03.07-.07.1-.11.03-.04.05-.08.07-.13.01-.03.03-.06.04-.1.07-.19.09-.34.05-.46-.01-.04-.03-.08-.06-.11Z"/>
  <path class="cls-4" d="M20.5,29.12c1.63-.26,3.26-.85,4.63-2.1.04-.03.07-.07.1-.11-.03.04-.06.08-.1.11-1.37,1.26-3,1.84-4.63,2.1Z"/>
  <path class="cls-4" d="M25.38,26.22s-.03-.08-.06-.11c.03.03.05.07.06.11Z"/>
</svg>