<?xml version="1.0" encoding="UTF-8"?>
<svg id="Layer_1" data-name="Layer 1" xmlns="http://www.w3.org/2000/svg" viewBox="0 0 30.43 33.35">
  <defs>
    <style>
      .cls-1 {
        fill: #332b27;
      }

      .cls-1, .cls-2, .cls-3, .cls-4 {
        stroke-width: 0px;
      }

      .cls-5, .cls-6, .cls-7 {
        stroke-miterlimit: 10;
      }

      .cls-5, .cls-7 {
        stroke: #000;
      }

      .cls-5, .cls-7, .cls-4 {
        fill: #f5f7f6;
      }

      .cls-6 {
        stroke: #fff;
        stroke-width: .5px;
      }

      .cls-3 {
        fill: none;
      }

      .cls-7 {
        stroke-width: .75px;
      }
    </style>
  </defs>
  <g>
    <path class="cls-2" d="M27.37,11.99l.58,1.33.68,2.57c.17,1.58.35,3.15-.14,4.72-.23.73-.86,1.39-.88,2.04-.02.67,1.12.75,1.55,1.35.69.95.86,1.96.45,3.06-.27.72-.68,1.36-1.24,1.87-3.01,2.78-6.55,4.14-10.67,3.78-1.02-.09-1.97-.45-2.76-1.17-.46-.41-.86-.91-.86-1.5.01-1.03-.5-1.24-1.4-1.47-2.61-.66-4.76-2.04-5.89-4.6-.67-1.51-.57-3.01.51-4.34.27-.33.27-.51-.02-.81-.58-.58-1.07-1.23-1.49-1.95-1.99-3.46-.43-7.17,3.44-8.14.59-.15,1.09-.37,1.57-.75,1.29-1.03,2.75-1.44,4.41-1.24.55.07,1.03-.12,1.51-.34.68-.31,1.44-.39,2.17-.24h0c.8.17,1.54.54,2.21,1.01.16.11.34.19.52.2,1.9.18,3.16,1.38,4.41,2.61,0,.03.02.05.03.07l.31.32.47.67c.11.36.27.68.54.94ZM8.8,16.73c2.57,1.05,4.36,3.77,3.12,5.63-.24-1.02-.14-1.99-.71-2.76-.22-.3-.36-.76-.84-.73-1.18.07-2.87.7-3.16,2.4-.16.97,0,1.9.49,2.75,1.38,2.38,3.59,3.44,6.2,3.86.3.05.45-.06.63-.31,2.72-3.63,6.53-5.05,10.89-5.01,1.2.01,1.63-.43,2.03-1.3.09-.21.16-.43.22-.65,1.11-3.68-.7-9.24-3.75-11.56-.47-.36-.97-.7-1.71-.79.49,1.07,1,1.99.99,3.3-.81-1.04-1.13-2.09-1.71-2.98-1.09-1.69-3.34-2.33-4.83-1.37,1.57,1.06,2.51,2.51,2.75,4.38-1.13-1.25-1.53-3.13-3.27-3.8-1.68-.65-3.31-.47-4.82.71,2.94,1.06,4.95,3.11,4.68,4.76-.78-1.35-1.75-2.47-3.12-3.2-2.03-1.08-4.23-.77-5.87.85-1.51,1.49-1.71,3.29-.6,5.41.4.76.85,1.48,1.43,2.11.17.19.29.42.64.26.44-.2.92-.34,1.49-.54-.59-.39-1.31-.28-1.66-.93M26.26,23.22c-3.9-.39-7.3.78-10.16,3.44-.96.89-1.73,2.03-1.19,3.41.55,1.41,1.92,1.71,3.27,1.76,3.35.12,6.3-1.02,8.94-3.01.71-.54,1.31-1.19,1.68-2.02.48-1.11.24-2.07-.72-2.78-.53-.4-1.13-.66-1.81-.79Z"/>
    <path class="cls-2" d="M18.99,33.35c-.44,0-.89-.02-1.34-.06-1.21-.11-2.26-.55-3.1-1.32-.46-.41-1.06-1.06-1.05-1.94,0-.58-.1-.68-.96-.9-3.07-.77-5.18-2.43-6.29-4.93-.79-1.79-.59-3.5.59-4.95,0,0,.01-.02.02-.03-.61-.61-1.14-1.31-1.58-2.07-1.06-1.84-1.24-3.81-.51-5.53.73-1.72,2.26-2.95,4.31-3.47.56-.14.97-.34,1.35-.64,1.41-1.13,3.04-1.59,4.85-1.36.37.04.71-.07,1.19-.29.78-.36,1.68-.46,2.53-.28.81.17,1.61.53,2.43,1.1.08.06.17.1.24.1,2.16.2,3.54,1.57,4.77,2.78l.41.47.53.75.03.09c.09.3.21.52.39.69l.08.08.65,1.52.7,2.65c.18,1.64.36,3.29-.16,4.96-.11.36-.3.7-.47.99-.19.34-.37.65-.38.89.04.03.29.16.44.24.33.17.74.38,1,.75.82,1.14,1,2.35.52,3.61-.31.82-.78,1.53-1.39,2.09-2.87,2.65-6.16,3.99-9.78,3.99ZM24.82,23.73c-3.13,0-5.93,1.13-8.33,3.36-1.08,1-1.4,1.86-1.05,2.77.36.92,1.18,1.33,2.74,1.39,3.04.11,5.84-.83,8.57-2.89.71-.54,1.2-1.12,1.49-1.79.38-.87.2-1.53-.54-2.08-.45-.34-.96-.56-1.55-.68-.46-.05-.9-.07-1.35-.07ZM14.02,28.48c.06.05.12.1.18.15.01-.06.02-.11.04-.17-.07.01-.14.02-.22.02ZM10.4,19.45c-.24.02-2.33.2-2.61,1.91-.14.84,0,1.63.42,2.36,1.15,1.99,2.99,3.12,5.79,3.58,0,0,0,0,0,0,.01-.02.04-.04.07-.08,2.64-3.53,6.49-5.28,11.36-5.25.9,0,1.16-.23,1.49-.96.07-.14.11-.31.17-.48l.03-.09c1.04-3.45-.68-8.76-3.54-10.92-.08-.06-.15-.12-.23-.17.26.65.45,1.36.45,2.22v1.69s-1.05-1.33-1.05-1.33c-.52-.67-.85-1.34-1.15-1.94-.19-.39-.37-.76-.59-1.09-.49-.76-1.26-1.3-2.13-1.48-.36-.08-.71-.09-1.04-.03,1.22,1.09,1.95,2.48,2.16,4.14l.24,1.84-1.25-1.38c-.44-.48-.76-1.03-1.08-1.56-.55-.93-1.03-1.72-1.97-2.09-1.2-.47-2.31-.45-3.35.06,2.65,1.25,4.28,3.23,3.99,4.96l-.27,1.61-.81-1.41c-.82-1.42-1.74-2.36-2.89-2.98-1.8-.96-3.74-.68-5.19.75-1.33,1.32-1.49,2.82-.49,4.72.29.56.58,1.03.88,1.43l.87-.46.34-.84c1.78.73,3.24,2.21,3.72,3.76.31,1,.19,1.95-.33,2.74l-.75,1.12-.31-1.31c-.09-.36-.13-.7-.17-1.03-.08-.6-.14-1.11-.44-1.51-.06-.08-.12-.17-.18-.27-.05-.08-.13-.21-.17-.24ZM26.96,22.8s.06.02.08.03c0-.02,0-.05,0-.08-.02.02-.05.03-.08.05ZM8.29,18.07l.05.05s.01,0,.02,0c-.02-.01-.04-.03-.07-.04Z"/>
  </g>
  <path class="cls-7" d="M9.09,16.85c1.79.84,3.13,2.47,3.23,3.99.02.39-.56.45-.62.06-.08-.47-.19-.91-.48-1.29-.22-.3-.36-.76-.84-.73-1.18.07-2.87.7-3.16,2.4-.16.97,0,1.9.49,2.75,1.38,2.38,3.59,3.44,6.2,3.86.3.05.45-.06.63-.31,2.72-3.63,6.53-5.05,10.89-5.01,1.2.01,1.63-.43,2.03-1.3.09-.21.16-.43.22-.65,1.11-3.68-.7-9.24-3.75-11.56-.47-.36-.97-.7-1.71-.79.31.68.63,1.3.82,2.01.09.32-.37.51-.53.21-.36-.67-.63-1.32-1.01-1.9-1.09-1.69-3.34-2.33-4.83-1.37,1.42.96,2.31,2.23,2.65,3.84.03.15-.17.24-.26.11-.89-1.21-1.37-2.77-2.92-3.37-1.68-.65-3.31-.47-4.82.71,2.41.87,4.2,2.4,4.61,3.83.07.24-.26.39-.4.18-.7-1.02-1.54-1.87-2.66-2.46-2.03-1.08-4.23-.77-5.87.85-1.51,1.49-1.71,3.29-.6,5.41.4.76.85,1.48,1.43,2.11.17.19.29.42.64.26.44-.2.92-.34,1.49-.54-.43-.29-.93-.3-1.3-.54-.23-.15-.27-.48-.07-.68h0c.13-.13.33-.16.5-.09Z"/>
  <path class="cls-3" d="M25.64,28.28s.01-.05.02-.08c0,.02-.01.05-.02.08Z"/>
  <path class="cls-3" d="M25.7,28.11c.06-.11.14-.2.17-.29-.04.09-.11.17-.17.29Z"/>
  <path class="cls-1" d="M25.66,28.21s.02-.07.04-.1c-.01.03-.03.06-.04.1Z"/>
  <path class="cls-1" d="M25.84,27.59c-.11-.1-.21-.06-.3,0,.09-.07.19-.11.3,0,.06.09.06.17.03.24.03-.07.03-.14-.03-.24Z"/>
  <path class="cls-3" d="M25.84,27.59c-.1-.09-.18-.07-.26-.02.08-.05.17-.07.26.02.06.09.06.17.03.24.03-.07.03-.14-.03-.24Z"/>
  <path class="cls-3" d="M15.08,27.04c2.69-3.24,6.33-4.52,10.46-4.48-4.04-.04-8.39,1.02-10.46,4.48Z"/>
  <path class="cls-3" d="M25.7,28.11s.03-.06.05-.08c-.02.03-.03.05-.05.08Z"/>
  <path class="cls-3" d="M25.76,28.01s.05-.07.07-.11c-.02.03-.04.07-.07.11Z"/>
  <path class="cls-3" d="M25.84,27.89s.02-.04.03-.07c0,.02-.02.04-.03.07Z"/>
  <path class="cls-3" d="M21.7,26.78c.22-.09.45-.17.68-.25-.23.07-.46.16-.68.25Z"/>
  <path class="cls-3" d="M19.06,28.52c0,.07,0,.15.03.24.01.03.03.07.05.1-.02-.03-.03-.06-.05-.1-.03-.09-.04-.17-.03-.24Z"/>
  <path class="cls-2" d="M29.28,23.99c-.26-.36-.76-.53-1.12-.75,0,0,0,0,0,0,0,0-1.42-.67-2.62-.68-4.14-.04-7.78,1.24-10.46,4.48-.16.27-.31.56-.45.86-.21.47-.38,1-.53,1.48.07.17.1.39.1.66,0,.59.4,1.08.86,1.5.79.72,1.74,1.08,2.76,1.17,4.12.36,7.66-1,10.67-3.78.56-.51.97-1.15,1.24-1.87.41-1.1.24-2.11-.45-3.06ZM28.91,26.79c-.36.84-.96,1.48-1.68,2.02-2.65,1.99-5.6,3.13-8.94,3.01-1.34-.05-2.71-.35-3.27-1.76-.54-1.38.23-2.52,1.19-3.41,2.86-2.66,6.26-3.83,10.16-3.44.67.14,1.27.39,1.81.79.96.72,1.21,1.68.72,2.78Z"/>
  <path class="cls-5" d="M28.18,24.01c-.53-.4-1.13-.66-1.81-.79-3.9-.39-7.3.78-10.16,3.44-.96.89-1.73,2.03-1.19,3.41.55,1.41,1.92,1.71,3.27,1.76,3.35.12,6.3-1.02,8.94-3.01.71-.54,1.31-1.19,1.68-2.02.48-1.11.24-2.07-.72-2.78ZM25.84,27.89c0-.06-.2.44-.2.39,0-.03.01-.05.02-.08.01-.03.02-.07.04-.1.01-.03.03-.06.05-.08,0,0,0-.01.01-.02.02-.04.05-.07.07-.11,0,0,0,0,0-.01.01-.02.02-.04.03-.07.03-.07.03-.14-.03-.24-.1-.09-.18-.07-.26-.02-.01,0-.02.02-.03.02-.01,0-.03.02-.04.03-1.46,1.21-3.17,1.81-5.02,2.05-.7.09-1.36-.01-1.9-.66-.21.65.08.13.45.4-1,.08-1.19.3-.98-.54.1-.39.34-.72.63-.98,1.83-1.62,4.01-2.43,6.42-2.63.73-.06,1.42.23,1.58,1.03.17.85.04,1.01-.84,1.59Z"/>
  <g>
    <path class="cls-2" d="M25.1,25.27c-2.4.2-4.59,1-6.42,2.63-.29.26-.53.59-.63.98-.13.52-.02.89.33,1.08.2.11.41-.14.27-.33-.11-.14-.16-.33-.07-.61.54.65,1.2.75,1.9.66,1.85-.24,3.56-.84,5.02-2.05.01-.01.03-.02.04-.03.01,0,.02-.02.03-.02.08-.05.17-.07.26.02.06.09.06.17.03.24,0,.02-.02.04-.03.07,0,0,0,0,0,.01-.02.03-.04.07-.07.11,0,0,0,.01-.01.02-.02.03-.03.05-.05.08-.01.03-.03.06-.04.1,0,.02-.01.05-.02.08,0,.05-.16.26.07.12.89-.58,1.14-1.26.97-2.1-.16-.8-.85-1.09-1.58-1.03ZM25.44,26.68s-.02.06-.04.1c-.02.04-.04.09-.07.13-.03.04-.06.08-.1.11-1.37,1.26-3,1.84-4.63,2.1-.23.04-.46.07-.7.09-.43-.05-.66-.15-.78-.35-.02-.03-.03-.06-.05-.1-.03-.09-.04-.17-.03-.24s.04-.13.08-.19c.06-.08.14-.16.23-.22.03-.02.06-.04.09-.07.3-.23.61-.44.93-.62.42-.25.86-.46,1.31-.64.22-.09.45-.17.68-.25.69-.22,1.41-.38,2.14-.49.12-.02.25-.03.37-.05.28-.03.45.01.55.12.03.03.05.07.06.11.04.12.02.28-.05.46Z"/>
    <path class="cls-6" d="M18.48,30.57c-.13,0-.25-.03-.37-.09-.28-.15-.91-.62-.62-1.74.12-.48.39-.9.81-1.27,1.82-1.62,4.09-2.55,6.75-2.77,1.14-.09,2,.49,2.2,1.5.23,1.13-.17,2.02-1.22,2.71-.44.27-.73.08-.83-.01-.04-.04-.1-.1-.15-.2-1.27.83-2.75,1.34-4.49,1.57-.52.07-.97.03-1.37-.11-.03.05-.06.09-.09.14-.16.19-.38.29-.61.29ZM19.71,28.58s.11.02.21.04c.2-.02.4-.05.6-.08,1.78-.29,2.86-.89,3.98-1.92-.08.01.18-.01.1,0-.73.11-1.42.26-2.04.47-.22.07-.43.15-.65.23-.43.17-.84.38-1.23.6-.3.18-.59.37-.87.58l-.09.07s0,0-.01,0Z"/>
  </g>
  <path class="cls-1" d="M25.83,27.9s0,0,0-.01c0,0,0,0,0,.01Z"/>
  <path class="cls-1" d="M25.75,28.03s0-.01.01-.02c0,0,0,.01-.01.02Z"/>
  <path class="cls-4" d="M25.43,26.11c-.09-.11-.27-.15-.55-.12-.12.02-.25.03-.37.05-.73.11-1.45.27-2.14.49-.23.07-.46.16-.68.25-.45.18-.89.39-1.31.64-.32.19-.63.39-.93.62-.03.02-.06.04-.09.07-.09.07-.17.14-.23.22-.04.06-.07.12-.08.19,0,.07,0,.15.03.24.01.03.03.07.05.1.12.21.35.3.78.35.23-.02.46-.06.7-.09,1.63-.26,3.26-.85,4.63-2.1.04-.03.07-.07.1-.11.03-.04.05-.08.07-.13.01-.03.03-.06.04-.1.07-.19.09-.34.05-.46-.01-.04-.03-.08-.06-.11Z"/>
  <path class="cls-4" d="M19.06,28.52c0-.07.04-.13.08-.19-.04.06-.07.12-.08.19Z"/>
  <path class="cls-4" d="M25.34,26.9s.05-.08.07-.13c.01-.03.03-.06.04-.1-.01.03-.02.06-.04.1-.02.04-.04.09-.07.13Z"/>
  <path class="cls-4" d="M20.39,27.42c-.32.19-.63.39-.93.62-.03.02-.06.04-.09.07.03-.02.06-.04.09-.07.3-.23.61-.44.93-.62Z"/>
  <path class="cls-4" d="M25.43,26.11c-.09-.11-.27-.15-.55-.12-.12.02-.25.03-.37.05.12-.02.25-.03.37-.05.28-.03.45.01.55.12Z"/>
  <path class="cls-4" d="M20.61,29.11c1.63-.26,3.26-.85,4.63-2.1.04-.03.07-.07.1-.11-.03.04-.06.08-.1.11-1.37,1.26-3,1.84-4.63,2.1Z"/>
  <path class="cls-4" d="M25.49,26.21s-.03-.08-.06-.11c.03.03.05.07.06.11Z"/>
</svg>