<?xml version="1.0" encoding="UTF-8"?><svg id="Layer_1" xmlns="http://www.w3.org/2000/svg" viewBox="0 0 20.31 22.26"><defs><style>.cls-1{fill:#332b27;}.cls-1,.cls-2,.cls-3,.cls-4{stroke-width:0px;}.cls-5{stroke:#000;stroke-miterlimit:10;stroke-width:.25px;}.cls-3{fill:none;}.cls-4{fill:#f5f7f6;}</style></defs><path class="cls-2" d="M18.91,12.46l.27.61.31,1.18c.08.72.16,1.45-.06,2.16-.11.33-.39.64-.4.94,0,.31.51.34.71.62.32.44.4.9.21,1.4-.12.33-.31.62-.57.86-1.38,1.28-3.01,1.9-4.9,1.74-.47-.04-.9-.21-1.27-.54-.21-.19-.4-.42-.39-.69,0-.47-.23-.57-.64-.67-1.2-.3-2.19-.94-2.71-2.11-.31-.69-.26-1.38.23-1.99.12-.15.13-.24,0-.37-.27-.27-.49-.57-.68-.89-.91-1.59-.2-3.29,1.58-3.74.27-.07.5-.17.72-.34.59-.47,1.26-.66,2.02-.57.25.03.47-.06.69-.16.31-.14.66-.18,1-.11h0c.37.08.71.25,1.02.46.08.05.16.09.24.09.87.08,1.45.63,2.02,1.2,0,.01,0,.02.02.03l.14.15.22.31c.05.16.12.31.25.43ZM10.39,14.63c1.18.48,2,1.73,1.43,2.58-.11-.47-.06-.91-.33-1.26-.1-.14-.16-.35-.39-.33-.54.03-1.32.32-1.45,1.1-.07.45,0,.87.23,1.26.63,1.09,1.65,1.58,2.85,1.77.14.02.21-.03.29-.14,1.25-1.67,3-2.32,5-2.3.55,0,.75-.2.93-.6.04-.1.07-.2.1-.3.51-1.69-.32-4.24-1.72-5.31-.22-.16-.44-.32-.79-.36.22.49.46.91.46,1.52-.37-.48-.52-.96-.78-1.37-.5-.78-1.53-1.07-2.22-.63.72.49,1.15,1.15,1.26,2.01-.52-.57-.7-1.44-1.5-1.75-.77-.3-1.52-.22-2.21.33,1.35.49,2.27,1.43,2.15,2.18-.36-.62-.8-1.13-1.43-1.47-.93-.5-1.94-.36-2.7.39-.69.69-.78,1.51-.27,2.48.18.35.39.68.66.97.08.09.13.19.29.12.2-.09.42-.16.68-.25-.27-.18-.6-.13-.76-.43M18.4,17.61c-1.79-.18-3.35.36-4.66,1.58-.44.41-.8.93-.55,1.56.25.65.88.79,1.5.81,1.54.06,2.89-.47,4.11-1.38.33-.25.6-.54.77-.93.22-.51.11-.95-.33-1.28-.24-.18-.52-.3-.83-.36Z"/><path class="cls-2" d="M15.06,22.26c-.2,0-.41,0-.61-.03-.56-.05-1.04-.25-1.42-.6-.21-.19-.49-.49-.48-.89,0-.27-.05-.31-.44-.41-1.41-.35-2.38-1.12-2.89-2.26-.36-.82-.27-1.61.27-2.27,0,0,0,0,0-.01-.28-.28-.52-.6-.72-.95-.49-.85-.57-1.75-.23-2.54.33-.79,1.04-1.35,1.98-1.59.26-.06.45-.15.62-.29.65-.52,1.39-.73,2.22-.63.17.02.33-.03.55-.13.36-.16.77-.21,1.16-.13.37.08.74.24,1.11.5.04.03.08.04.11.05.99.09,1.63.72,2.19,1.28l.19.22.24.34v.04c.05.14.11.24.19.32l.04.04.3.7.32,1.22c.08.75.17,1.51-.08,2.28-.05.17-.14.32-.22.46-.09.15-.17.3-.17.41.02.02.13.08.2.11.15.08.34.17.46.34.38.52.46,1.08.24,1.66-.14.38-.36.7-.64.96-1.32,1.22-2.83,1.83-4.49,1.83ZM17.74,17.85c-1.44,0-2.72.52-3.82,1.54-.5.46-.64.85-.48,1.27.16.42.54.61,1.26.64,1.39.05,2.68-.38,3.93-1.33.33-.25.55-.52.68-.82.17-.4.09-.7-.25-.96-.21-.15-.44-.26-.71-.31-.21-.02-.42-.03-.62-.03ZM12.78,20.03s.06.05.08.07c0-.03.01-.05.02-.08-.03,0-.06,0-.1,0ZM11.12,15.88c-.11,0-1.07.09-1.2.88-.06.39,0,.75.19,1.08.53.91,1.37,1.43,2.66,1.64,0,0,0,0,0,0,0,0,.02-.02.03-.04,1.21-1.62,2.98-2.42,5.21-2.41.41,0,.53-.11.68-.44.03-.07.05-.14.08-.22v-.04c.49-1.58-.3-4.02-1.61-5.01-.04-.03-.07-.05-.11-.08.12.3.21.63.21,1.02v.78s-.48-.61-.48-.61c-.24-.31-.39-.62-.53-.89-.09-.18-.17-.35-.27-.5-.22-.35-.58-.6-.98-.68-.17-.04-.33-.04-.48-.01.56.5.89,1.14.99,1.9l.11.85-.57-.63c-.2-.22-.35-.47-.5-.72-.25-.42-.47-.79-.9-.96-.55-.21-1.06-.21-1.54.03,1.21.57,1.97,1.48,1.83,2.28l-.12.74-.37-.65c-.37-.65-.8-1.08-1.33-1.37-.83-.44-1.72-.31-2.38.34-.61.61-.68,1.3-.22,2.17.13.26.27.47.41.66l.4-.21.16-.39c.82.34,1.49,1.01,1.71,1.73.14.46.09.89-.15,1.26l-.34.52-.14-.6c-.04-.17-.06-.32-.08-.47-.04-.27-.07-.51-.2-.69-.03-.04-.05-.08-.08-.12-.02-.04-.06-.1-.08-.11ZM18.72,17.42s.03,0,.04.01c0-.01,0-.02,0-.03-.01,0-.02.01-.03.02ZM10.15,15.25l.02.02s0,0,0,0c-.01,0-.02-.01-.03-.02Z"/><path class="cls-4" d="M10.52,14.69c.82.38,1.44,1.13,1.48,1.83.01.18-.26.2-.29.03-.03-.22-.09-.42-.22-.59-.1-.14-.16-.35-.39-.33-.54.03-1.32.32-1.45,1.1-.07.45,0,.87.23,1.26.63,1.09,1.65,1.58,2.85,1.77.14.02.21-.03.29-.14,1.25-1.67,3-2.32,5-2.3.55,0,.75-.2.93-.6.04-.1.07-.2.1-.3.51-1.69-.32-4.24-1.72-5.31-.22-.16-.44-.32-.79-.36.14.31.29.6.38.92.04.15-.17.23-.24.1-.17-.31-.29-.6-.46-.87-.5-.78-1.53-1.07-2.22-.63.65.44,1.06,1.02,1.22,1.76.01.07-.08.11-.12.05-.41-.56-.63-1.27-1.34-1.55-.77-.3-1.52-.22-2.21.33,1.11.4,1.93,1.1,2.12,1.76.03.11-.12.18-.18.08-.32-.47-.71-.86-1.22-1.13-.93-.5-1.94-.36-2.7.39-.69.69-.78,1.51-.27,2.48.18.35.39.68.66.97.08.09.13.19.29.12.2-.09.42-.16.68-.25-.2-.13-.42-.14-.6-.25-.11-.07-.12-.22-.03-.31h0c.06-.06.15-.08.23-.04Z"/><path class="cls-2" d="M12.79,19.93s-.06,0-.09,0c-1.41-.23-2.38-.84-2.97-1.86-.25-.42-.33-.89-.25-1.38.07-.45.33-.76.66-.96-.15.01-.25-.11-.3-.17-.27-.3-.49-.62-.71-1.04-.55-1.04-.44-1.94.3-2.69.79-.79,1.86-.95,2.85-.45-.24-.14-.52-.27-.8-.37l-.29-.11.24-.19c.72-.57,1.52-.69,2.38-.35.02,0,.05.02.07.03l-.2-.14.22-.14c.34-.22.76-.29,1.2-.19.51.11.97.43,1.26.87.03.04.05.08.07.12l-.18-.38.31.04c.38.05.64.22.87.4,1.46,1.11,2.31,3.73,1.78,5.49v.04c-.04.09-.07.19-.11.28-.2.43-.44.7-1.07.7-.03,0-.07,0-.1,0-2.06,0-3.67.75-4.78,2.23-.08.11-.19.21-.37.22ZM11.13,15.79h-.01c-.53.03-1.18.3-1.29.96-.07.41,0,.79.21,1.15.54.94,1.41,1.48,2.72,1.69.05,0,.06,0,.13-.07,1.18-1.57,2.88-2.37,5.05-2.37.03,0,.07,0,.1,0,.45,0,.59-.15.75-.49.03-.07.06-.15.08-.23v-.04c.5-1.62-.31-4.1-1.65-5.12-.12-.09-.24-.17-.37-.24.09.2.17.39.23.61.04.15-.04.3-.18.36-.15.06-.3,0-.38-.14-.06-.12-.12-.24-.18-.35-.09-.18-.17-.35-.28-.51-.24-.37-.62-.63-1.04-.72-.25-.05-.49-.04-.7.03.56.45.91,1.02,1.06,1.7.02.11-.03.22-.14.27-.1.05-.22.01-.29-.08-.11-.16-.21-.32-.31-.49-.25-.42-.49-.82-.95-1-.65-.25-1.24-.21-1.79.13.99.43,1.73,1.09,1.92,1.75.04.13-.02.26-.15.32-.12.06-.27.02-.34-.09-.33-.48-.71-.84-1.16-1.07-.87-.46-1.8-.33-2.49.36-.64.63-.72,1.38-.24,2.28.2.39.41.69.63.93l.03.04s.04.04.05.05c.09-.05.18-.08.27-.12-.07-.02-.13-.05-.19-.09-.1-.06-.16-.16-.17-.27-.01-.11.03-.22.11-.3.11-.11.28-.14.42-.07h0c.88.41,1.53,1.23,1.58,1.98.01.17-.11.31-.28.33-.18.02-.32-.1-.35-.27-.03-.18-.07-.36-.19-.52-.03-.04-.05-.07-.08-.12-.07-.12-.1-.15-.15-.15ZM11.13,15.45c.08,0,.15.02.2.05-.04-.04-.08-.09-.12-.13l-.23.08s-.02,0-.03,0c.05,0,.1-.01.15-.01.01,0,.02,0,.03,0ZM10.43,14.84s-.01,0-.02,0l-.09.19.09-.15c.06.04.14.06.23.09.04.01.09.03.13.04-.11-.07-.22-.13-.33-.18h0s0,0-.01,0Z"/><path class="cls-3" d="M18.12,19.94s0-.02,0-.03c0,.01,0,.02,0,.03Z"/><path class="cls-3" d="M18.14,19.86c.03-.05.06-.09.08-.13-.02.04-.05.08-.08.13Z"/><path class="cls-1" d="M18.12,19.9s.01-.03.02-.04c0,.01-.01.03-.02.04Z"/><path class="cls-1" d="M18.21,19.62c-.05-.05-.1-.03-.14,0,.04-.03.09-.05.14,0,.03.04.03.08.01.11.01-.03.01-.07-.01-.11Z"/><path class="cls-3" d="M18.21,19.62s-.08-.03-.12,0c.04-.02.08-.03.12,0,.03.04.03.08.01.11.01-.03.01-.07-.01-.11Z"/><path class="cls-3" d="M13.27,19.36c1.23-1.49,2.9-2.07,4.8-2.06-1.85-.02-3.85.47-4.8,2.06Z"/><path class="cls-3" d="M18.14,19.86s.01-.03.02-.04c0,.01-.01.02-.02.04Z"/><path class="cls-3" d="M18.17,19.81s.02-.03.03-.05c0,.02-.02.03-.03.05Z"/><path class="cls-3" d="M18.21,19.76s.01-.02.02-.03c0,.01,0,.02-.02.03Z"/><path class="cls-3" d="M16.3,19.25c.1-.04.21-.08.31-.11-.11.03-.21.07-.31.11Z"/><path class="cls-3" d="M15.1,20.05s0,.07.02.11c0,.02.01.03.02.04,0-.01-.01-.03-.02-.04-.02-.04-.02-.08-.02-.11Z"/><path class="cls-2" d="M19.79,17.96c-.12-.16-.35-.24-.52-.35,0,0,0,0,0,0,0,0-.65-.31-1.2-.31-1.9-.02-3.57.57-4.8,2.06-.07.13-.14.26-.21.4-.1.22-.18.46-.24.68.03.08.05.18.05.3,0,.27.18.5.39.69.36.33.8.49,1.27.54,1.89.17,3.52-.46,4.9-1.74.26-.24.45-.53.57-.86.19-.51.11-.97-.21-1.4ZM19.61,19.25c-.17.38-.44.68-.77.93-1.21.92-2.57,1.44-4.11,1.38-.62-.02-1.25-.16-1.5-.81-.25-.63.11-1.15.55-1.56,1.31-1.22,2.87-1.76,4.66-1.58.31.06.58.18.83.36.44.33.55.77.33,1.28Z"/><path class="cls-4" d="M19.28,17.97c-.24-.18-.52-.3-.83-.36-1.79-.18-3.35.36-4.66,1.58-.44.41-.8.93-.55,1.56.25.65.88.79,1.5.81,1.54.06,2.89-.47,4.11-1.38.33-.25.6-.54.77-.93.22-.51.11-.95-.33-1.28Z"/><path class="cls-2" d="M14.96,21.8c-.08,0-.15,0-.23,0-.58-.02-1.39-.14-1.7-.95-.24-.62-.04-1.21.61-1.82,1.37-1.27,3-1.83,4.84-1.64.37.07.67.21.94.41.53.39.67.94.41,1.55-.17.39-.44.72-.84,1.02-1.26.95-2.61,1.43-4.02,1.43ZM17.79,17.81c-1.44,0-2.73.52-3.84,1.55-.5.47-.66.88-.49,1.31.17.44.56.64,1.29.66,1.41.05,2.7-.39,3.96-1.34.33-.25.56-.53.7-.84.18-.41.09-.74-.26-1h0c-.21-.16-.46-.27-.74-.32-.21-.02-.42-.03-.62-.03Z"/><path class="cls-1" d="M18.2,19.76s0,0,0,0c0,0,0,0,0,0Z"/><path class="cls-1" d="M18.16,19.82s0,0,0,0c0,0,0,0,0,0Z"/><path class="cls-4" d="M15.1,20.05s.02-.06.04-.09c-.02.03-.03.05-.04.09Z"/><path class="cls-4" d="M17.98,19.3s.02-.04.03-.06c0-.01.01-.03.02-.04,0,.01-.01.03-.02.04,0,.02-.02.04-.03.06Z"/><path class="cls-4" d="M15.7,19.54c-.15.09-.29.18-.43.29-.01.01-.03.02-.04.03.01-.01.03-.02.04-.03.14-.11.28-.2.43-.29Z"/><path class="cls-4" d="M17.6,18.91c.06,0,.11-.02.17-.02.13-.02.21,0,.25.05"/><path class="cls-4" d="M15.81,20.32c.75-.12,1.5-.39,2.12-.97.02-.01.03-.03.04-.05-.01.02-.03.04-.04.05-.63.58-1.38.85-2.12.97Z"/><path class="cls-4" d="M18.05,18.99s-.01-.03-.03-.05c.01.01.02.03.03.05Z"/><path class="cls-5" d="M18.16,18.81c-.05-.05-.14-.08-.28-.06-.06,0-.13.02-.19.03-.37.06-.74.14-1.09.26-.12.04-.23.08-.35.13-.23.09-.45.2-.67.33-.16.1-.32.2-.47.32-.01.01-.03.02-.04.03-.04.03-.09.07-.12.12-.02.03-.03.06-.04.1,0,.04,0,.08.02.12,0,.02.01.03.02.05.06.11.18.15.39.18.12-.01.24-.03.35-.05.83-.14,1.65-.44,2.35-1.09.02-.02.03-.04.05-.06.01-.02.03-.04.04-.07,0-.02.01-.03.02-.05.03-.1.05-.18.03-.24,0-.02-.02-.04-.03-.05Z"/></svg>