<?xml version="1.0" encoding="UTF-8"?><svg id="Layer_1" xmlns="http://www.w3.org/2000/svg" viewBox="0 0 20.31 22.26"><defs><style>.cls-1{fill:#332b27;}.cls-1,.cls-2,.cls-3,.cls-4{stroke-width:0px;}.cls-3{fill:none;}.cls-4,.cls-5,.cls-6{fill:#f5f7f6;}.cls-5{stroke-width:.25px;}.cls-5,.cls-6{stroke:#000;stroke-miterlimit:10;}.cls-6{stroke-width:.5px;}</style></defs><path class="cls-2" d="M18.7,10.63l.32.73.38,1.42c.1.87.2,1.74-.08,2.61-.13.4-.47.77-.48,1.13-.01.37.62.41.86.75.38.53.48,1.08.25,1.69-.15.4-.38.75-.69,1.03-1.67,1.54-3.62,2.29-5.9,2.09-.56-.05-1.09-.25-1.53-.64-.25-.23-.48-.5-.47-.83,0-.57-.28-.69-.77-.81-1.44-.36-2.63-1.13-3.26-2.55-.37-.83-.31-1.67.28-2.4.15-.18.15-.28,0-.45-.32-.32-.59-.68-.82-1.08-1.1-1.91-.24-3.96,1.9-4.5.32-.08.61-.2.87-.41.71-.57,1.52-.8,2.44-.69.3.04.57-.07.83-.19.37-.17.8-.22,1.2-.13h0c.44.09.85.3,1.22.56.09.06.19.1.29.11,1.05.1,1.75.76,2.44,1.44,0,.02,0,.03.02.04l.17.18.26.37c.11.23.17.29.3.52ZM8.43,13.25c1.42.58,2.41,2.08,1.73,3.11-.13-.56-.07-1.1-.39-1.52-.12-.16-.2-.42-.47-.4-.66.04-1.59.38-1.75,1.32-.09.54,0,1.05.27,1.52.76,1.32,1.99,1.9,3.43,2.14.17.03.25-.03.35-.17,1.5-2.01,3.61-2.8,6.02-2.77.66,0,.89-.35,1.11-.83.05-.11.1-.13.14-.25.61-2.03-.39-5.11-2.07-6.39-.26-.2-.54-.39-.95-.44.27.59.55,1.1.55,1.83-.45-.57-.63-1.15-.95-1.65-.6-.93-1.85-1.29-2.67-.75.87.59,1.39,1.39,1.52,2.42-.63-.69-.85-1.73-1.81-2.1-.93-.36-1.83-.26-2.67.39,1.63.59,2.74,1.72,2.59,2.63-.43-.75-.97-1.37-1.73-1.77-1.12-.6-2.34-.43-3.25.47-.83.83-.94,1.82-.33,2.99.22.42.47.82.79,1.17.09.1.16.23.35.14.25-.11.51-.19.82-.3-.33-.22-.72-.15-.92-.52M18.08,16.84c-2.16-.22-4.04.43-5.62,1.9-.53.49-.96,1.12-.66,1.89.31.78,1.06.95,1.81.97,1.85.07,3.48-.56,4.95-1.67.39-.3.73-.66.93-1.12.27-.61.13-1.14-.4-1.54-.29-.22-.63-.36-1-.44Z"/><path class="cls-5" d="M8.59,13.32c.99.46,1.73,1.37,1.79,2.21.01.22-.31.25-.34.03-.04-.26-.11-.5-.27-.72-.12-.16-.2-.42-.47-.4-.66.04-1.59.38-1.75,1.32-.09.54,0,1.05.27,1.52.76,1.32,1.99,1.9,3.43,2.14.17.03.25-.03.35-.17,1.5-2.01,3.61-2.8,6.02-2.77.4,0,.57-.16.71-.28.1-.08.5-.68.54-.8.61-2.03-.39-5.11-2.07-6.39-.26-.2-.54-.39-.95-.44.17.38.35.72.45,1.11.05.18-.2.28-.29.12-.2-.37-.35-.73-.56-1.05-.6-.93-1.85-1.29-2.67-.75.78.53,1.28,1.23,1.47,2.12.02.08-.09.13-.14.06-.49-.67-.76-1.53-1.61-1.86-.93-.36-1.83-.26-2.67.39,1.33.48,2.32,1.33,2.55,2.12.04.13-.14.21-.22.1-.39-.56-.85-1.03-1.47-1.36-1.12-.6-2.34-.43-3.25.47-.83.83-.94,1.82-.33,2.99.22.42.47.82.79,1.17.09.1.16.23.35.14.25-.11.51-.19.82-.3-.24-.16-.51-.17-.72-.3-.13-.08-.15-.27-.04-.37h0c.07-.07.18-.09.28-.05Z"/><path class="cls-3" d="M17.74,19.64s0-.03.01-.04c0,.01,0,.03-.01.04Z"/><path class="cls-3" d="M17.78,19.54c.03-.06.07-.11.09-.16-.02.05-.06.1-.09.16Z"/><path class="cls-1" d="M17.75,19.59s.01-.04.02-.05c0,.02-.02.03-.02.05Z"/><path class="cls-1" d="M17.85,19.25c-.06-.06-.12-.03-.17,0,.05-.04.1-.06.17,0,.03.05.03.09.02.13.02-.04.02-.08-.02-.13Z"/><path class="cls-3" d="M17.85,19.25c-.05-.05-.1-.04-.15,0,.04-.03.09-.04.15,0,.03.05.03.09.02.13.02-.04.02-.08-.02-.13Z"/><path class="cls-3" d="M11.9,18.95c1.49-1.79,3.5-2.5,5.79-2.48-2.23-.02-4.64.56-5.79,2.48Z"/><path class="cls-3" d="M17.78,19.54s.02-.03.03-.04c0,.01-.02.03-.03.04Z"/><path class="cls-3" d="M17.81,19.49s.03-.04.04-.06c-.01.02-.02.04-.04.06Z"/><path class="cls-3" d="M17.85,19.42s.01-.02.02-.04c0,.01-.01.02-.02.04Z"/><path class="cls-3" d="M15.56,18.8c.12-.05.25-.1.38-.14-.13.04-.25.09-.38.14Z"/><path class="cls-3" d="M14.1,19.77s0,.08.02.13c0,.02.02.04.02.05,0-.02-.02-.03-.02-.05-.02-.05-.02-.09-.02-.13Z"/><path class="cls-2" d="M19.76,17.26c-.14-.2-.42-.29-.62-.42,0,0,0,0,0,0,0,0-.79-.37-1.45-.37-2.29-.02-4.3.69-5.79,2.48-.09.15-.17.31-.25.48-.12.26-.21.55-.29.82.04.1.06.21.05.36,0,.32.22.6.47.83.44.4.96.6,1.53.64,2.28.2,4.24-.55,5.9-2.09.31-.28.54-.64.69-1.03.23-.61.13-1.16-.25-1.69ZM19.55,18.81c-.2.46-.53.82-.93,1.12-1.46,1.1-3.09,1.73-4.95,1.67-.74-.03-1.5-.19-1.81-.97-.3-.76.13-1.39.66-1.89,1.58-1.47,3.46-2.12,5.62-1.9.37.08.7.22,1,.44.53.4.67.93.4,1.54Z"/><path class="cls-5" d="M19.15,17.27c-.29-.22-.63-.36-1-.44-2.16-.22-4.04.43-5.62,1.9-.53.49-.96,1.12-.66,1.89.31.78,1.06.95,1.81.97,1.85.07,3.48-.56,4.95-1.67.39-.3.73-.66.93-1.12.27-.61.13-1.14-.4-1.54ZM17.74,19.72s0-.06,0-.09c0-.01,0-.03.01-.04,0-.02.01-.04.02-.05,0-.02.02-.03.03-.04,0,0,0,0,0-.01.01-.02.03-.04.04-.06,0,0,0,0,0,0,0-.01.01-.02.02-.04.02-.04.02-.08-.02-.13-.05-.05-.1-.04-.15,0,0,0-.01,0-.02.01,0,0-.01.01-.02.02-.81.67-1.75,1-2.77,1.13-.38.05-.75,0-1.05-.36-.11.36.17.44.37.59-.55.04-.78-.2-.67-.67.06-.22.19-.4.35-.54,1.01-.9,2.22-1.34,3.55-1.45.4-.03.79.13.87.57.09.47-.09.86-.58,1.18Z"/><path class="cls-2" d="M17.44,17.97c-1.33.11-2.54.56-3.55,1.45-.16.14-.29.32-.35.54-.07.29-.01.49.18.6.11.06.23-.08.15-.18-.06-.08-.09-.18-.04-.34.3.36.67.41,1.05.36,1.02-.13,1.97-.47,2.77-1.13,0,0,.01-.01.02-.02,0,0,.01,0,.02-.01.04-.03.09-.04.15,0,.03.05.03.09.02.13,0,.01-.01.02-.02.04,0,0,0,0,0,0-.01.02-.02.04-.04.06,0,0,0,0,0,.01,0,.01-.02.03-.03.04,0,.02-.02.03-.02.05,0,.01,0,.03-.01.04,0,.03,0,.05,0,.09.49-.32.67-.71.58-1.18-.09-.44-.47-.6-.87-.57ZM17.63,18.75s-.01.03-.02.05c-.01.02-.02.05-.04.07-.02.02-.03.04-.05.06-.76.69-1.66,1.02-2.56,1.16-.13.02-.26.04-.38.05-.24-.03-.36-.08-.43-.19,0-.02-.02-.03-.02-.05-.02-.05-.02-.09-.02-.13s.02-.07.04-.1c.03-.05.08-.09.13-.12.02-.01.03-.02.05-.04.17-.13.34-.24.51-.34.23-.14.48-.26.72-.35.12-.05.25-.1.38-.14.38-.12.78-.21,1.18-.27.07,0,.14-.02.2-.03.15-.02.25,0,.3.07.01.02.03.04.03.06.02.07.01.15-.03.26Z"/><path class="cls-1" d="M17.85,19.43s0,0,0,0c0,0,0,0,0,0Z"/><path class="cls-1" d="M17.8,19.5s0,0,0-.01c0,0,0,0,0,.01Z"/><path class="cls-4" d="M14.1,19.77s.02-.07.04-.1c-.02.03-.04.07-.04.1Z"/><path class="cls-4" d="M17.57,18.87s.03-.05.04-.07c0-.02.01-.04.02-.05,0,.02-.01.03-.02.05-.01.02-.02.05-.04.07Z"/><path class="cls-4" d="M14.84,19.16c-.18.1-.35.22-.51.34-.02.01-.03.02-.05.04.02-.01.03-.02.05-.04.17-.13.34-.24.51-.34Z"/><path class="cls-4" d="M17.63,18.43c-.05-.06-.15-.08-.3-.07-.07,0-.14.02-.2.03.07,0,.14-.02.2-.03.15-.02.25,0,.3.07Z"/><path class="cls-4" d="M14.96,20.1c.9-.14,1.8-.47,2.56-1.16.02-.02.04-.04.05-.06-.02.02-.03.04-.05.06-.76.69-1.66,1.02-2.56,1.16Z"/><path class="cls-4" d="M17.66,18.49s-.02-.04-.03-.06c.01.02.03.04.03.06Z"/><path class="cls-6" d="M17.63,18.43c-.05-.06-.15-.08-.3-.07-.07,0-.14.02-.2.03-.41.06-.8.15-1.18.27-.13.04-.25.09-.38.14-.25.1-.49.22-.72.35-.18.1-.35.22-.51.34-.02.01-.03.02-.05.04-.05.04-.1.08-.13.12-.02.03-.04.07-.04.1,0,.04,0,.08.02.13,0,.02.02.04.02.05.07.11.19.17.43.19.13-.01.26-.03.38-.05.9-.14,1.8-.47,2.56-1.16.02-.02.04-.04.05-.06.02-.02.03-.05.04-.07,0-.02.01-.04.02-.05.04-.1.05-.19.03-.26,0-.02-.02-.04-.03-.06Z"/><path class="cls-3" d="M17.91,19.27c-.05-.05-.1-.04-.15,0,.04-.03.09-.04.15,0,.03.05.03.09.02.13.02-.04.02-.08-.02-.13Z"/><path class="cls-3" d="M14.15,19.79s0,.08.02.13c0,.02.02.04.03.05,0-.02-.02-.03-.03-.05-.02-.05-.02-.09-.02-.13Z"/><path class="cls-2" d="M19.82,17.27c-.14-.2-.42-.29-.62-.42,0,0,0,0,0,0,0,0-.79-.37-1.45-.38-2.29-.02-4.31.69-5.8,2.48-.09.15-.17.31-.25.48-.04.09-.08.19-.12.29-.1.26-.13.53-.12.81,0,.03,0,.06,0,.09,0,.33.22.6.48.83.44.4.96.6,1.53.65,2.29.2,4.25-.55,5.92-2.1.31-.29.54-.64.69-1.04.23-.61.13-1.17-.25-1.7ZM19.61,18.83c-.2.46-.53.82-.93,1.12-1.47,1.11-3.1,1.74-4.96,1.67-.75-.03-1.5-.19-1.81-.98-.3-.76.13-1.39.66-1.89,1.59-1.48,3.47-2.13,5.63-1.91.37.08.71.22,1,.44.53.4.67.93.4,1.54Z"/><path class="cls-5" d="M19.2,17.29c-.3-.22-.63-.36-1-.44-2.16-.22-4.05.43-5.63,1.91-.53.5-.83,1.36-.66,1.89.26.8,1.07.95,1.81.98,1.86.07,3.49-.56,4.96-1.67.4-.3.73-.66.93-1.12.27-.61.13-1.15-.4-1.54ZM17.85,19.69s-.06,0-.05-.03c0-.01,0-.03.01-.04,0-.02.01-.04.02-.05,0-.02.02-.03.03-.04,0,0,0,0,0-.01.01-.02.03-.04.04-.06,0,0,0,0,0,0,0-.01.01-.02.02-.04.02-.04.02-.08-.02-.13-.05-.05-.1-.04-.15,0,0,0-.01,0-.02.01,0,0-.01.01-.02.02-.81.67-1.76,1-2.78,1.14-.39.05-.62,0-.94-.24-.11.36.53.48.26.47-.55.04-.79-.2-.67-.67.06-.22.19-.4.35-.54,1.01-.9,2.22-1.35,3.56-1.46.4-.03.79.13.88.57.09.47-.03.81-.53,1.13Z"/><path class="cls-2" d="M17.52,17.99c-1.33.11-2.54.56-3.56,1.46-.16.14-.29.32-.35.54-.07.29-.01.5.18.6.11.06.23-.08.15-.18-.06-.08-.09-.18-.04-.34.3.36.67.41,1.05.36,1.03-.13,1.97-.47,2.78-1.14,0,0,.01-.01.02-.02,0,0,.01,0,.02-.01.04-.03.09-.04.15,0,.03.05.03.09.02.13,0,.01-.01.02-.02.04,0,0,0,0,0,0-.01.02-.02.04-.04.06,0,0,0,0,0,.01,0,.01-.02.03-.03.04,0,.02-.02.03-.02.05,0,.01,0,.03-.01.04,0,.03,0,.05,0,.09.49-.32.68-.72.58-1.19-.09-.44-.47-.61-.88-.57ZM17.71,18.77s-.01.03-.02.05c-.01.02-.02.05-.04.07-.02.02-.03.04-.05.06-.76.7-1.66,1.02-2.57,1.17-.13.02-.26.04-.39.05-.24-.03-.36-.08-.43-.2,0-.02-.02-.03-.03-.05-.02-.05-.02-.09-.02-.13s.02-.07.04-.1c.03-.05.08-.09.13-.12.02-.01.03-.02.05-.04.17-.13.34-.24.51-.35.23-.14.48-.26.73-.36.12-.05.25-.1.38-.14.38-.12.78-.21,1.19-.27.07,0,.14-.02.2-.03.15-.02.25,0,.3.07.01.02.03.04.03.06.02.07.01.15-.03.26Z"/><path class="cls-4" d="M14.15,19.79s.02-.07.04-.1c-.02.03-.04.07-.04.1Z"/><path class="cls-4" d="M14.88,19.18c-.18.1-.35.22-.51.35-.02.01-.03.02-.05.04.02-.01.03-.02.05-.04.17-.13.34-.24.51-.35Z"/><path class="cls-4" d="M15.01,20.12c.9-.14,1.81-.47,2.57-1.17.02-.02.04-.04.05-.06-.02.02-.03.04-.05.06-.76.7-1.66,1.02-2.57,1.17Z"/><path class="cls-4" d="M17.68,18.45c-.05-.06-.15-.08-.3-.07-.07,0-.14.02-.2.03-.41.06-.8.15-1.19.27-.13.04-.25.09-.38.14-.25.1-.49.22-.73.36-.18.1-.35.22-.51.35-.02.01-.03.02-.05.04-.05.04-.1.08-.13.12-.02.03-.04.07-.04.1,0,.04,0,.08.02.13,0,.02.02.04.03.05.07.11.19.17.43.2.13-.01.26-.03.39-.05.9-.14,1.83-.47,2.59-1.17.02-.02.04-.04.05-.06.02-.02,0-.05.01-.07,0-.02.01-.04.02-.05.04-.1.05-.19.03-.26,0-.02-.02-.04-.03-.06Z"/><path class="cls-2" d="M14.65,20.42c-.29-.03-.54-.09-.67-.32l-.04-.09c-.03-.08-.04-.17-.03-.25.01-.07.04-.15.08-.21.06-.08.12-.13.18-.18.22-.17.4-.29.59-.4.23-.14.49-.26.76-.37.13-.05.26-.1.39-.14.38-.12.79-.22,1.23-.28l.21-.03c.23-.02.41.02.52.15.04.04.06.09.08.14.04.12.03.26-.03.42v.02s0,.05,0,.05l-.05.11s-.06.08-.09.1c-.69.64-1.61,1.05-2.72,1.23-.13.02-.27.04-.4.05ZM17.47,18.63s-.03,0-.06,0l-.2.03c-.41.06-.79.15-1.15.26-.12.04-.24.08-.36.13-.25.1-.48.21-.69.34-.17.1-.33.21-.49.33-.06.05-.11.08-.12.11.03.05.12.08.26.09.07-.01.19-.03.32-.05,1-.16,1.83-.53,2.45-1.09,0-.02,0-.04.02-.06.02-.04.03-.07.03-.09ZM17.9,18.91h0s0,0,0,0ZM17.47,18.58h0s0,0,0,0Z"/><polygon class="cls-2" points="13.87 20.3 14.26 20.65 14.11 20.65 13.87 20.54 13.87 20.3"/><polygon class="cls-2" points="13.79 20.39 13.96 20.5 14.04 19.99 13.84 19.86 13.79 20.39"/><path class="cls-4" d="M14.1,20.37s.15.17.03.29-.51,0-.51,0l.78.34v-.44l-.29-.19Z"/><path class="cls-4" d="M17.81,19.44s-.1.09-.02.21.23,0,.23,0l-.31.25-.15-.24.25-.21Z"/><path class="cls-2" d="M19.82,17.27c-.14-.2-.42-.29-.62-.42,0,0,0,0,0,0,0,0-.79-.37-1.45-.38-2.29-.02-4.31.69-5.8,2.48-.09.15-.17.31-.25.48-.04.09-.08.19-.12.29-.1.26-.13.53-.12.81,0,.03,0,.06,0,.09,0,.33.22.6.48.83.44.4.96.6,1.53.65,2.29.2,4.25-.55,5.92-2.1.31-.29.54-.64.69-1.04.23-.61.13-1.17-.25-1.7ZM19.61,18.83c-.2.46-.53.82-.93,1.12-1.47,1.11-3.1,1.74-4.96,1.67-.75-.03-1.5-.19-1.81-.98-.3-.76.13-1.39.66-1.89,1.59-1.48,3.47-2.13,5.63-1.91.37.08.71.22,1,.44.53.4.67.93.4,1.54Z"/><path class="cls-2" d="M14.17,22.26c-.24,0-.48-.01-.72-.03-.63-.06-1.17-.28-1.6-.68-.22-.2-.52-.52-.52-.92,0-.03,0-.05,0-.08-.01-.3.03-.59.13-.86.04-.1.08-.2.12-.3.07-.17.16-.33.25-.49,1.4-1.69,3.35-2.54,5.81-2.54h.1c.68,0,1.47.37,1.5.39.06.04.12.07.18.1.17.09.37.19.49.36.41.57.5,1.18.27,1.81-.16.43-.4.79-.72,1.08-1.55,1.44-3.33,2.16-5.29,2.16ZM17.64,16.61c-2.38,0-4.26.82-5.61,2.44-.08.14-.16.29-.23.45-.04.09-.08.19-.12.29-.09.24-.12.49-.11.76,0,.03,0,.06,0,.09,0,.23.14.46.43.73.4.36.89.57,1.46.62,2.17.19,4.13-.5,5.82-2.06.29-.27.51-.6.66-.99.21-.56.13-1.07-.23-1.58h0c-.09-.12-.25-.2-.4-.28-.07-.03-.13-.07-.19-.1h0s-.76-.35-1.39-.36h-.1ZM13.98,21.75c-.09,0-.18,0-.27,0-.71-.03-1.58-.17-1.92-1.05-.27-.68-.04-1.35.69-2.03,1.62-1.51,3.55-2.17,5.73-1.94.41.08.76.23,1.06.46.58.44.73,1.02.44,1.7h0c-.19.44-.51.83-.97,1.17-1.5,1.13-3.1,1.7-4.77,1.7ZM17.4,16.93c-1.78,0-3.38.64-4.75,1.92-.66.61-.86,1.17-.63,1.75.29.75,1.06.87,1.7.9,1.73.06,3.33-.47,4.88-1.64.42-.32.72-.67.89-1.07h0c.25-.56.12-1.03-.36-1.39-.28-.21-.59-.34-.95-.42-.26-.03-.52-.04-.78-.04Z"/><path class="cls-4" d="M19.2,17.29c-.3-.22-.63-.36-1-.44-2.16-.22-4.05.43-5.63,1.91-.53.5-.83,1.36-.66,1.89.26.8,1.07.95,1.81.98,1.86.07,3.49-.56,4.96-1.67.4-.3.73-.66.93-1.12.27-.61.13-1.15-.4-1.54Z"/><path class="cls-2" d="M13.98,21.88c-.09,0-.18,0-.28,0-.46-.02-1.69-.06-2.04-1.15-.2-.63.13-1.59.73-2.15,1.65-1.53,3.61-2.2,5.83-1.97.44.09.8.25,1.13.49h0c.62.47.8,1.12.48,1.84-.2.46-.53.86-1.01,1.22-1.52,1.15-3.15,1.73-4.84,1.73ZM17.4,17.05c-1.74,0-3.31.63-4.66,1.88-.46.43-.73,1.19-.59,1.63.17.53.64.77,1.58.8,1.69.07,3.27-.47,4.8-1.62.41-.31.69-.64.85-1.02.22-.51.12-.92-.32-1.25-.26-.2-.56-.32-.9-.39-.25-.03-.51-.04-.75-.04Z"/><path class="cls-4" d="M18.45,18.28c.28.67-.78,1.26-2.15,1.79s-2.62.59-2.8.13.78-1.26,2.15-1.79,2.61-.59,2.8-.13Z"/><path class="cls-2" d="M14.32,20.89c-.57,0-1.01-.16-1.16-.55-.32-.81.96-1.73,2.36-2.28,1.39-.54,2.95-.73,3.28.07.1.24.1.49,0,.73-.23.54-.93,1-2.36,1.56-.73.28-1.5.47-2.12.47ZM17.64,18.35c-.4,0-1.04.1-1.85.41-1.34.52-1.93,1.16-1.93,1.33.1.08.97.16,2.31-.37,1.43-.56,1.85-.93,1.94-1.15.02-.05.02-.09,0-.14-.05-.05-.21-.08-.47-.08ZM18.11,18.42s0,0,0,0t0,0h0Z"/></svg>