<?xml version="1.0" encoding="UTF-8"?><svg id="Layer_1" xmlns="http://www.w3.org/2000/svg" viewBox="0 0 20.31 22.26"><defs><style>.cls-1{fill:#332b27;}.cls-1,.cls-2,.cls-3,.cls-4,.cls-5{stroke-width:0px;}.cls-3{fill:none;}.cls-4{fill:#fff;}.cls-5{fill:#f5f7f6;}</style></defs><path class="cls-2" d="M19.08,12.27l.28.64.33,1.23c.08.75.21,1.47,0,2.26-.12.64-.45.95-.38,1.03.22.26.5.3.64.59.33.46.41.94.22,1.46-.13.34-.33.65-.59.89-1.44,1.33-3.13,1.98-5.1,1.81-.49-.04-.94-.22-1.32-.56-.22-.2-.41-.59-.41-.88,0-.49.09-.38-.67-.54-1.25-.31-2.28-.97-2.82-2.2-.32-.72-.27-1.44.24-2.08.13-.16.13-.25,0-.39-.28-.28-.51-.59-.71-.93-.95-1.65-.21-3.43,1.64-3.89.28-.07.52-.18.75-.36.62-.49,1.32-.69,2.11-.59.26.03.49-.06.72-.16.32-.15.69-.19,1.04-.11h0c.38.08.74.26,1.06.48.08.05.16.09.25.1.91.08,1.51.66,2.11,1.25,0,.01,0,.02.02.03l.15.15.23.32c.09.19.14.25.26.45ZM10.2,14.54c1.23.5,2.08,1.8,1.49,2.69-.12-.49-.06-.95-.34-1.32-.11-.14-.17-.36-.4-.35-.57.03-1.37.33-1.51,1.15-.08.47,0,.91.24,1.31.66,1.14,1.72,1.64,2.96,1.85.14.02.22-.03.3-.15,1.3-1.74,3.12-2.42,5.21-2.4.57,0,.78-.21.97-.62.05-.1.07-.21.11-.31.53-1.76-.33-4.42-1.79-5.53-.23-.17-.46-.33-.82-.38.23.51.48.95.48,1.58-.39-.5-.54-1-.82-1.43-.52-.81-1.6-1.12-2.31-.65.75.51,1.2,1.2,1.31,2.1-.54-.6-.73-1.5-1.56-1.82-.81-.31-1.58-.23-2.31.34,1.41.51,2.37,1.49,2.24,2.27-.37-.65-.84-1.18-1.49-1.53-.97-.52-2.02-.37-2.81.41-.72.71-.82,1.57-.28,2.59.19.36.41.71.68,1.01.08.09.14.2.31.12.21-.1.44-.16.71-.26-.28-.19-.63-.13-.79-.45M18.54,17.65c-1.87-.19-3.49.37-4.86,1.65-.46.43-.83.97-.57,1.63.26.68.92.82,1.56.84,1.6.06,3.01-.49,4.28-1.44.34-.26.63-.57.8-.97.23-.53.11-.99-.35-1.33-.25-.19-.54-.31-.86-.38Z"/><path class="cls-5" d="M10.33,14.6c.86.4,1.5,1.18,1.54,1.91.01.19-.27.21-.3.03-.04-.22-.09-.43-.23-.62-.11-.14-.17-.36-.4-.35-.57.03-1.37.33-1.51,1.15-.08.47,0,.91.24,1.31.65,1.12,1.78,1.68,3,1.89.22.04.43-.06.57-.24,1.29-1.61,3.07-2.18,5.09-2.16.34,0,.34-.12.43-.25.07-.09.42-.77.46-.87.53-1.76-.33-4.42-1.79-5.53-.23-.17-.46-.33-.82-.38.15.33.3.62.39.96.04.16-.18.24-.25.1-.17-.32-.3-.63-.48-.91-.52-.81-1.6-1.12-2.31-.65.68.46,1.11,1.07,1.27,1.84.02.07-.08.11-.12.05-.42-.58-.66-1.33-1.4-1.61-.8-.31-1.57-.23-2.28.32-.01,0,0,.03,0,.03,1.14.42,1.98,1.15,2.18,1.82.03.11-.12.19-.19.09-.27-.4-.6-.75-1-1.02-1.09-.73-2.66-.47-3.39.62-.43.64-.42,1.37.03,2.21.19.36.41.71.68,1.01.08.09.14.2.31.12.21-.1.44-.16.71-.26-.21-.14-.44-.14-.62-.26-.11-.07-.13-.23-.04-.32h0c.06-.06.16-.08.24-.04Z"/><path class="cls-2" d="M12.77,20.03s-.07,0-.11,0c-1.42-.24-2.49-.92-3.08-1.94-.25-.43-.33-.89-.25-1.39.14-.85.96-1.2,1.61-1.24.25,0,.35.16.43.3.02.03.04.07.06.1.16.21.22.46.25.67,0,.03.03.04.05.04.04,0,.03-.03.03-.04-.04-.68-.65-1.43-1.48-1.81h0s-.09-.01-.12.02c-.03.03-.03.06-.03.08,0,.03.02.06.05.07.07.05.16.07.25.1.12.04.25.08.37.16l.18.12-.2.07c-.09.03-.17.06-.24.08-.17.06-.32.11-.46.17-.22.1-.33-.03-.4-.12l-.03-.03c-.25-.28-.48-.61-.7-1.03-.46-.88-.47-1.66-.02-2.33.75-1.13,2.37-1.42,3.54-.65.39.26.73.6,1.03,1.05-.19-.65-1.04-1.35-2.11-1.75l-.06-.02-.02-.08s.01-.09.05-.12c.72-.55,1.52-.67,2.38-.34.58.22.86.7,1.14,1.16.06.1.12.2.18.3-.18-.63-.58-1.15-1.17-1.55l-.14-.09.14-.09c.34-.22.76-.29,1.2-.19.52.11.98.43,1.27.88.12.18.21.36.31.56.06.12.12.23.18.35,0,0,.01.02.04.01.02,0,.02-.02.02-.03-.07-.27-.19-.51-.31-.77l-.16-.35.19.02c.38.05.63.21.87.4,1.5,1.14,2.38,3.83,1.83,5.65-.04.12-.4.81-.47.91-.01.02-.03.04-.04.06-.08.13-.16.23-.48.24-.03,0-.06,0-.1,0-2.17,0-3.77.69-4.91,2.12-.15.18-.36.29-.57.29ZM10.97,15.68s0,0-.01,0c-.58.03-1.29.33-1.41,1.05-.07.44,0,.86.22,1.24.57.98,1.55,1.6,2.93,1.84.17.03.35-.05.47-.2,1.18-1.48,2.84-2.2,5.08-2.2.03,0,.07,0,.1,0,.22,0,.24-.05.29-.13.01-.03.03-.05.05-.08.07-.09.41-.76.44-.84.51-1.71-.34-4.34-1.76-5.41-.18-.13-.34-.25-.56-.32.12.26.23.51.31.78.03.12-.03.24-.15.29-.12.05-.25,0-.31-.11-.07-.12-.13-.24-.19-.36-.09-.19-.18-.37-.29-.54-.26-.4-.67-.68-1.13-.78-.32-.07-.63-.04-.89.08.62.47,1.02,1.07,1.17,1.8.02.08-.02.16-.1.2-.08.04-.17.01-.22-.06-.12-.16-.22-.34-.32-.5-.27-.45-.52-.88-1.03-1.07-.73-.28-1.42-.21-2.04.21,1.07.43,1.88,1.14,2.08,1.83.03.1-.02.21-.11.25-.1.05-.21.02-.27-.07-.29-.42-.6-.74-.97-.99-1.07-.71-2.55-.44-3.24.59-.41.61-.4,1.29.03,2.1.21.41.43.72.67.99l.03.04c.07.08.08.09.14.06.15-.07.3-.12.47-.18-.03,0-.05-.02-.08-.02-.1-.03-.21-.07-.31-.13-.08-.05-.13-.14-.14-.23s.02-.19.09-.26c.09-.09.24-.12.36-.06h0c.9.42,1.56,1.24,1.61,2,0,.14-.09.25-.23.27-.12.01-.26-.06-.29-.22-.03-.19-.08-.39-.21-.57-.03-.03-.05-.07-.07-.11-.08-.13-.13-.19-.22-.19ZM11.47,10.52s0,0,0,0c0,0,0,0,0,0Z"/><path class="cls-3" d="M18.25,20.07s0-.02,0-.04c0,.01,0,.02,0,.04Z"/><path class="cls-3" d="M18.28,19.98c.03-.05.06-.1.08-.14-.02.04-.05.08-.08.14Z"/><path class="cls-1" d="M18.26,20.03s.01-.03.02-.05c0,.01-.01.03-.02.05Z"/><path class="cls-1" d="M18.35,19.73c-.05-.05-.1-.03-.14,0,.04-.03.09-.05.14,0,.03.04.03.08.01.11.01-.03.01-.07-.01-.11Z"/><path class="cls-3" d="M18.35,19.73s-.09-.03-.13,0c.04-.02.08-.03.13,0,.03.04.03.08.01.11.01-.03.01-.07-.01-.11Z"/><path class="cls-3" d="M13.2,19.47c1.28-1.55,3.02-2.16,5-2.14-1.93-.02-4.01.49-5,2.14Z"/><path class="cls-3" d="M18.28,19.98s.01-.03.02-.04c0,.01-.02.03-.02.04Z"/><path class="cls-3" d="M18.3,19.94s.02-.03.03-.05c-.01.02-.02.03-.03.05Z"/><path class="cls-3" d="M18.34,19.88s.01-.02.02-.03c0,.01,0,.02-.02.03Z"/><path class="cls-3" d="M16.36,19.34c.11-.04.22-.08.33-.12-.11.04-.22.08-.33.12Z"/><path class="cls-3" d="M15.1,20.18s0,.07.02.11c0,.02.01.03.02.05,0-.01-.02-.03-.02-.05-.02-.04-.02-.08-.02-.11Z"/><path class="cls-2" d="M13,19.96c-.1.23-.2.4-.27.62.03.08.05.19.05.31,0,.28.19.52.41.72.38.34.83.51,1.32.56,1.97.17,3.66-.48,5.1-1.81.27-.25.46-.55.59-.89.2-.53.11-1.01-.22-1.46-.12-.17-.36-.25-.54-.36,0,0,0,0,0,0M19.81,19.35c-.17.4-.46.71-.8.97-1.26.95-2.68,1.5-4.28,1.44-.64-.02-1.3-.17-1.56-.84-.26-.66.11-1.2.57-1.63,1.37-1.27,2.99-1.83,4.86-1.65.32.06.61.19.86.38.46.34.58.8.35,1.33Z"/><path class="cls-5" d="M19.46,18.02c-.25-.19-.54-.31-.86-.38-1.87-.19-3.49.37-4.86,1.65-.46.43-.83.97-.57,1.63.26.68.92.82,1.56.84,1.6.06,3.01-.49,4.28-1.44.34-.26.63-.57.8-.97.23-.53.11-.99-.35-1.33ZM18.24,20.14s0-.05,0-.07c0-.01,0-.02,0-.04,0-.02.01-.03.02-.05,0-.01.01-.03.02-.04,0,0,0,0,0,0,.01-.02.02-.03.03-.05,0,0,0,0,0,0,0-.01.01-.02.02-.03.01-.03.01-.07-.01-.11-.05-.04-.09-.03-.13,0,0,0-.01,0-.02.01,0,0-.01,0-.02.01-.7.58-1.51.86-2.4.98-.33.04-.65,0-.91-.31-.1.31.15.38.32.51-.48.04-.68-.18-.58-.58.05-.19.16-.34.3-.47.88-.78,1.92-1.16,3.07-1.26.35-.03.68.11.76.49.08.41-.08.74-.5,1.02Z"/><path class="cls-2" d="M14.96,21.87c-.08,0-.15,0-.23,0-.62-.02-1.36-.15-1.66-.91-.23-.59-.03-1.16.6-1.75,1.4-1.3,3.06-1.86,4.94-1.67.36.07.65.2.92.4h0c.5.38.63.88.38,1.46-.17.38-.44.71-.84,1.01-1.29.97-2.67,1.47-4.11,1.47ZM17.91,17.71c-1.54,0-2.91.55-4.09,1.65-.57.53-.74,1.01-.54,1.51.25.64.88.75,1.46.77,1.5.05,2.87-.41,4.21-1.42.37-.28.62-.58.77-.92.21-.48.11-.89-.31-1.2h0c-.24-.18-.51-.3-.82-.36-.23-.02-.45-.03-.67-.03ZM15.09,21.04c-.23,0-.4-.06-.5-.18-.07-.09-.15-.25-.08-.53.05-.19.16-.37.33-.52.84-.75,1.9-1.18,3.13-1.28.47-.03.79.19.87.58.09.45-.09.84-.55,1.13l-.16.1v-.19s-.01-.07,0-.1c0-.02,0-.03.01-.05,0-.02.02-.04.03-.06,0-.01.02-.03.03-.05l.02-.03c-.66.53-1.45.85-2.43.98-.18.02-.41.03-.65-.07,0,0,0,0,0,0,.04.02.07.05.11.07l.24.17-.29.02s-.08,0-.11,0ZM18.07,18.73s-.05,0-.07,0c-1.19.1-2.2.51-3,1.23-.14.12-.23.26-.27.41s-.03.27.03.34c.01.02.03.03.05.04-.06-.09-.09-.21-.04-.37l.06-.19.13.15c.2.24.45.32.81.28.95-.12,1.72-.44,2.34-.96l.02-.02c.11-.07.2-.07.28,0l.02.02s.04.08.04.12c.16-.19.21-.41.16-.66-.07-.36-.4-.41-.57-.41Z"/><path class="cls-2" d="M17.99,18.62c-1.15.1-2.19.48-3.07,1.26-.14.12-.25.28-.3.47-.06.25,0,.43.16.52.1.05.2-.07.13-.16-.05-.07-.08-.16-.03-.29.26.31.58.36.91.31.88-.12,1.7-.4,2.4-.98,0,0,.01,0,.02-.01,0,0,.01,0,.02-.01.04-.02.08-.03.13,0,.03.04.03.08.01.11,0,.01,0,.02-.02.03,0,0,0,0,0,0-.01.02-.02.03-.03.05,0,0,0,0,0,0,0,.01-.02.03-.02.04,0,.01-.01.03-.02.05,0,.01,0,.02,0,.04,0,.02,0,.05,0,.07.42-.28.58-.62.5-1.02-.08-.38-.41-.52-.76-.49ZM18.15,19.3s-.01.03-.02.05c0,.02-.02.04-.03.06-.01.02-.03.04-.05.05-.65.6-1.44.88-2.21,1.01-.11.02-.22.03-.33.04-.2-.03-.31-.07-.37-.17,0-.01-.02-.03-.02-.05-.02-.04-.02-.08-.02-.11s.02-.06.04-.09c.03-.04.07-.07.11-.11.01-.01.03-.02.04-.03.14-.11.29-.21.44-.3.2-.12.41-.22.63-.31.11-.04.22-.08.33-.12.33-.11.67-.18,1.02-.23.06,0,.12-.02.18-.02.13-.02.22,0,.26.06.01.01.02.03.03.05.02.06,0,.13-.02.22Z"/><path class="cls-1" d="M18.34,19.88s0,0,0,0c0,0,0,0,0,0Z"/><path class="cls-1" d="M18.3,19.95s0,0,0,0c0,0,0,0,0,0Z"/><path class="cls-5" d="M15.1,20.18s.02-.06.04-.09c-.02.03-.03.06-.04.09Z"/><path class="cls-5" d="M18.1,19.4s.02-.04.03-.06c0-.02.01-.03.02-.05,0,.01-.01.03-.02.05,0,.02-.02.04-.03.06Z"/><path class="cls-5" d="M15.74,19.65c-.15.09-.3.19-.44.3-.01.01-.03.02-.04.03.01-.01.03-.02.04-.03.14-.11.29-.21.44-.3Z"/><path class="cls-5" d="M18.15,19.02c-.04-.05-.13-.07-.26-.06-.06,0-.12.02-.18.02.06,0,.12-.02.18-.02.13-.02.22,0,.26.06Z"/><path class="cls-5" d="M15.84,20.46c.78-.12,1.56-.41,2.21-1.01.02-.02.03-.03.05-.05-.01.02-.03.04-.05.05-.65.6-1.44.88-2.21,1.01Z"/><path class="cls-5" d="M18.18,19.08s-.02-.04-.03-.05c.01.01.02.03.03.05Z"/><path class="cls-5" d="M18.15,19.02c-.04-.05-.13-.07-.26-.06-.06,0-.12.02-.18.02-.35.05-.69.13-1.02.23-.11.04-.22.08-.33.12-.21.09-.42.19-.63.31-.15.09-.3.19-.44.3-.01.01-.03.02-.04.03-.04.03-.08.07-.11.11-.02.03-.03.06-.04.09,0,.03,0,.07.02.11,0,.02.01.03.02.05.06.1.17.14.37.17.11-.01.22-.03.33-.04.78-.12,1.56-.41,2.21-1.01.02-.02.03-.03.05-.05.01-.02.02-.04.03-.06,0-.02.01-.03.02-.05.03-.09.04-.16.02-.22,0-.02-.02-.04-.03-.05Z"/><path class="cls-2" d="M15.53,20.72c-.25-.03-.47-.08-.58-.27l-.04-.08c-.03-.07-.04-.15-.03-.22,0-.07.03-.13.07-.19.04-.06.1-.11.16-.15l.04-.03c.15-.11.3-.22.46-.31.21-.12.43-.23.66-.32.11-.04.22-.09.34-.12.33-.11.68-.19,1.06-.24l.18-.02c.2-.03.35.02.45.13.03.03.05.08.07.12.03.11.03.23-.03.37l-.02.06s-.03.07-.06.1c-.02.03-.05.06-.08.09-.61.56-1.37.91-2.32,1.06-.11.02-.23.03-.34.05ZM17.96,19.18s-.03,0-.05,0l-.17.02c-.35.05-.68.13-.99.23-.11.03-.21.07-.31.11-.21.08-.41.18-.6.29-.14.09-.29.18-.42.28-.06.04-.09.07-.11.09.02.03.05.06.22.08.06-.01.16-.03.27-.04.87-.14,1.55-.45,2.1-.95l.23.05-.19-.12s.01-.03.01-.04ZM17.97,19.14h0s0,0,0,0Z"/><path class="cls-3" d="M15.14,20.2s0,.07.02.12c0,.02.01.03.02.05,0-.01-.02-.03-.02-.05-.02-.04-.02-.08-.02-.12Z"/><path class="cls-5" d="M15.14,20.2s.02-.06.04-.09c-.02.03-.03.06-.04.09Z"/><polygon class="cls-2" points="14.9 20.64 15.23 20.95 15.1 20.95 14.9 20.85 14.9 20.64"/><polygon class="cls-2" points="14.83 20.72 14.97 20.82 15.05 20.38 14.88 20.26 14.83 20.72"/><path class="cls-5" d="M15.1,20.7s.13.15.02.25-.44,0-.44,0l.67.3v-.38l-.26-.16Z"/><path class="cls-3" d="M18.39,19.86s-.09-.03-.13,0c.04-.02.08-.03.13,0,.03.04.03.08.01.11.01-.03.01-.07-.01-.11Z"/><path class="cls-3" d="M18.32,20.11s.01-.03.02-.04c0,.01-.02.03-.02.04Z"/><path class="cls-3" d="M18.35,20.06s.02-.03.03-.05c-.01.02-.02.03-.03.05Z"/><path class="cls-3" d="M18.39,20s.01-.02.02-.03c0,.01,0,.02-.02.03Z"/><path class="cls-3" d="M15.14,20.3s0,.07.02.12c0,.02.01.03.02.05,0-.01-.02-.03-.02-.05-.02-.04-.02-.08-.02-.12Z"/><path class="cls-2" d="M19.86,18.12c-.12-.16-.35-.24-.52-.35,0,0,0,0,0,0,0,0-.65-.31-1.2-.31-1.9-.02-3.58.57-4.81,2.06-.07.13-.14.26-.21.4-.03.08-.07.16-.1.24-.08.21-.11.44-.1.67,0,.02,0,.05,0,.07,0,.27.18.5.39.69.36.33.8.49,1.27.54,1.9.17,3.52-.46,4.91-1.74.26-.24.45-.53.57-.86.19-.51.11-.97-.21-1.41ZM19.94,19.54c-.17.4-.46.71-.8.97-1.27.96-2.68,1.5-4.29,1.44-.64-.02-1.3-.17-1.57-.84-.26-.66.11-1.21.57-1.63,1.37-1.28,3-1.84,4.87-1.65.32.07.61.19.87.38.46.34.58.8.35,1.34Z"/><path class="cls-2" d="M15.18,22.26c-.2,0-.4,0-.6-.03-.52-.05-.97-.24-1.33-.56-.19-.17-.43-.43-.43-.77,0-.02,0-.04,0-.06-.01-.25.02-.49.11-.71.03-.09.07-.17.1-.25.06-.13.11-.23.21-.41,1.17-1.41,2.85-2.05,4.88-2.05h.08c.57,0,1.16.25,1.19.26.05.03.1.06.15.08.14.07.3.16.4.3.34.48.42.98.22,1.51-.13.36-.34.66-.6.9-1.29,1.19-2.76,1.79-4.39,1.79ZM18.03,17.89c-1.54,0-2.92.56-4.11,1.66-.57.53-.74,1.01-.55,1.51.2.51.64.74,1.47.78,1.5.05,2.88-.41,4.22-1.42.37-.28.62-.58.77-.93h0c.21-.49.11-.89-.31-1.2-.24-.18-.51-.3-.82-.36-.23-.02-.45-.03-.67-.03ZM17.23,21.68c-.17.06-.34.12-.52.16.18-.05.35-.1.52-.16ZM18.06,17.57c-1.97,0-3.53.68-4.64,2.02-.07.12-.13.24-.19.37-.03.08-.07.16-.1.24-.07.19-.1.4-.09.62,0,.02,0,.05,0,.08,0,.18.11.37.34.59-.08-.1-.14-.21-.2-.35-.23-.59-.04-1.16.6-1.75,1.4-1.3,3.07-1.87,4.96-1.68.36.07.66.2.92.4.06.04.11.09.15.13-.01-.02-.03-.04-.04-.06h0c-.07-.1-.2-.16-.33-.23-.06-.03-.11-.06-.16-.09h0s-.63-.29-1.15-.3h-.08Z"/><path class="cls-5" d="M19.51,18.14c-.26-.19-.54-.31-.87-.38-1.87-.19-3.5.37-4.87,1.65-.46.43-.72,1.18-.57,1.63.22.69.92.82,1.57.84,1.61.06,3.02-.49,4.29-1.44.34-.26.63-.57.8-.97.23-.53.11-.99-.35-1.34Z"/><path class="cls-2" d="M15,22.11c-.08,0-.16,0-.24,0-.4-.01-1.47-.05-1.77-.99-.17-.54.11-1.38.63-1.86,1.43-1.33,3.12-1.9,5.04-1.71.38.08.69.21.97.42h0c.54.4.69.97.42,1.6-.17.4-.46.75-.87,1.06-1.31.99-2.72,1.49-4.19,1.49ZM17.95,17.94c-1.51,0-2.86.55-4.03,1.63-.4.37-.64,1.03-.51,1.41.14.46.55.66,1.37.69,1.47.04,2.83-.4,4.15-1.4.35-.26.59-.55.74-.88.19-.44.1-.79-.28-1.07-.23-.17-.48-.28-.78-.34-.22-.02-.44-.03-.65-.03Z"/><path class="cls-1" d="M18.38,20.01s0,0,0,0c0,0,0,0,0,0Z"/><path class="cls-1" d="M18.34,20.07s0,0,0,0c0,0,0,0,0,0Z"/><path class="cls-5" d="M15.14,20.3s.02-.06.04-.09c-.02.03-.03.06-.04.09Z"/><path class="cls-5" d="M15.77,19.78c-.15.09-.3.19-.45.3-.01.01-.03.02-.04.03.01-.01.03-.02.04-.03.14-.11.29-.21.45-.3Z"/><path class="cls-5" d="M15.88,20.59c.78-.12,1.56-.41,2.22-1.01.02-.02.03-.03.05-.05-.01.02-.03.04-.05.05-.66.6-1.44.88-2.22,1.01Z"/><path class="cls-5" d="M18.2,19.15c-.04-.05-.13-.07-.26-.06-.06,0-.12.02-.18.02-.35.05-.7.13-1.03.24-.11.04-.22.08-.33.12-.22.09-.43.19-.63.31-.15.09-.3.19-.45.3-.01.01-.03.02-.04.03-.04.03-.08.07-.11.11-.02.03-.03.06-.04.09,0,.03,0,.07.02.12,0,.02.01.03.02.05.06.1.17.14.37.17.11-.01.22-.03.33-.04.78-.12,1.59-.41,2.24-1.01.02-.02.03-.03.05-.05.01-.02,0-.04.01-.06,0-.02.01-.03.02-.05.03-.09.04-.17.02-.22,0-.02-.02-.04-.03-.05Z"/><path class="cls-2" d="M15.57,20.85c-.26-.03-.47-.08-.58-.28l-.04-.07c-.03-.08-.04-.15-.03-.23,0-.07.03-.13.07-.19.05-.06.1-.11.16-.15.19-.15.35-.25.51-.35.21-.12.43-.23.66-.32.11-.05.23-.09.34-.12.33-.11.69-.19,1.06-.24l.18-.02c.2-.02.36.02.45.13.03.04.06.08.07.13.03.1.02.22-.03.36v.02s0,.04,0,.04l-.04.09s-.05.07-.08.09c-.6.55-1.39.91-2.35,1.06-.12.02-.23.03-.34.05ZM18.01,19.3s-.03,0-.05,0l-.17.02c-.35.05-.68.13-.99.23-.1.03-.21.07-.31.11-.21.08-.41.18-.6.29-.14.09-.29.18-.42.28-.06.04-.09.07-.11.09.02.03.06.06.22.08.06-.01.16-.03.27-.04.87-.14,1.58-.45,2.12-.94,0-.02,0-.03.02-.05.01-.03.02-.06.03-.08ZM18.38,19.55h0s0,0,0,0ZM18.01,19.26h0s0,0,0,0Z"/><polygon class="cls-2" points="14.9 20.75 15.23 21.05 15.1 21.05 14.9 20.96 14.9 20.75"/><polygon class="cls-2" points="14.83 20.83 14.97 20.92 15.05 20.48 14.88 20.37 14.83 20.83"/><path class="cls-5" d="M15.1,20.81s.13.15.02.25-.44,0-.44,0l.67.3v-.38l-.26-.16Z"/><ellipse class="cls-5" cx="16.72" cy="19.83" rx="2.3" ry=".77" transform="translate(-6.05 7.41) rotate(-21.26)"/><path class="cls-2" d="M15.28,21.26c-.67,0-.92-.25-1.01-.48-.09-.24-.08-.62.52-1.12.38-.31.92-.62,1.52-.85,1.22-.47,2.57-.63,2.84.07h0c.27.71-.83,1.5-2.05,1.97-.6.23-1.21.38-1.7.4-.05,0-.09,0-.14,0ZM18.17,19.06c-.35,0-.9.08-1.61.36-1.16.45-1.66,1-1.67,1.15.09.07.84.13,1.99-.32,1.11-.43,1.62-.95,1.67-1.12-.05-.03-.18-.06-.38-.06Z"/><path class="cls-4" d="M15.28,21.3c-.7,0-.96-.27-1.05-.5-.1-.25-.08-.65.54-1.17.38-.32.93-.62,1.53-.86,1.24-.48,2.61-.64,2.9.1.29.73-.83,1.55-2.07,2.03-.61.24-1.22.38-1.71.4-.05,0-.1,0-.14,0ZM18.16,18.44c-.53,0-1.19.16-1.82.41-.6.23-1.14.53-1.51.85-.58.48-.6.85-.51,1.07.08.2.31.45.97.45.04,0,.09,0,.14,0,.49-.02,1.08-.16,1.68-.4,1.2-.47,2.28-1.24,2.02-1.92-.12-.32-.49-.45-.97-.45ZM15.23,20.65c-.2,0-.32-.03-.37-.06h-.02s0-.04,0-.04c0-.19.58-.75,1.7-1.18.81-.31,1.36-.36,1.62-.36.19,0,.34.02.41.07l.03.02v.03c-.06.17-.55.71-1.7,1.15-.73.28-1.31.37-1.67.37ZM14.94,20.54c.15.05.84.09,1.93-.34,1.05-.41,1.53-.89,1.63-1.06-.06-.02-.16-.04-.33-.04-.25,0-.8.05-1.59.36-1.12.43-1.58.94-1.64,1.08Z"/></svg>