<?xml version="1.0" encoding="UTF-8"?>
<svg id="Layer_1" data-name="Layer 1" xmlns="http://www.w3.org/2000/svg" viewBox="0 0 50 55">
  <defs>
    <style>
      .cls-1 {
        fill: #332b27;
      }

      .cls-1, .cls-2, .cls-3, .cls-4 {
        stroke-width: 0px;
      }

      .cls-3 {
        fill: none;
      }

      .cls-4 {
        fill: #f5f7f6;
      }
    </style>
  </defs>
  <path class="cls-2" d="M45.59,19.49l.99,2.27,1.16,4.38c.3,2.7.61,5.39-.24,8.06-.39,1.24-1.46,2.37-1.5,3.49-.03,1.14,1.91,1.28,2.65,2.31,1.18,1.63,1.48,3.35.77,5.23-.46,1.22-1.17,2.32-2.12,3.2-5.15,4.76-11.2,7.08-18.24,6.46-1.75-.15-3.37-.77-4.72-1.99-.78-.71-1.48-1.55-1.47-2.56.02-1.76-.86-2.13-2.39-2.51-4.46-1.12-8.14-3.48-10.08-7.87-1.14-2.58-.97-5.15.86-7.43.45-.56.47-.88-.03-1.38-.99-.99-1.84-2.11-2.54-3.33-3.4-5.91-.74-12.25,5.88-13.92,1-.25,1.87-.63,2.68-1.27,2.2-1.76,4.71-2.47,7.54-2.12.94.11,1.76-.21,2.57-.58,1.16-.53,2.46-.67,3.71-.4h0c1.37.29,2.63.92,3.78,1.72.28.19.58.32.88.35,3.26.3,5.4,2.35,7.53,4.46,0,.05.03.09.06.12l.53.55.81,1.15c.18.61.46,1.16.92,1.61ZM13.84,27.6c4.4,1.8,7.45,6.44,5.34,9.63-.41-1.75-.23-3.4-1.22-4.71-.38-.51-.61-1.3-1.44-1.25-2.03.12-4.91,1.19-5.39,4.09-.28,1.67,0,3.25.84,4.7,2.36,4.08,6.14,5.88,10.6,6.61.52.08.77-.11,1.08-.52,4.65-6.21,11.16-8.64,18.61-8.57,2.05.02,2.79-.74,3.47-2.22.16-.35.27-.74.38-1.11,1.89-6.28-1.19-15.8-6.41-19.76-.81-.61-1.66-1.2-2.93-1.35.83,1.82,1.71,3.4,1.7,5.64-1.38-1.77-1.93-3.56-2.92-5.1-1.86-2.89-5.71-3.99-8.26-2.33,2.68,1.82,4.28,4.29,4.69,7.49-1.94-2.13-2.61-5.35-5.59-6.5-2.88-1.11-5.66-.81-8.25,1.22,5.02,1.82,8.47,5.32,7.99,8.13-1.33-2.31-2.99-4.22-5.34-5.47-3.47-1.84-7.24-1.32-10.04,1.46-2.58,2.56-2.92,5.63-1.02,9.25.68,1.29,1.45,2.52,2.44,3.61.29.32.5.71,1.09.44.76-.35,1.57-.58,2.54-.93-1.01-.67-2.24-.47-2.83-1.59M43.68,38.7c-6.67-.67-12.47,1.33-17.37,5.88-1.64,1.53-2.96,3.47-2.04,5.83.95,2.42,3.29,2.92,5.58,3.01,5.72.21,10.77-1.74,15.29-5.15,1.22-.92,2.24-2.03,2.86-3.46.82-1.89.41-3.53-1.24-4.76-.91-.68-1.94-1.12-3.09-1.35Z"/>
  <path class="cls-4" d="M14.33,27.81c3.06,1.43,5.36,4.22,5.52,6.82.04.67-.96.76-1.07.1-.13-.8-.33-1.55-.83-2.21-.38-.51-.61-1.3-1.44-1.25-2.03.12-4.91,1.19-5.39,4.09-.28,1.67,0,3.25.84,4.7,2.36,4.08,6.14,5.88,10.6,6.61.52.08.77-.11,1.08-.52,4.65-6.21,11.16-8.64,18.61-8.57,2.05.02,2.79-.74,3.47-2.22.16-.35.27-.74.38-1.11,1.89-6.28-1.19-15.8-6.41-19.76-.81-.61-1.66-1.2-2.93-1.35.53,1.16,1.08,2.23,1.41,3.43.15.55-.63.87-.9.36-.62-1.14-1.08-2.25-1.72-3.25-1.86-2.89-5.71-3.99-8.26-2.33,2.42,1.64,3.96,3.81,4.54,6.56.05.26-.29.4-.44.19-1.52-2.08-2.34-4.74-4.99-5.76-2.88-1.11-5.66-.81-8.25,1.22,4.12,1.49,7.17,4.11,7.88,6.56.12.41-.44.66-.68.31-1.19-1.74-2.64-3.19-4.55-4.21-3.47-1.84-7.24-1.32-10.04,1.46-2.58,2.56-2.92,5.63-1.02,9.25.68,1.29,1.45,2.52,2.44,3.61.29.32.5.71,1.09.44.76-.35,1.57-.58,2.54-.93-.74-.49-1.58-.52-2.22-.92-.4-.26-.46-.82-.13-1.16h0c.22-.22.57-.28.85-.15Z"/>
  <path class="cls-3" d="M42.63,47.35s.02-.09.03-.13c-.01.04-.02.08-.03.13Z"/>
  <path class="cls-3" d="M42.73,47.05c.1-.2.23-.34.29-.49-.06.15-.19.3-.29.49Z"/>
  <path class="cls-1" d="M42.66,47.22c.02-.06.04-.11.07-.16-.03.05-.05.1-.07.16Z"/>
  <path class="cls-1" d="M42.97,46.15c-.19-.18-.36-.1-.51.01.15-.12.32-.19.51-.01.1.16.1.28.05.4.05-.12.05-.25-.05-.41Z"/>
  <g>
    <path class="cls-3" d="M42.97,46.15c-.17-.15-.31-.12-.45-.03.14-.09.29-.12.45.03.1.16.1.28.05.4.05-.12.05-.25-.05-.41Z"/>
    <path class="cls-3" d="M24.57,45.21c4.59-5.53,10.81-7.72,17.89-7.66-6.91-.06-14.35,1.74-17.89,7.66Z"/>
    <path class="cls-3" d="M42.73,47.05s.05-.09.08-.14c-.03.04-.05.09-.08.14Z"/>
    <path class="cls-3" d="M42.83,46.88c.04-.06.08-.12.12-.18-.04.06-.08.12-.12.18Z"/>
    <path class="cls-3" d="M42.96,46.67s.04-.08.06-.11c-.02.04-.04.08-.06.11Z"/>
    <path class="cls-3" d="M35.88,44.77c.38-.15.77-.3,1.17-.42-.39.13-.78.27-1.17.42Z"/>
    <path class="cls-3" d="M31.38,47.75c-.02.12,0,.26.06.41.02.06.05.11.08.16-.03-.05-.05-.1-.08-.16-.06-.15-.07-.29-.06-.41Z"/>
    <path class="cls-2" d="M48.85,40c-.44-.61-1.3-.91-1.92-1.29,0,0,0,0,0,0,0,0-2.43-1.14-4.47-1.16-7.07-.07-13.29,2.13-17.89,7.66-.28.47-.54.95-.76,1.47-.36.81-.66,1.71-.9,2.53.12.3.17.66.17,1.13-.01,1,.69,1.85,1.47,2.56,1.35,1.22,2.97,1.84,4.72,1.99,7.05.62,13.09-1.7,18.24-6.46.95-.88,1.66-1.97,2.12-3.2.71-1.88.41-3.6-.77-5.23ZM48.21,44.8c-.62,1.43-1.64,2.54-2.86,3.46-4.52,3.41-9.57,5.36-15.29,5.15-2.3-.08-4.64-.59-5.58-3.01-.92-2.36.4-4.3,2.04-5.83,4.9-4.55,10.7-6.55,17.37-5.88,1.15.23,2.18.67,3.09,1.35,1.64,1.23,2.06,2.87,1.24,4.76Z"/>
    <path class="cls-4" d="M46.97,40.04c-.91-.68-1.94-1.12-3.09-1.35-6.67-.67-12.47,1.33-17.37,5.88-1.64,1.53-2.96,3.47-2.04,5.83.95,2.42,3.29,2.92,5.58,3.01,5.72.21,10.77-1.74,15.29-5.15,1.22-.92,2.24-2.03,2.86-3.46.82-1.89.41-3.53-1.24-4.76ZM42.61,47.61c0-.1,0-.19.01-.27,0-.05.02-.09.03-.13.02-.06.04-.11.07-.16.02-.05.05-.09.08-.14,0-.01.01-.02.02-.03.04-.06.08-.12.12-.18,0,0,.01-.02.02-.03.02-.04.04-.08.06-.11.05-.12.05-.25-.05-.4-.17-.15-.31-.12-.45-.03-.02.01-.04.03-.06.04-.02.02-.04.03-.06.05-2.49,2.06-5.41,3.09-8.57,3.5-1.19.16-2.32-.02-3.25-1.12-.35,1.11.52,1.36,1.15,1.82-1.71.14-2.43-.63-2.06-2.06.17-.67.57-1.23,1.08-1.67,3.13-2.78,6.86-4.15,10.97-4.49,1.25-.11,2.43.4,2.7,1.76.29,1.45-.28,2.66-1.79,3.66Z"/>
    <path class="cls-2" d="M41.7,42.19c-4.11.35-7.84,1.72-10.97,4.49-.5.45-.9,1-1.08,1.67-.23.89-.03,1.53.56,1.84.35.18.7-.25.47-.56-.19-.25-.27-.57-.12-1.05.93,1.1,2.06,1.28,3.25,1.12,3.16-.41,6.08-1.44,8.57-3.5.02-.02.04-.03.06-.05.02-.01.04-.03.06-.04.14-.09.29-.12.45.03.1.16.1.28.05.41-.02.04-.04.08-.06.11,0,0-.01.02-.02.03-.04.06-.08.12-.12.18,0,.01-.01.02-.02.03-.03.04-.05.09-.08.14-.03.05-.05.1-.07.16-.01.04-.02.08-.03.13-.01.08-.02.17-.01.27,1.51-1,2.08-2.21,1.79-3.66-.27-1.36-1.46-1.87-2.7-1.76ZM42.29,44.6c-.02.05-.04.11-.06.16-.03.08-.07.15-.12.22-.05.07-.1.13-.16.19-2.34,2.15-5.13,3.15-7.91,3.59-.4.06-.79.12-1.19.16-.73-.09-1.12-.25-1.33-.6-.03-.05-.05-.1-.08-.16-.06-.15-.07-.29-.06-.41s.06-.23.13-.32c.1-.14.25-.27.4-.38.05-.04.1-.08.15-.11.51-.39,1.04-.75,1.59-1.06.72-.43,1.47-.79,2.24-1.1.38-.15.77-.3,1.17-.42,1.18-.38,2.41-.66,3.66-.84.21-.03.42-.06.63-.08.47-.06.78.02.93.2.04.05.08.11.1.18.07.2.03.48-.08.79Z"/>
    <path class="cls-1" d="M42.95,46.7s.01-.02.02-.03c0,0-.01.02-.02.03Z"/>
    <path class="cls-1" d="M42.81,46.92s.01-.02.02-.03c0,.01-.01.02-.02.03Z"/>
    <path class="cls-4" d="M42.27,43.63c-.16-.18-.46-.26-.93-.2-.21.03-.42.05-.63.08-1.26.18-2.48.45-3.66.84-.39.13-.78.27-1.17.42-.77.31-1.52.67-2.24,1.1-.54.32-1.07.67-1.59,1.06-.05.04-.1.08-.15.11-.15.12-.3.24-.4.38-.07.1-.12.2-.13.32-.02.12,0,.26.06.41.02.06.05.11.08.16.21.35.6.51,1.33.6.4-.04.79-.09,1.19-.16,2.78-.44,5.57-1.45,7.91-3.59.06-.05.12-.12.16-.19.05-.07.09-.14.12-.22.02-.06.05-.11.06-.16.12-.32.15-.59.08-.79-.02-.07-.06-.13-.1-.18Z"/>
    <path class="cls-4" d="M31.38,47.75c.02-.12.06-.23.13-.32-.07.1-.12.2-.13.32Z"/>
    <path class="cls-4" d="M42.11,44.98c.05-.07.09-.14.12-.22.02-.06.05-.11.06-.16-.02.05-.04.11-.06.16-.03.08-.07.15-.12.22Z"/>
    <path class="cls-4" d="M33.65,45.87c-.54.32-1.07.67-1.59,1.06-.05.04-.1.08-.15.11.05-.04.1-.08.15-.11.51-.39,1.04-.75,1.59-1.06Z"/>
    <path class="cls-4" d="M42.27,43.63c-.16-.18-.46-.26-.93-.2-.21.03-.42.05-.63.08.21-.03.42-.06.63-.08.47-.06.78.02.93.2Z"/>
    <path class="cls-4" d="M34.03,48.77c2.78-.44,5.57-1.45,7.91-3.59.06-.05.12-.12.16-.19-.05.07-.1.13-.16.19-2.34,2.15-5.13,3.15-7.91,3.59Z"/>
    <path class="cls-4" d="M42.38,43.81c-.02-.07-.06-.13-.1-.18.04.05.08.11.1.18Z"/>
  </g>
</svg>