<?xml version="1.0" encoding="UTF-8"?>
<svg xmlns="http://www.w3.org/2000/svg" xmlns:xlink="http://www.w3.org/1999/xlink" width="px" height="0px" viewBox="0 0 10 11" version="1.1">
<g id="surface1">
<path style=" stroke:none;fill-rule:nonzero;fill:rgb(0%,0%,0%);fill-opacity:1;" d="M 9.09375 3.886719 L 9.289062 4.332031 L 9.523438 5.199219 C 9.582031 5.730469 9.640625 6.261719 9.472656 6.789062 C 9.394531 7.035156 9.183594 7.257812 9.179688 7.480469 C 9.171875 7.707031 9.558594 7.730469 9.699219 7.9375 C 9.929688 8.257812 9.988281 8.597656 9.851562 8.972656 C 9.761719 9.210938 9.621094 9.429688 9.433594 9.601562 C 8.417969 10.542969 7.222656 11 5.835938 10.875 C 5.488281 10.847656 5.167969 10.722656 4.902344 10.484375 C 4.75 10.34375 4.613281 10.175781 4.613281 9.980469 C 4.613281 9.636719 4.445312 9.5625 4.140625 9.484375 C 3.257812 9.261719 2.535156 8.792969 2.152344 7.933594 C 1.925781 7.425781 1.960938 6.914062 2.324219 6.464844 C 2.414062 6.355469 2.417969 6.292969 2.320312 6.195312 C 2.121094 5.996094 1.953125 5.78125 1.816406 5.539062 C 1.148438 4.371094 1.667969 3.121094 2.980469 2.792969 C 3.175781 2.742188 3.347656 2.667969 3.503906 2.539062 C 3.9375 2.191406 4.4375 2.054688 4.992188 2.121094 C 5.179688 2.148438 5.34375 2.082031 5.5 2.007812 C 5.726562 1.90625 5.988281 1.875 6.234375 1.929688 C 6.503906 1.988281 6.753906 2.113281 6.980469 2.269531 C 7.035156 2.308594 7.09375 2.335938 7.152344 2.339844 C 7.792969 2.398438 8.21875 2.800781 8.640625 3.21875 C 8.640625 3.230469 8.644531 3.234375 8.652344 3.246094 L 8.753906 3.351562 L 8.910156 3.578125 C 8.976562 3.71875 9.015625 3.753906 9.09375 3.898438 Z M 2.832031 5.480469 C 3.699219 5.835938 4.304688 6.75 3.886719 7.378906 C 3.804688 7.035156 3.839844 6.710938 3.644531 6.449219 C 3.570312 6.351562 3.523438 6.195312 3.359375 6.203125 C 2.960938 6.230469 2.386719 6.441406 2.292969 7.011719 C 2.242188 7.339844 2.292969 7.652344 2.460938 7.9375 C 2.925781 8.738281 3.671875 9.097656 4.554688 9.242188 C 4.65625 9.257812 4.707031 9.222656 4.765625 9.136719 C 5.683594 7.914062 6.96875 7.433594 8.4375 7.445312 C 8.84375 7.445312 8.992188 7.300781 9.125 7.007812 C 9.152344 6.9375 9.179688 6.859375 9.199219 6.785156 C 9.570312 5.542969 8.960938 3.667969 7.933594 2.886719 C 7.773438 2.761719 7.605469 2.648438 7.355469 2.621094 C 7.519531 2.980469 7.691406 3.289062 7.691406 3.730469 C 7.421875 3.382812 7.3125 3.027344 7.113281 2.726562 C 6.746094 2.15625 5.988281 1.941406 5.484375 2.265625 C 6.015625 2.625 6.332031 3.113281 6.410156 3.742188 C 6.027344 3.324219 5.894531 2.6875 5.308594 2.457031 C 4.742188 2.234375 4.191406 2.292969 3.683594 2.699219 C 4.671875 3.058594 5.351562 3.746094 5.257812 4.304688 C 4.996094 3.84375 4.667969 3.472656 4.203125 3.226562 C 3.519531 2.859375 2.777344 2.964844 2.226562 3.511719 C 1.71875 4.011719 1.648438 4.625 2.023438 5.335938 C 2.15625 5.59375 2.308594 5.835938 2.507812 6.050781 C 2.566406 6.117188 2.605469 6.195312 2.722656 6.140625 C 2.871094 6.070312 3.03125 6.027344 3.226562 5.957031 C 3.023438 5.824219 2.78125 5.863281 2.664062 5.644531 M 8.71875 7.671875 C 7.40625 7.539062 6.257812 7.933594 5.292969 8.832031 C 4.96875 9.132812 4.707031 9.519531 4.890625 9.984375 C 5.078125 10.464844 5.539062 10.5625 5.992188 10.582031 C 7.121094 10.621094 8.121094 10.238281 9.011719 9.566406 C 9.25 9.386719 9.453125 9.167969 9.578125 8.882812 C 9.738281 8.507812 9.65625 8.183594 9.332031 7.941406 C 9.148438 7.808594 8.945312 7.71875 8.71875 7.675781 Z M 8.71875 7.671875 "/>
<path style="fill-rule:nonzero;fill:rgb(96.078432%,96.862745%,96.470588%);fill-opacity:1;stroke-width:0.25;stroke-linecap:butt;stroke-linejoin:miter;stroke:rgb(0%,0%,0%);stroke-opacity:1;stroke-miterlimit:10;" d="M 5.942262 11.177602 C 7.171969 11.74882 8.092265 12.867457 8.147801 13.906758 C 8.171601 14.1765 7.766988 14.216168 7.719387 13.946426 C 7.671785 13.629082 7.592449 13.327606 7.386176 13.057863 C 7.243371 12.859524 7.148168 12.54218 6.807023 12.558047 C 5.997797 12.613582 4.839492 13.041996 4.649086 14.200301 C 4.538016 14.866723 4.649086 15.50141 4.99023 16.080562 C 5.926394 17.706949 7.449644 18.43684 9.242636 18.730383 C 9.44891 18.762117 9.552047 18.690715 9.671051 18.516176 C 11.527511 16.032961 14.137664 15.057129 17.128628 15.08093 C 17.953722 15.08093 18.247265 14.787387 18.517007 14.192367 C 18.580476 14.049563 18.628078 13.890891 18.667746 13.740152 C 19.429371 11.21727 18.19173 7.409145 16.097261 5.822426 C 15.779918 5.568551 15.438773 5.338477 14.931023 5.282942 C 15.137296 5.751024 15.359437 6.171504 15.486375 6.64752 C 15.549843 6.86966 15.240433 6.996598 15.129363 6.790324 C 14.883421 6.330176 14.700949 5.893828 14.43914 5.489215 C 13.693382 4.33091 12.146332 3.886629 11.130832 4.553051 C 12.09873 5.211539 12.71755 6.076301 12.947625 7.179071 C 12.971425 7.282207 12.836554 7.337742 12.773086 7.258406 C 12.162199 6.433313 11.828988 5.362278 10.77382 4.949731 C 9.623449 4.497516 8.496879 4.61652 7.473445 5.441614 C 9.123633 6.036633 10.337472 7.091801 10.631015 8.067633 C 10.678617 8.226305 10.448543 8.337375 10.361273 8.186637 C 9.877324 7.488481 9.298172 6.909328 8.536547 6.496781 C 7.148168 5.758957 5.640785 5.973164 4.522148 7.083867 C 3.490781 8.099367 3.347976 9.337008 4.109601 10.788856 C 4.379344 11.312473 4.688754 11.796422 5.093367 12.240703 C 5.212371 12.367641 5.291707 12.526313 5.529715 12.423176 C 5.831191 12.280371 6.156469 12.193102 6.553148 12.050297 C 6.251672 11.851957 5.918461 11.83609 5.656652 11.677418 C 5.49798 11.582215 5.466246 11.352141 5.609051 11.21727 C 5.69632 11.13 5.839125 11.106199 5.950195 11.161734 Z M 5.942262 11.177602 " transform="matrix(0.492368,0,0,0.492368,0,0.0199407)"/>
<path style=" stroke:none;fill-rule:nonzero;fill:rgb(20%,16.862746%,15.294118%);fill-opacity:1;" d="M 8.519531 9.355469 C 8.519531 9.355469 8.527344 9.332031 8.53125 9.320312 C 8.527344 9.332031 8.523438 9.339844 8.519531 9.355469 Z M 8.519531 9.355469 "/>
<path style=" stroke:none;fill-rule:nonzero;fill:rgb(20%,16.862746%,15.294118%);fill-opacity:1;" d="M 8.578125 9.144531 C 8.539062 9.109375 8.507812 9.125 8.480469 9.144531 C 8.507812 9.117188 8.542969 9.105469 8.578125 9.144531 C 8.597656 9.171875 8.597656 9.199219 8.585938 9.222656 C 8.597656 9.199219 8.597656 9.171875 8.578125 9.144531 Z M 8.578125 9.144531 "/>
<path style=" stroke:none;fill-rule:nonzero;fill:rgb(0%,0%,0%);fill-opacity:1;" d="M 9.738281 7.925781 C 9.652344 7.808594 9.484375 7.75 9.359375 7.671875 C 9.359375 7.671875 8.882812 7.445312 8.480469 7.445312 C 7.082031 7.429688 5.855469 7.863281 4.949219 8.957031 C 4.894531 9.050781 4.84375 9.144531 4.796875 9.246094 C 4.726562 9.40625 4.667969 9.585938 4.617188 9.746094 C 4.644531 9.804688 4.652344 9.878906 4.652344 9.964844 C 4.652344 10.164062 4.785156 10.332031 4.945312 10.46875 C 5.210938 10.710938 5.527344 10.832031 5.875 10.863281 C 7.261719 10.984375 8.457031 10.527344 9.472656 9.585938 C 9.660156 9.414062 9.804688 9.199219 9.890625 8.957031 C 10.03125 8.585938 9.96875 8.246094 9.738281 7.921875 Z M 9.609375 8.878906 C 9.488281 9.160156 9.285156 9.378906 9.042969 9.5625 C 8.152344 10.238281 7.160156 10.621094 6.027344 10.578125 C 5.574219 10.5625 5.109375 10.457031 4.921875 9.980469 C 4.742188 9.519531 5.003906 9.132812 5.328125 8.828125 C 6.292969 7.933594 7.441406 7.535156 8.753906 7.667969 C 8.980469 7.710938 9.183594 7.800781 9.363281 7.933594 C 9.691406 8.171875 9.773438 8.5 9.609375 8.871094 Z M 9.609375 8.878906 "/>
<path style="fill-rule:nonzero;fill:rgb(96.078432%,96.862745%,96.470588%);fill-opacity:1;stroke-width:0.25;stroke-linecap:butt;stroke-linejoin:miter;stroke:rgb(0%,0%,0%);stroke-opacity:1;stroke-miterlimit:10;" d="M 19.016824 16.080562 C 18.651878 15.81082 18.239332 15.628348 17.779183 15.541078 C 15.113496 15.271336 12.781019 16.072629 10.821422 17.897355 C 10.162933 18.508242 9.631383 19.293668 9.996328 20.237765 C 10.37714 21.213598 11.321238 21.411937 12.241535 21.451605 C 14.52641 21.530941 16.55741 20.753449 18.366269 19.388871 C 18.858152 19.023926 19.270699 18.579644 19.51664 18.000492 C 19.849851 17.238867 19.683246 16.580379 19.016824 16.088496 Z M 17.279367 19.119129 C 17.279367 19.119129 17.279367 19.047726 17.279367 19.008059 C 17.279367 18.992191 17.279367 18.968391 17.2873 18.960457 C 17.2873 18.936656 17.311101 18.912855 17.319035 18.889055 C 17.319035 18.873187 17.342835 18.849387 17.350769 18.833519 C 17.350769 18.833519 17.350769 18.833519 17.350769 18.817652 C 17.366636 18.793851 17.382503 18.770051 17.398371 18.74625 C 17.398371 18.74625 17.398371 18.74625 17.398371 18.738316 C 17.398371 18.722449 17.422171 18.706582 17.422171 18.690715 C 17.438039 18.643113 17.438039 18.587578 17.398371 18.532043 C 17.326968 18.468574 17.271433 18.476508 17.223832 18.516176 C 17.223832 18.516176 17.200031 18.532043 17.200031 18.539976 C 17.200031 18.539976 17.17623 18.54791 17.168296 18.563777 C 16.168664 19.388871 15.002425 19.801418 13.73305 19.96009 C 13.249101 20.023558 12.796886 19.96009 12.431941 19.507875 C 12.289136 19.952156 12.638215 20.063226 12.89209 20.237765 C 12.201867 20.293301 11.916257 19.991824 12.059062 19.420605 C 12.130465 19.150863 12.289136 18.928723 12.487476 18.74625 C 13.740984 17.64348 15.240433 17.088129 16.890621 16.953258 C 17.390437 16.91359 17.858519 17.11193 17.969589 17.659348 C 18.088593 18.2385 17.858519 18.730383 17.247632 19.127062 Z M 17.279367 19.119129 " transform="matrix(0.492368,0,0,0.492368,0,0.0199407)"/>
<path style=" stroke:none;fill-rule:nonzero;fill:rgb(0%,0%,0%);fill-opacity:1;" d="M 8.324219 8.359375 C 7.511719 8.429688 6.78125 8.699219 6.160156 9.246094 C 6.0625 9.335938 5.980469 9.445312 5.949219 9.578125 C 5.902344 9.753906 5.941406 9.878906 6.0625 9.941406 C 6.128906 9.976562 6.199219 9.890625 6.15625 9.832031 C 6.113281 9.785156 6.101562 9.71875 6.128906 9.625 C 6.3125 9.84375 6.539062 9.878906 6.769531 9.847656 C 7.394531 9.765625 7.972656 9.5625 8.464844 9.160156 C 8.464844 9.160156 8.472656 9.152344 8.480469 9.148438 C 8.480469 9.148438 8.488281 9.144531 8.488281 9.136719 C 8.519531 9.117188 8.542969 9.113281 8.578125 9.144531 C 8.597656 9.171875 8.597656 9.199219 8.585938 9.222656 C 8.585938 9.230469 8.582031 9.238281 8.578125 9.246094 C 8.578125 9.246094 8.578125 9.246094 8.578125 9.25 C 8.570312 9.261719 8.5625 9.277344 8.550781 9.285156 C 8.550781 9.285156 8.550781 9.285156 8.550781 9.292969 C 8.546875 9.300781 8.542969 9.3125 8.539062 9.320312 C 8.53125 9.332031 8.527344 9.339844 8.523438 9.355469 C 8.523438 9.363281 8.523438 9.371094 8.519531 9.378906 C 8.519531 9.394531 8.519531 9.414062 8.519531 9.433594 C 8.816406 9.238281 8.929688 9 8.871094 8.710938 C 8.816406 8.4375 8.585938 8.339844 8.339844 8.359375 Z M 8.445312 8.839844 C 8.445312 8.839844 8.433594 8.859375 8.429688 8.871094 C 8.425781 8.886719 8.414062 8.902344 8.40625 8.917969 C 8.394531 8.933594 8.386719 8.941406 8.371094 8.957031 C 7.90625 9.378906 7.355469 9.578125 6.808594 9.664062 C 6.730469 9.679688 6.652344 9.691406 6.574219 9.695312 C 6.429688 9.675781 6.351562 9.644531 6.3125 9.578125 C 6.308594 9.566406 6.300781 9.558594 6.296875 9.542969 C 6.289062 9.511719 6.28125 9.484375 6.289062 9.464844 C 6.292969 9.445312 6.300781 9.417969 6.3125 9.398438 C 6.332031 9.371094 6.363281 9.34375 6.390625 9.324219 C 6.402344 9.316406 6.410156 9.3125 6.421875 9.300781 C 6.523438 9.222656 6.628906 9.152344 6.734375 9.089844 C 6.878906 9.003906 7.027344 8.933594 7.179688 8.871094 C 7.253906 8.84375 7.332031 8.8125 7.410156 8.789062 C 7.640625 8.714844 7.882812 8.660156 8.132812 8.621094 C 8.171875 8.617188 8.21875 8.613281 8.257812 8.605469 C 8.351562 8.597656 8.410156 8.605469 8.4375 8.644531 C 8.449219 8.65625 8.453125 8.664062 8.457031 8.679688 C 8.472656 8.71875 8.464844 8.773438 8.445312 8.839844 Z M 8.445312 8.839844 "/>
<path style=" stroke:none;fill-rule:nonzero;fill:rgb(96.078432%,96.862745%,96.470588%);fill-opacity:1;" d="M 6.289062 9.457031 C 6.289062 9.457031 6.300781 9.414062 6.3125 9.394531 C 6.296875 9.414062 6.289062 9.433594 6.289062 9.457031 Z M 6.289062 9.457031 "/>
<path style=" stroke:none;fill-rule:nonzero;fill:rgb(96.078432%,96.862745%,96.470588%);fill-opacity:1;" d="M 8.40625 8.914062 C 8.40625 8.914062 8.425781 8.882812 8.429688 8.867188 C 8.429688 8.859375 8.4375 8.847656 8.445312 8.832031 C 8.445312 8.84375 8.433594 8.851562 8.429688 8.867188 C 8.425781 8.882812 8.414062 8.898438 8.40625 8.914062 Z M 8.40625 8.914062 "/>
<path style=" stroke:none;fill-rule:nonzero;fill:rgb(96.078432%,96.862745%,96.470588%);fill-opacity:1;" d="M 6.734375 9.089844 C 6.628906 9.152344 6.523438 9.222656 6.421875 9.300781 C 6.410156 9.3125 6.402344 9.316406 6.390625 9.324219 C 6.402344 9.316406 6.410156 9.3125 6.421875 9.300781 C 6.523438 9.222656 6.628906 9.152344 6.734375 9.089844 Z M 6.734375 9.089844 "/>
<path style=" stroke:none;fill-rule:nonzero;fill:rgb(96.078432%,96.862745%,96.470588%);fill-opacity:1;" d="M 8.4375 8.644531 C 8.410156 8.613281 8.351562 8.597656 8.257812 8.605469 C 8.21875 8.613281 8.171875 8.617188 8.132812 8.621094 C 8.171875 8.617188 8.21875 8.613281 8.257812 8.605469 C 8.351562 8.597656 8.410156 8.605469 8.4375 8.644531 Z M 8.4375 8.644531 "/>
<path style=" stroke:none;fill-rule:nonzero;fill:rgb(96.078432%,96.862745%,96.470588%);fill-opacity:1;" d="M 6.8125 9.660156 C 7.359375 9.570312 7.914062 9.375 8.375 8.953125 C 8.386719 8.941406 8.398438 8.925781 8.410156 8.914062 C 8.398438 8.925781 8.390625 8.9375 8.375 8.953125 C 7.914062 9.375 7.359375 9.570312 6.8125 9.660156 Z M 6.8125 9.660156 "/>
<path style=" stroke:none;fill-rule:nonzero;fill:rgb(96.078432%,96.862745%,96.470588%);fill-opacity:1;" d="M 8.457031 8.679688 C 8.457031 8.679688 8.449219 8.65625 8.4375 8.644531 C 8.449219 8.65625 8.453125 8.671875 8.457031 8.679688 Z M 8.457031 8.679688 "/>
<path style="fill-rule:nonzero;fill:rgb(96.078432%,96.862745%,96.470588%);fill-opacity:1;stroke-width:0.5;stroke-linecap:butt;stroke-linejoin:miter;stroke:rgb(0%,0%,0%);stroke-opacity:1;stroke-miterlimit:10;" d="M 17.136562 17.516543 C 17.081027 17.453074 16.962023 17.42134 16.771617 17.437207 C 16.692281 17.453074 16.597078 17.461008 16.517742 17.468941 C 16.017925 17.540344 15.526043 17.651414 15.050027 17.810086 C 14.891355 17.857687 14.740617 17.921156 14.581945 17.976691 C 14.272535 18.103629 13.971058 18.246434 13.677515 18.420973 C 13.463308 18.54791 13.249101 18.690715 13.042828 18.849387 C 13.019027 18.873187 13.00316 18.881121 12.979359 18.896988 C 12.923824 18.952523 12.860355 18.992191 12.820687 19.047726 C 12.788953 19.087394 12.773086 19.127062 12.773086 19.182598 C 12.773086 19.230199 12.773086 19.277801 12.788953 19.341269 C 12.788953 19.357137 12.812754 19.388871 12.820687 19.412672 C 12.900023 19.547543 13.058695 19.618945 13.352238 19.65068 C 13.51091 19.626879 13.669582 19.611012 13.828254 19.587211 C 14.938957 19.412672 16.057593 19.008059 17.001691 18.15123 C 17.017558 18.12743 17.049293 18.103629 17.073093 18.071894 C 17.08896 18.04016 17.112761 18.008426 17.120695 17.976691 C 17.120695 17.960824 17.136562 17.937023 17.152429 17.913223 C 17.200031 17.778352 17.207964 17.667281 17.17623 17.587945 C 17.17623 17.556211 17.160363 17.540344 17.136562 17.516543 Z M 17.136562 17.516543 " transform="matrix(0.492368,0,0,0.492368,0,0.0199407)"/>
<path style=" stroke:none;fill-rule:nonzero;fill:rgb(0%,0%,0%);fill-opacity:1;" d="M 9.773438 7.9375 C 9.683594 7.8125 9.515625 7.761719 9.394531 7.679688 C 9.394531 7.679688 8.910156 7.453125 8.507812 7.449219 C 7.109375 7.433594 5.878906 7.867188 4.96875 8.964844 C 4.914062 9.058594 4.859375 9.152344 4.816406 9.257812 C 4.789062 9.316406 4.765625 9.375 4.742188 9.433594 C 4.683594 9.589844 4.664062 9.757812 4.667969 9.925781 C 4.667969 9.941406 4.667969 9.960938 4.667969 9.980469 C 4.667969 10.175781 4.804688 10.34375 4.957031 10.488281 C 5.222656 10.730469 5.542969 10.851562 5.894531 10.882812 C 7.285156 11.003906 8.484375 10.546875 9.503906 9.601562 C 9.691406 9.429688 9.832031 9.210938 9.921875 8.972656 C 10.058594 8.597656 10 8.257812 9.769531 7.9375 Z M 9.644531 8.886719 C 9.523438 9.167969 9.320312 9.390625 9.078125 9.570312 C 8.183594 10.246094 7.1875 10.628906 6.054688 10.589844 C 5.601562 10.578125 5.140625 10.472656 4.953125 9.996094 C 4.769531 9.527344 5.03125 9.144531 5.355469 8.84375 C 6.328125 7.941406 7.472656 7.546875 8.792969 7.679688 C 9.019531 7.726562 9.226562 7.8125 9.402344 7.945312 C 9.730469 8.1875 9.8125 8.511719 9.652344 8.886719 Z M 9.644531 8.886719 "/>
<path style="fill-rule:nonzero;fill:rgb(96.078432%,96.862745%,96.470588%);fill-opacity:1;stroke-width:0.25;stroke-linecap:butt;stroke-linejoin:miter;stroke:rgb(0%,0%,0%);stroke-opacity:1;stroke-miterlimit:10;" d="M 19.088226 16.09643 C 18.723281 15.826687 18.310734 15.652148 17.850585 15.556945 C 15.169031 15.287203 12.836554 16.09643 10.869023 17.921156 C 10.210535 18.532043 9.837656 19.611012 10.051863 20.261566 C 10.369207 21.253265 11.36884 21.443672 12.289136 21.467472 C 14.589879 21.546808 16.620878 20.769316 18.429738 19.396805 C 18.921621 19.031859 19.326234 18.579644 19.580109 18.008426 C 19.91332 17.246801 19.738781 16.588312 19.080292 16.09643 Z M 17.406304 19.071527 C 17.406304 19.071527 17.342835 19.071527 17.350769 19.031859 C 17.350769 19.008059 17.350769 18.992191 17.358703 18.976324 C 17.358703 18.960457 17.382503 18.928723 17.390437 18.912855 C 17.390437 18.889055 17.406304 18.873187 17.422171 18.849387 C 17.422171 18.849387 17.422171 18.849387 17.422171 18.841453 C 17.438039 18.809719 17.453906 18.793851 17.469773 18.770051 C 17.469773 18.770051 17.469773 18.770051 17.469773 18.762117 C 17.469773 18.738316 17.493574 18.730383 17.493574 18.706582 C 17.509441 18.65898 17.509441 18.611379 17.469773 18.54791 C 17.398371 18.492375 17.342835 18.500309 17.2873 18.539976 C 17.2873 18.539976 17.271433 18.54791 17.271433 18.563777 C 17.271433 18.563777 17.247632 18.571711 17.239699 18.579644 C 16.240066 19.412672 15.057961 19.817285 13.788586 19.991824 C 13.31257 20.047359 13.019027 19.991824 12.630281 19.690348 C 12.487476 20.142562 13.288769 20.277433 12.947625 20.2695 C 12.257402 20.317101 11.979726 20.023558 12.122531 19.436473 C 12.193933 19.16673 12.352605 18.952523 12.550945 18.770051 C 13.812386 17.651414 15.311836 17.096062 16.962023 16.961191 C 17.461839 16.921523 17.937855 17.119863 18.048925 17.667281 C 18.167929 18.246434 18.009257 18.666914 17.398371 19.071527 Z M 17.406304 19.071527 " transform="matrix(0.492368,0,0,0.492368,0,0.0199407)"/>
<path style=" stroke:none;fill-rule:nonzero;fill:rgb(0%,0%,0%);fill-opacity:1;" d="M 8.375 8.371094 C 7.5625 8.4375 6.824219 8.710938 6.203125 9.261719 C 6.105469 9.351562 6.027344 9.457031 5.992188 9.589844 C 5.949219 9.769531 5.988281 9.890625 6.105469 9.957031 C 6.175781 9.992188 6.242188 9.90625 6.199219 9.847656 C 6.160156 9.796875 6.144531 9.734375 6.175781 9.640625 C 6.355469 9.859375 6.582031 9.890625 6.820312 9.863281 C 7.445312 9.777344 8.019531 9.578125 8.519531 9.167969 C 8.519531 9.167969 8.527344 9.164062 8.53125 9.160156 C 8.53125 9.160156 8.542969 9.152344 8.542969 9.148438 C 8.570312 9.128906 8.601562 9.125 8.632812 9.152344 C 8.652344 9.183594 8.652344 9.207031 8.640625 9.230469 C 8.640625 9.242188 8.636719 9.246094 8.632812 9.257812 C 8.632812 9.257812 8.632812 9.257812 8.632812 9.261719 C 8.625 9.273438 8.617188 9.285156 8.605469 9.296875 C 8.605469 9.296875 8.605469 9.296875 8.605469 9.300781 C 8.601562 9.3125 8.597656 9.320312 8.59375 9.332031 C 8.585938 9.339844 8.582031 9.351562 8.578125 9.363281 C 8.578125 9.375 8.570312 9.378906 8.570312 9.390625 C 8.570312 9.40625 8.570312 9.425781 8.570312 9.445312 C 8.871094 9.246094 8.984375 9.003906 8.925781 8.71875 C 8.871094 8.449219 8.636719 8.351562 8.390625 8.371094 Z M 8.492188 8.847656 C 8.492188 8.847656 8.484375 8.867188 8.480469 8.882812 C 8.472656 8.898438 8.464844 8.914062 8.453125 8.925781 C 8.445312 8.941406 8.433594 8.953125 8.417969 8.964844 C 7.957031 9.390625 7.40625 9.589844 6.855469 9.675781 C 6.773438 9.691406 6.695312 9.699219 6.617188 9.703125 C 6.476562 9.683594 6.394531 9.65625 6.355469 9.585938 C 6.351562 9.578125 6.347656 9.566406 6.339844 9.550781 C 6.332031 9.523438 6.328125 9.492188 6.332031 9.46875 C 6.335938 9.445312 6.347656 9.425781 6.355469 9.40625 C 6.375 9.375 6.40625 9.351562 6.433594 9.332031 C 6.445312 9.320312 6.453125 9.316406 6.464844 9.304688 C 6.566406 9.226562 6.671875 9.160156 6.78125 9.09375 C 6.921875 9.011719 7.070312 8.9375 7.222656 8.878906 C 7.296875 8.847656 7.375 8.820312 7.453125 8.792969 C 7.6875 8.71875 7.933594 8.664062 8.179688 8.625 C 8.21875 8.621094 8.261719 8.617188 8.300781 8.613281 C 8.394531 8.601562 8.453125 8.613281 8.488281 8.652344 C 8.5 8.660156 8.503906 8.675781 8.507812 8.6875 C 8.523438 8.726562 8.511719 8.777344 8.492188 8.84375 Z M 8.492188 8.847656 "/>
<path style=" stroke:none;fill-rule:nonzero;fill:rgb(96.078432%,96.862745%,96.470588%);fill-opacity:1;" d="M 6.316406 9.472656 C 6.316406 9.472656 6.332031 9.429688 6.339844 9.410156 C 6.328125 9.429688 6.316406 9.449219 6.316406 9.472656 Z M 6.316406 9.472656 "/>
<path style=" stroke:none;fill-rule:nonzero;fill:rgb(96.078432%,96.862745%,96.470588%);fill-opacity:1;" d="M 6.765625 9.097656 C 6.65625 9.164062 6.554688 9.230469 6.449219 9.3125 C 6.441406 9.320312 6.429688 9.324219 6.421875 9.335938 C 6.429688 9.324219 6.441406 9.320312 6.449219 9.3125 C 6.554688 9.230469 6.65625 9.164062 6.765625 9.097656 Z M 6.765625 9.097656 "/>
<path style=" stroke:none;fill-rule:nonzero;fill:rgb(96.078432%,96.862745%,96.470588%);fill-opacity:1;" d="M 6.839844 9.675781 C 7.390625 9.585938 7.941406 9.390625 8.40625 8.964844 C 8.414062 8.957031 8.429688 8.941406 8.4375 8.925781 C 8.429688 8.941406 8.417969 8.953125 8.40625 8.964844 C 7.941406 9.390625 7.390625 9.589844 6.839844 9.675781 Z M 6.839844 9.675781 "/>
<path style="fill-rule:nonzero;fill:rgb(96.078432%,96.862745%,96.470588%);fill-opacity:1;stroke-width:0.5;stroke-linecap:butt;stroke-linejoin:miter;stroke:rgb(0%,0%,0%);stroke-opacity:1;stroke-miterlimit:10;" d="M 17.207964 17.540344 C 17.152429 17.468941 17.033425 17.437207 16.827152 17.461008 C 16.747816 17.468941 16.660546 17.476875 16.581211 17.492742 C 16.081394 17.556211 15.581578 17.667281 15.113496 17.833887 C 14.94689 17.881488 14.796152 17.937023 14.63748 18.000492 C 14.32807 18.119496 14.026593 18.270234 13.740984 18.43684 C 13.518843 18.571711 13.31257 18.706582 13.098363 18.873187 C 13.082496 18.889055 13.058695 18.896988 13.042828 18.920789 C 12.979359 18.968391 12.923824 19.023926 12.876222 19.071527 C 12.852422 19.111195 12.828621 19.150863 12.828621 19.198465 C 12.828621 19.246066 12.828621 19.301601 12.852422 19.373004 C 12.852422 19.388871 12.868289 19.420605 12.876222 19.436473 C 12.963492 19.579277 13.122164 19.65068 13.407773 19.682414 C 13.566445 19.658613 13.73305 19.642746 13.891722 19.618945 C 15.010359 19.436473 16.16073 19.039793 17.096894 18.182965 C 17.120695 18.159164 17.152429 18.12743 17.168296 18.103629 C 17.192097 18.071894 17.168296 18.04016 17.17623 18.008426 C 17.17623 17.992559 17.200031 17.968758 17.207964 17.937023 C 17.2635 17.810086 17.271433 17.699016 17.239699 17.61968 C 17.239699 17.587945 17.223832 17.572078 17.200031 17.548277 Z M 17.207964 17.540344 " transform="matrix(0.492368,0,0,0.492368,0,0.0199407)"/>
<path style=" stroke:none;fill-rule:nonzero;fill:rgb(0%,0%,0%);fill-opacity:1;" d="M 6.148438 9.785156 L 6.382812 10 L 6.292969 10 L 6.148438 9.929688 Z M 6.148438 9.785156 "/>
<path style=" stroke:none;fill-rule:nonzero;fill:rgb(0%,0%,0%);fill-opacity:1;" d="M 6.09375 9.835938 L 6.199219 9.910156 L 6.253906 9.597656 L 6.128906 9.511719 Z M 6.09375 9.835938 "/>
<path style=" stroke:none;fill-rule:nonzero;fill:rgb(96.078432%,96.862745%,96.470588%);fill-opacity:1;" d="M 6.289062 9.828125 C 6.289062 9.828125 6.382812 9.929688 6.300781 10.003906 C 6.222656 10.078125 5.992188 10.003906 5.992188 10.003906 L 6.464844 10.210938 L 6.464844 9.945312 L 6.28125 9.832031 Z M 6.289062 9.828125 "/>
<path style=" stroke:none;fill-rule:nonzero;fill:rgb(96.078432%,96.862745%,96.470588%);fill-opacity:1;" d="M 8.550781 9.261719 C 8.550781 9.261719 8.488281 9.316406 8.542969 9.390625 C 8.597656 9.464844 8.679688 9.390625 8.679688 9.390625 L 8.492188 9.542969 L 8.40625 9.394531 L 8.558594 9.265625 Z M 8.550781 9.261719 "/>
<path style="fill-rule:nonzero;fill:rgb(0%,0%,0%);fill-opacity:1;stroke-width:0.25;stroke-linecap:butt;stroke-linejoin:miter;stroke:rgb(0%,0%,0%);stroke-opacity:1;stroke-miterlimit:10;" d="M 19.849851 16.080562 C 19.667378 15.826687 19.326234 15.723551 19.080292 15.556945 C 19.080292 15.556945 18.096527 15.096797 17.279367 15.088863 C 14.43914 15.057129 11.940058 15.937758 10.091531 18.167098 C 9.980461 18.357504 9.86939 18.54791 9.782121 18.762117 C 9.726586 18.881121 9.678984 19.000125 9.631383 19.119129 C 9.512379 19.436473 9.472711 19.777617 9.480644 20.118762 C 9.480644 20.150496 9.480644 20.190164 9.480644 20.229832 C 9.480644 20.626512 9.75832 20.967656 10.06773 21.261199 C 10.607215 21.753082 11.257769 21.999023 11.971793 22.062492 C 14.796152 22.308433 17.231765 21.380203 19.302433 19.460273 C 19.683246 19.111195 19.968855 18.666914 20.151328 18.182965 C 20.429003 17.42134 20.309999 16.731117 19.841917 16.080562 Z M 19.588042 18.008426 C 19.342101 18.579644 18.929554 19.031859 18.437671 19.396805 C 16.620878 20.769316 14.597812 21.546808 12.29707 21.467472 C 11.376773 21.443672 10.440609 21.229465 10.059797 20.261566 C 9.686918 19.309535 10.218468 18.532043 10.876957 17.921156 C 12.852422 16.088496 15.176964 15.287203 17.858519 15.556945 C 18.318667 15.652148 18.739148 15.826687 19.09616 16.09643 C 19.762582 16.588312 19.929187 17.246801 19.60391 18.008426 Z M 19.588042 18.008426 " transform="matrix(0.492368,0,0,0.492368,0,0.0199407)"/>
<path style="fill-rule:nonzero;fill:rgb(96.078432%,96.862745%,96.470588%);fill-opacity:1;stroke-width:0.5;stroke-linecap:butt;stroke-linejoin:miter;stroke:rgb(0%,0%,0%);stroke-opacity:1;stroke-miterlimit:10;" d="M 19.088226 16.09643 C 18.723281 15.826687 18.310734 15.652148 17.850585 15.556945 C 15.169031 15.287203 12.836554 16.09643 10.869023 17.921156 C 10.210535 18.532043 9.837656 19.611012 10.051863 20.261566 C 10.369207 21.253265 11.36884 21.443672 12.289136 21.467472 C 14.589879 21.546808 16.620878 20.769316 18.429738 19.396805 C 18.921621 19.031859 19.326234 18.579644 19.580109 18.008426 C 19.91332 17.246801 19.738781 16.588312 19.080292 16.09643 Z M 19.088226 16.09643 " transform="matrix(0.492368,0,0,0.492368,0,0.0199407)"/>
<path style="fill-rule:nonzero;fill:rgb(96.078432%,96.862745%,96.470588%);fill-opacity:1;stroke-width:0.75;stroke-linecap:butt;stroke-linejoin:miter;stroke:rgb(0%,0%,0%);stroke-opacity:1;stroke-miterlimit:10;" d="M 18.159996 17.318203 C 18.509074 18.15123 17.192097 18.881121 15.502242 19.539609 C 13.812386 20.198098 12.257402 20.2695 12.027328 19.698281 C 11.797254 19.127062 13.00316 18.143297 14.693015 17.476875 C 16.382871 16.818387 17.921988 16.746984 18.159996 17.318203 Z M 18.159996 17.318203 " transform="matrix(0.492368,0,0,0.492368,0,0.0199407)"/>
</g>
</svg>
