<?xml version="1.0" encoding="UTF-8"?><svg id="Layer_1" xmlns="http://www.w3.org/2000/svg" viewBox="0 0 20.31 22.26"><defs><style>.cls-1{fill:#332b27;}.cls-1,.cls-2,.cls-3,.cls-4,.cls-5{stroke-width:0px;}.cls-3{fill:none;}.cls-4{fill:#fff;}.cls-5{fill:#f5f7f6;}</style></defs><path class="cls-2" d="M16.63,19.19c-.13.04.59-.36.46-.32-.24.04.19,1.51-.05,1.54-1.17.12-2.83,2-3.67,1.07-.05-.09-.1-.19-.17-.28-.16-.22-.04-.66-.31-.68-.54-.04-1.07-.29-1.62-.13-.09.03-.14.09-.23.17-.39.33-.74.66-1.14.99-.56.46-1.17.47-1.76.02-.16-.13-.31-.27-.46-.41-.1-.17-.2-.34-.3-.52-.19-.61.02-1.16.28-1.69,0,0,.02-.03.02-.03.16-.19.31-.38.47-.57.34-.32.82-.43,1.23-.65.61-.34.67-.55.27-1.13-.07-.11-.16-.2-.24-.3-.04-.03-.07-.07-.11-.1-.5-.62-1.01-1.25-1.51-1.87-.06-.08-.12-.16-.18-.24-.32-.52-.64-1.03-.96-1.55-.08-.23-.16-.45-.23-.68-.01-.06-.03-.13-.04-.19.05-.94.19-1.84,1.11-2.4.15-.09.05-.23.05-.35.02-1.23,1.26-2.06,2.51-1.68.24.07.4.08.62-.05.78-.46,1.59-.31,2.2.37.09.1.11.24.34.23,1.1-.07,1.49.14,1.91,1.11.38.87.88,1.66,1.58,2.34.53.52,1.02,1.08,1.52,1.62.47.55.77.94,1,1.57.35.94.54,1.89.26,2.86-.09.3-.2.49.03.68.63.5.06.94-.13,1.65-.11.39-1.44-.28-1.65.05-.33.28-.9-.33-1.23-.06-.11.07.11-.07,0,0M12.91,8.64c-.18-.45-.4-.84-.81-1.16-.42-.33-.73-.11-1.09.05-.42.19-.08.41-.03.62.31,1.26,1.04,2.34,1.77,3.43-.32.1-.44-.1-.57-.27-.68-.86-1.24-1.76-1.55-2.8-.14-.47-.41-.9-1-.95-.59-.05-1.09.15-1.41.65-.32.5-.22.77.35,1.01.42.18.75.47.94.86.18.36.35.73.47,1.12.22.69.53,1.32,1.11,1.83-.61-.21-1.07-.57-1.32-1.14-.17-.39-.32-.78-.47-1.17-.12-.31-.3-.6-.54-.83-.46-.44-1-.44-1.37.06-.53.72-.66,1.51-.25,2.35.49,1.01,1.21,1.87,1.89,2.76.39.52.85,1.01,1.13,1.59.38.78.21,1.18-.63,1.47-.69.24-1.19.68-1.54,1.28-.24.42-.27.86-.04,1.3.4.81,1.26.96,1.91.34.52-.49,1.01-.98,1.83-1.07.38-.04.62.27.98.21.17-.03.34.05.45-.19.9-2.01,3.16-3.13,5.38-2.62.59.14.68-.05.69-.5.05-1.5-.41-2.83-1.51-3.97-.59-.61-1.16-1.23-1.76-1.84-.65-.66-1-1.47-1.38-2.27-.16-.35-.42-.56-.82-.61-.33-.04-.46.03-.33.38.28.78.69,1.51,1.11,2.23.09.15.25.28.22.61-.89-.84-1.39-1.77-1.79-2.75ZM19.44,20.51c1.13-1.24.55-2.65-1.19-2.9-1.75-.24-3.22.3-4.31,1.57-1.03,1.19-.48,2.46,1.42,2.84,1.46.17,2.96-.27,4.09-1.51Z"/><path class="cls-5" d="M13.19,19.96c-.33.39-1.04-.06-1.43-.02-.81.09-1.31.58-1.82,1.07-.65.62-1.6.48-2-.33-.22-.45-.2-1.07.04-1.49.34-.6.95-.86,1.64-1.1.83-.29,1-.7.62-1.47-.29-.58-.74-1.07-1.13-1.59-.67-.89-1.4-1.75-1.88-2.76-.41-.84-.29-1.63.25-2.35.37-.5.91-.5,1.37-.06.25.24.42.52.54.83.15.39.3.79.47,1.17.16.36.4.63.71.84.11.07.23-.05.18-.16-.22-.42-.5-.79-.64-1.25-.12-.42-.3-.83-.5-1.23-.2-.39-.52-.68-.94-.86-.57-.24-.67-.5-.35-1,.31-.5.81-.69,1.4-.65.59.05.86.48,1,.94.31,1.03.87,1.94,1.55,2.79.09.11.17.24.31.28.11.03.2-.1.14-.2-.69-1.02-1.36-2.05-1.65-3.23-.05-.2-.39-.43.03-.61.36-.16.67-.38,1.09-.05.41.32.63.71.81,1.15.34.83.75,1.63,1.41,2.36.11.12.29-.03.2-.16-.01-.02-.03-.04-.04-.06-.42-.72-.83-1.44-1.1-2.22-.13-.35,0-.43.33-.38.4.05.65.25.82.61.37.8.72,1.61,1.37,2.27.59.6,1.16,1.22,1.75,1.83.89.92,1.36,1.97,1.48,3.13.05.48-.01.96-.15,1.42h0c-.58,1.4-.88,1.51-2,1.88l-3.22,1.07-.54-.29"/><path class="cls-2" d="M9.02,21.51c-.07,0-.15,0-.22-.02-.41-.07-.76-.35-.96-.75-.23-.47-.22-1.14.04-1.59.36-.63,1.01-.9,1.7-1.15.4-.14.62-.3.7-.5.08-.2.04-.46-.14-.82-.21-.42-.51-.8-.8-1.17-.11-.13-.21-.27-.32-.4-.12-.16-.24-.31-.36-.47-.55-.72-1.13-1.47-1.53-2.3-.41-.85-.32-1.68.26-2.46.19-.25.43-.4.69-.42.28-.02.57.1.84.35.24.23.44.53.57.87l.07.17c.13.33.26.67.4.99.14.32.37.59.67.79-.05-.14-.11-.25-.18-.37-.17-.29-.35-.58-.44-.92-.11-.36-.26-.75-.49-1.21-.18-.36-.48-.63-.89-.81-.34-.14-.51-.29-.57-.48-.06-.18,0-.4.17-.68.32-.51.84-.74,1.5-.7.53.04.9.39,1.09,1.02.28.91.76,1.78,1.53,2.75l.04.05c.07.09.13.17.22.2v-.03c-.73-1.1-1.36-2.11-1.65-3.27,0-.04-.04-.09-.07-.14-.06-.1-.14-.22-.1-.36.03-.1.11-.18.26-.24l.12-.05c.31-.15.66-.31,1.08.02.45.35.67.78.84,1.2.27.67.68,1.54,1.39,2.32h0s.03-.03.03-.03c-.02-.03-.03-.05-.04-.07-.43-.73-.83-1.44-1.11-2.24-.05-.14-.09-.32,0-.44.1-.12.28-.11.44-.09.42.06.72.28.9.67l.08.16c.34.72.68,1.47,1.27,2.07.35.35.68.71,1.02,1.06.24.26.49.51.73.77.88.9,1.38,1.98,1.51,3.19.05.47,0,.96-.15,1.46-.59,1.42-.89,1.56-2.07,1.95l-3.27,1.09-.58-.32.1-.19.5.27,3.18-1.05c1.1-.37,1.36-.45,1.93-1.82.14-.46.19-.93.14-1.37-.12-1.16-.61-2.2-1.45-3.06-.25-.25-.49-.51-.73-.77-.34-.36-.67-.71-1.02-1.06-.62-.63-.97-1.39-1.32-2.13l-.08-.16c-.15-.33-.39-.5-.73-.55-.2-.03-.24,0-.25.01,0,0-.03.05.03.23.27.78.68,1.48,1.1,2.2,0,.02.02.03.03.04.08.12.06.25-.04.33-.1.08-.24.07-.32-.03-.73-.81-1.15-1.7-1.43-2.39-.16-.39-.36-.79-.77-1.11-.32-.25-.56-.13-.86,0l-.12.06c-.11.05-.14.09-.14.11-.01.04.03.11.07.18.04.06.08.13.1.2.28,1.13.9,2.12,1.63,3.2.06.08.05.2,0,.28-.06.08-.16.12-.25.08-.15-.05-.25-.17-.33-.28l-.03-.04c-.79-.99-1.28-1.89-1.57-2.82-.17-.56-.46-.83-.9-.87-.58-.06-1.02.15-1.3.59-.14.22-.19.38-.15.5.04.12.18.24.45.35.45.19.79.5,1,.91.24.47.4.87.51,1.24.09.31.25.58.42.87.07.12.14.24.2.36.05.09.03.21-.05.28-.08.07-.19.08-.28.02-.34-.23-.59-.52-.75-.89-.15-.33-.28-.67-.41-1l-.07-.17c-.12-.32-.29-.58-.52-.79-.22-.21-.45-.31-.67-.29-.2.02-.38.13-.54.34-.53.71-.61,1.46-.23,2.23.39.82.96,1.55,1.51,2.26.12.16.24.32.36.47.1.13.21.27.31.4.3.38.61.77.83,1.21.21.42.25.74.15,1-.11.26-.37.46-.83.62-.67.24-1.26.48-1.58,1.05-.22.39-.23.98-.03,1.39.17.35.46.57.81.64.36.06.73-.06,1.02-.34l.05-.05c.5-.47,1.01-.97,1.84-1.05.16-.02.34.03.54.09.32.08.65.17.82-.03l.17.14c-.26.31-.69.19-1.04.1-.18-.05-.34-.08-.46-.08-.75.08-1.22.53-1.71,1l-.05.05c-.28.27-.64.42-.99.42Z"/><path class="cls-3" d="M18.43,19.86s-.09-.03-.13,0c.04-.02.08-.03.13,0,.03.04.03.08.01.11.01-.03.01-.07-.01-.11Z"/><path class="cls-3" d="M13.27,19.59c1.29-1.55,3.03-2.17,5.02-2.15-1.94-.02-4.02.49-5.02,2.15Z"/><path class="cls-3" d="M18.36,20.11s.01-.03.02-.04c0,.01-.02.03-.02.04Z"/><path class="cls-3" d="M18.39,20.06s.02-.03.03-.05c-.01.02-.02.03-.03.05Z"/><path class="cls-3" d="M18.42,20s.01-.02.02-.03c0,.01,0,.02-.02.03Z"/><path class="cls-3" d="M16.44,19.47c.11-.04.22-.08.33-.12-.11.04-.22.08-.33.12Z"/><path class="cls-3" d="M15.18,20.3s0,.07.02.12c0,.02.01.03.02.05,0-.01-.02-.03-.02-.05-.02-.04-.02-.08-.02-.12Z"/><path class="cls-2" d="M19.89,18.12c-.12-.16-.35-.24-.52-.35,0,0,0,0,0,0,0,0-.65-.31-1.2-.31-1.9-.02-3.58.57-4.81,2.06-.07.13-.14.26-.21.4-.03.08-.07.16-.1.24-.08.21-.11.44-.1.67,0,.02,0,.05,0,.07,0,.27.18.5.39.69.36.33.8.49,1.27.54,1.9.17,3.52-.46,4.91-1.74.26-.24.45-.53.57-.86.19-.51.11-.97-.21-1.41ZM19.98,19.54c-.17.4-.46.71-.8.97-1.27.96-2.68,1.5-4.29,1.44-.64-.02-1.3-.17-1.57-.84-.26-.66.11-1.21.57-1.63,1.37-1.28,3-1.84,4.87-1.65.32.07.61.19.87.38.46.34.58.8.35,1.34Z"/><path class="cls-2" d="M15.21,22.26c-.2,0-.4,0-.6-.03-.52-.05-.97-.24-1.33-.56-.19-.17-.43-.43-.43-.77v-.07c-.01-.25.02-.49.11-.71.03-.09.06-.17.1-.25.06-.14.13-.18.21-.32,1.16-1.41,2.78-2.11,4.82-2.11h.08c.57,0,1.22.22,1.25.23.05.03.1.06.15.08.14.07.3.16.4.3.34.48.42.98.22,1.51-.13.36-.34.66-.6.9-1.29,1.19-2.76,1.79-4.39,1.79ZM18.07,17.89c-1.54,0-2.92.56-4.11,1.66-.57.53-.74,1.01-.55,1.51.2.51.64.74,1.47.78,1.5.05,2.88-.41,4.22-1.42.37-.28.62-.58.77-.93h0c.21-.49.11-.89-.31-1.2-.24-.18-.51-.3-.82-.36-.23-.02-.45-.03-.67-.03ZM17.25,21.69c-.16.06-.32.11-.48.15.16-.04.32-.09.48-.15ZM18.09,17.57c-1.97,0-3.53.68-4.64,2.02-.07.11-.13.24-.19.37-.03.08-.07.16-.1.24-.07.2-.1.41-.09.62,0,.03,0,.05,0,.08,0,.19.11.37.34.59-.08-.1-.14-.21-.2-.35-.23-.59-.03-1.16.6-1.75,1.4-1.3,3.07-1.87,4.96-1.68.36.07.66.2.92.4.06.04.11.09.15.13-.01-.02-.03-.04-.04-.06h0c-.07-.1-.2-.16-.33-.23-.06-.03-.11-.06-.16-.09h0s-.63-.29-1.15-.3h-.08Z"/><path class="cls-5" d="M19.55,18.14c-.26-.19-.54-.31-.87-.38-1.87-.19-3.5.37-4.87,1.65-.46.43-.72,1.18-.57,1.63.22.69.92.82,1.57.84,1.61.06,3.02-.49,4.29-1.44.34-.26.63-.57.8-.97.23-.53.11-.99-.35-1.34Z"/><path class="cls-2" d="M15.03,22.11c-.08,0-.16,0-.24,0-.4-.01-1.47-.05-1.77-.99-.17-.54.11-1.38.63-1.86,1.43-1.33,3.13-1.89,5.04-1.71.38.08.69.21.97.42h0c.54.4.69.97.42,1.6-.17.4-.46.74-.87,1.06-1.31.99-2.72,1.49-4.19,1.49ZM17.99,17.94c-1.51,0-2.86.55-4.03,1.63-.4.37-.64,1.03-.51,1.41.14.46.55.66,1.37.69,1.47.04,2.83-.4,4.15-1.4.35-.27.59-.55.74-.88.19-.44.1-.79-.28-1.07-.23-.17-.48-.28-.78-.34-.22-.02-.44-.03-.65-.03Z"/><path class="cls-1" d="M18.42,20.01s0,0,0,0c0,0,0,0,0,0Z"/><path class="cls-1" d="M18.38,20.07s0,0,0,0c0,0,0,0,0,0Z"/><path class="cls-5" d="M15.18,20.3s.02-.06.04-.09c-.02.03-.03.06-.04.09Z"/><path class="cls-5" d="M18.18,19.53s.03-.04.03-.06c0-.02.01-.03.02-.05,0,.01-.01.03-.02.05,0,.02-.02.04-.03.06Z"/><path class="cls-5" d="M15.81,19.78c-.15.09-.3.19-.45.3-.01.01-.03.02-.04.03.01-.01.03-.02.04-.03.14-.11.29-.21.45-.3Z"/><path class="cls-5" d="M18.23,19.15c-.04-.05-.13-.07-.26-.06-.06,0-.12.02-.18.02.06,0,.12-.02.18-.02.13-.02.22,0,.26.06Z"/><path class="cls-5" d="M15.92,20.59c.78-.12,1.56-.41,2.22-1.01.02-.02.03-.03.05-.05-.01.02-.03.04-.05.05-.66.6-1.44.88-2.22,1.01Z"/><path class="cls-5" d="M18.26,19.2s-.02-.04-.03-.05c.01.01.02.03.03.05Z"/><path class="cls-5" d="M18.23,19.15c-.04-.05-.13-.07-.26-.06-.06,0-.12.02-.18.02-.35.05-.7.13-1.03.24-.11.04-.22.08-.33.12-.22.09-.43.19-.63.31-.15.09-.3.19-.45.3-.01.01-.03.02-.04.03-.04.03-.08.07-.11.11-.02.03-.03.06-.04.09,0,.03,0,.07.02.12,0,.02.01.03.02.05.06.1.17.14.37.17.11-.01.22-.03.33-.04.78-.12,1.59-.41,2.24-1.01.02-.02.03-.03.05-.05.01-.02,0-.04.01-.06,0-.02.01-.03.02-.05.03-.09.04-.17.02-.22,0-.02-.02-.04-.03-.05Z"/><path class="cls-2" d="M15.61,20.85c-.25-.03-.47-.08-.58-.28l-.04-.07c-.03-.08-.04-.15-.03-.23,0-.07.03-.13.07-.19.05-.06.1-.11.16-.15.19-.15.35-.25.51-.35.21-.12.43-.23.66-.32.11-.05.23-.09.34-.12.33-.11.69-.19,1.06-.24l.18-.02c.21-.02.36.02.45.13.03.04.06.08.07.13.03.1.02.22-.03.36v.02s0,.04,0,.04l-.04.09s-.05.07-.08.09c-.6.55-1.39.91-2.35,1.06-.11.02-.23.03-.34.05ZM18.04,19.3s-.03,0-.05,0l-.17.02c-.35.05-.68.13-.99.23-.11.03-.21.07-.31.11-.21.09-.41.18-.6.29-.14.09-.29.18-.42.28-.06.04-.09.07-.11.09.02.03.05.06.22.08.06-.01.16-.03.27-.04.87-.14,1.58-.45,2.12-.94,0-.02,0-.03.02-.05.01-.03.02-.06.03-.08ZM18.42,19.55h0s0,0,0,0ZM18.05,19.26h0s0,0,0,0Z"/><polygon class="cls-2" points="14.94 20.75 15.27 21.05 15.14 21.05 14.94 20.96 14.94 20.75"/><polygon class="cls-2" points="14.87 20.83 15.01 20.92 15.09 20.48 14.91 20.37 14.87 20.83"/><path class="cls-5" d="M15.13,20.81s.13.15.02.25-.44,0-.44,0l.67.3v-.38l-.26-.16Z"/><ellipse class="cls-5" cx="16.76" cy="19.83" rx="2.3" ry=".77" transform="translate(-6.05 7.43) rotate(-21.26)"/><path class="cls-2" d="M15.33,21.25c-.5,0-.88-.14-1.01-.47-.27-.71.83-1.5,2.05-1.97,1.22-.47,2.57-.63,2.84.07h0c.27.71-.83,1.5-2.05,1.97-.61.24-1.29.4-1.83.4ZM18.2,19.06c-.35,0-.9.08-1.61.36-1.16.45-1.66,1-1.67,1.15.09.07.84.13,1.99-.32,1.11-.43,1.62-.95,1.67-1.12-.05-.03-.18-.06-.38-.06Z"/><path class="cls-4" d="M15.33,21.3c-.56,0-.93-.17-1.06-.5-.29-.73.83-1.55,2.07-2.03,1.24-.48,2.61-.64,2.9.1.29.73-.83,1.55-2.07,2.03-.66.26-1.33.4-1.84.4ZM18.2,18.44c-.53,0-1.19.16-1.82.41-1.2.47-2.28,1.24-2.02,1.92.14.37.61.45.97.45.5,0,1.16-.15,1.81-.4,1.2-.47,2.28-1.24,2.02-1.92-.12-.32-.49-.45-.96-.45ZM15.27,20.65c-.2,0-.32-.03-.36-.06h-.02s0-.04,0-.04c0-.19.58-.75,1.7-1.19.81-.31,1.36-.36,1.62-.36.19,0,.34.02.41.07l.03.02v.03c-.06.17-.55.71-1.7,1.15-.73.28-1.32.37-1.67.37ZM14.98,20.54c.15.05.85.09,1.93-.34,1.05-.41,1.53-.89,1.63-1.06-.06-.02-.16-.04-.33-.04-.25,0-.8.05-1.59.36-1.12.44-1.58.94-1.64,1.08Z"/></svg>