<?xml version="1.0" encoding="UTF-8"?>
<svg id="Layer_1" data-name="Layer 1" xmlns="http://www.w3.org/2000/svg" viewBox="0 0 50 55">
  <defs>
    <style>
      .cls-1 {
        fill: #332b27;
      }

      .cls-1, .cls-2, .cls-3, .cls-4 {
        stroke-width: 0px;
      }

      .cls-3 {
        fill: none;
      }

      .cls-4 {
        fill: #f5f7f6;
      }
    </style>
  </defs>
  <path class="cls-3" d="M42.63,55s.02-.09.03-.13c-.01.04-.02.08-.03.13Z"/>
  <path class="cls-3" d="M42.73,55c.1-.2.23-.34.29-.49-.06.15-.19.3-.29.49Z"/>
  <path class="cls-1" d="M42.66,55c.02-.06.04-.11.07-.16-.03.05-.05.1-.07.16Z"/>
  <path class="cls-1" d="M42.97,54.59c-.19-.18-.36-.1-.51.01.15-.12.32-.19.51-.01.1.16.1.28.05.4.05-.12.05-.25-.05-.41Z"/>
  <g>
    <path class="cls-2" d="M36.57,43.8c-.45.15,2.11-1.3,1.66-1.15-.86.14.69,5.4-.18,5.49-4.18.44-10.08,7.14-13.09,3.81-.19-.34-.36-.69-.59-1.01-.57-.77-.14-2.36-1.12-2.44-1.92-.16-3.83-1.03-5.79-.45-.32.09-.62.23-.66.61-1.41,1.17-2.81,2.35-4.22,3.52-1.98,1.65-4.17,1.69-6.27.07-.58-.45-1.11-.97-1.66-1.45-.35-.61-.7-1.22-1.06-1.84-.67-2.18.06-4.12,1.01-6.02,0,0,.07-.09.07-.09.56-.68,1.11-1.35,1.67-2.03,1.23-1.14,2.93-1.53,4.37-2.33,2.17-1.21,2.38-1.95.98-4.03-.25-.38-.58-.72-.87-1.07-.13-.12-.25-.24-.38-.37-1.8-2.23-3.6-4.45-5.4-6.68-.21-.28-.42-.56-.63-.84-1.15-1.84-2.29-3.68-3.44-5.52-.28-.81-.56-1.61-.84-2.42-.05-.23-.1-.46-.15-.69.18-3.34.66-6.56,3.96-8.56.53-.32.18-.81.19-1.23.08-4.37,4.48-7.35,8.96-6,.86.26,1.43.3,2.22-.16,2.78-1.64,5.66-1.1,7.86,1.33.32.35.4.85,1.21.8,3.92-.23,5.31.52,6.81,3.94,1.36,3.11,3.12,5.9,5.62,8.34,1.9,1.85,3.63,3.85,5.43,5.79,1.19,1.87,2.39,3.73,3.58,5.6,1.23,3.35,1.94,6.75.93,10.19-.31,1.06-.72,1.75.12,2.42,2.23,1.8.23,3.34-.46,5.9-.38,1.39-5.12-1.01-5.88.18-1.18.99-3.21-1.18-4.39-.2-.41.23.41-.23,0,0M23.29,6.18c-.65-1.59-1.43-2.99-2.89-4.12-1.5-1.16-2.61-.39-3.89.19-1.5.68-.29,1.46-.11,2.2,1.1,4.49,3.71,8.33,6.33,12.21-1.14.37-1.57-.37-2.04-.97-2.42-3.05-4.42-6.28-5.54-9.97-.51-1.67-1.47-3.2-3.57-3.38-2.12-.17-3.89.53-5.01,2.31-1.13,1.79-.78,2.73,1.26,3.59,1.51.63,2.67,1.67,3.37,3.06.65,1.29,1.24,2.62,1.66,3.98.78,2.46,1.89,4.7,3.95,6.51-2.16-.75-3.82-2.03-4.72-4.07-.61-1.38-1.14-2.78-1.68-4.19-.43-1.12-1.05-2.13-1.94-2.97-1.65-1.58-3.57-1.55-4.89.22-1.91,2.56-2.34,5.37-.88,8.38,1.73,3.59,4.32,6.66,6.72,9.85,1.4,1.86,3.01,3.59,4.03,5.68,1.35,2.76.73,4.2-2.23,5.25-2.45.87-4.26,2.41-5.48,4.55-.84,1.48-.95,3.05-.16,4.64,1.44,2.89,4.48,3.43,6.8,1.22,1.84-1.75,3.6-3.51,6.51-3.83,1.36-.15,2.23.97,3.48.76.61-.1,1.22.19,1.61-.69,3.22-7.18,11.26-11.16,19.17-9.33,2.11.49,2.42-.17,2.47-1.78.16-5.34-1.47-10.09-5.4-14.14-2.1-2.17-4.14-4.39-6.26-6.54-2.32-2.35-3.57-5.25-4.9-8.1-.59-1.26-1.51-1.98-2.93-2.17-1.18-.16-1.63.1-1.18,1.36.99,2.79,2.44,5.37,3.95,7.94.32.55.89,1,.79,2.19-3.17-2.98-4.96-6.31-6.4-9.82ZM46.59,48.51c4.03-4.42,1.95-9.46-4.26-10.33-6.22-.87-11.47,1.07-15.36,5.59-3.66,4.25-1.72,8.78,5.06,10.12,5.21.59,10.54-.97,14.56-5.38Z"/>
    <path class="cls-4" d="M24.4,47.1c-1.17,1.41-4.15-.72-5.52-.58-2.91.32-4.67,2.08-6.51,3.83-2.32,2.21-5.36,1.67-6.8-1.22-.79-1.59-.69-3.16.16-4.64,1.22-2.14,3.02-3.68,5.48-4.55,2.96-1.05,3.58-2.49,2.23-5.25-1.02-2.08-2.63-3.82-4.03-5.68-2.4-3.19-4.99-6.26-6.72-9.85-1.46-3.02-1.03-5.82.88-8.38,1.32-1.77,3.24-1.79,4.89-.22.89.84,1.51,1.86,1.94,2.97.54,1.4,1.07,2.81,1.68,4.19.57,1.28,1.44,2.26,2.54,3,.41.28.89-.25.59-.64-1.1-1.44-1.81-3.07-2.35-4.8-.43-1.36-1.02-2.69-1.66-3.98-.7-1.39-1.86-2.43-3.37-3.06-2.04-.86-2.39-1.8-1.26-3.59,1.12-1.77,2.89-2.48,5.01-2.31,2.1.17,3.06,1.71,3.57,3.38,1.12,3.68,3.12,6.92,5.54,9.97.32.4.61.86,1.11,1.01.4.12.72-.35.49-.7-2.47-3.66-4.85-7.32-5.88-11.56-.18-.73-1.39-1.52.11-2.2,1.27-.58,2.39-1.34,3.89-.19,1.46,1.13,2.24,2.53,2.89,4.12,1.22,2.97,2.69,5.81,5.03,8.42.38.43,1.04-.1.72-.57-.05-.07-.1-.15-.14-.22-1.5-2.57-2.96-5.14-3.95-7.94-.45-1.27,0-1.52,1.18-1.36,1.42.19,2.34.91,2.93,2.17,1.33,2.85,2.58,5.75,4.9,8.1,2.12,2.15,4.16,4.37,6.26,6.54,3.92,4.05,5.56,8.8,5.4,14.14l-1.3,6.7-17.99,5.98-1.92-1.05"/>
    <g>
      <path class="cls-3" d="M42.97,46.17c-.17-.15-.31-.12-.45-.03.14-.09.29-.12.45.03.1.16.1.28.05.4.05-.12.05-.25-.05-.41Z"/>
      <path class="cls-3" d="M24.57,45.23c4.59-5.53,10.81-7.72,17.89-7.66-6.91-.06-14.35,1.74-17.89,7.66Z"/>
      <path class="cls-3" d="M42.73,47.07s.05-.09.08-.14c-.03.04-.05.09-.08.14Z"/>
      <path class="cls-3" d="M42.83,46.89c.04-.06.08-.12.12-.18-.04.06-.08.12-.12.18Z"/>
      <path class="cls-3" d="M42.96,46.69s.04-.08.06-.11c-.02.04-.04.08-.06.11Z"/>
      <path class="cls-3" d="M35.88,44.78c.38-.15.77-.3,1.17-.42-.39.13-.78.27-1.17.42Z"/>
      <path class="cls-3" d="M31.38,47.76c-.02.12,0,.26.06.41.02.06.05.11.08.16-.03-.05-.05-.1-.08-.16-.06-.15-.07-.29-.06-.41Z"/>
      <path class="cls-2" d="M48.85,40.01c-.44-.61-1.3-.91-1.92-1.29,0,0,0,0,0,0,0,0-2.43-1.14-4.47-1.16-7.07-.07-13.29,2.13-17.89,7.66-.28.47-.54.95-.76,1.47-.36.81-.66,1.71-.9,2.53.12.3.17.66.17,1.13-.01,1,.69,1.85,1.47,2.56,1.35,1.22,2.97,1.84,4.72,1.99,7.05.62,13.09-1.7,18.24-6.46.95-.88,1.66-1.97,2.12-3.2.71-1.88.41-3.6-.77-5.23ZM48.21,44.81c-.62,1.43-1.64,2.54-2.86,3.46-4.52,3.41-9.57,5.36-15.29,5.15-2.3-.08-4.64-.59-5.58-3.01-.92-2.36.4-4.3,2.04-5.83,4.9-4.55,10.7-6.55,17.37-5.88,1.15.23,2.18.67,3.09,1.35,1.64,1.23,2.06,2.87,1.24,4.76Z"/>
      <path class="cls-4" d="M46.97,40.05c-.91-.68-1.94-1.12-3.09-1.35-6.67-.67-12.47,1.33-17.37,5.88-1.64,1.53-2.96,3.47-2.04,5.83.95,2.42,3.29,2.92,5.58,3.01,5.72.21,10.77-1.74,15.29-5.15,1.22-.92,2.24-2.03,2.86-3.46.82-1.89.41-3.53-1.24-4.76ZM42.61,47.62c0-.1,0-.19.01-.27,0-.05.02-.09.03-.13.02-.06.04-.11.07-.16.02-.05.05-.09.08-.14,0-.01.01-.02.02-.03.04-.06.08-.12.12-.18,0,0,.01-.02.02-.03.02-.04.04-.08.06-.11.05-.12.05-.25-.05-.4-.17-.15-.31-.12-.45-.03-.02.01-.04.03-.06.04-.02.02-.04.03-.06.05-2.49,2.06-5.41,3.09-8.57,3.5-1.19.16-2.32-.02-3.25-1.12-.35,1.11.52,1.36,1.15,1.82-1.71.14-2.43-.63-2.06-2.06.17-.67.57-1.23,1.08-1.67,3.13-2.78,6.86-4.15,10.97-4.49,1.25-.11,2.43.4,2.7,1.76.29,1.45-.28,2.66-1.79,3.66Z"/>
      <path class="cls-2" d="M41.7,42.21c-4.11.35-7.84,1.72-10.97,4.49-.5.45-.9,1-1.08,1.67-.23.89-.03,1.53.56,1.84.35.18.7-.25.47-.56-.19-.25-.27-.57-.12-1.05.93,1.1,2.06,1.28,3.25,1.12,3.16-.41,6.08-1.44,8.57-3.5.02-.02.04-.03.06-.05.02-.01.04-.03.06-.04.14-.09.29-.12.45.03.1.16.1.28.05.41-.02.04-.04.08-.06.11,0,0-.01.02-.02.03-.04.06-.08.12-.12.18,0,.01-.01.02-.02.03-.03.04-.05.09-.08.14-.03.05-.05.1-.07.16-.01.04-.02.08-.03.13-.01.08-.02.17-.01.27,1.51-1,2.08-2.21,1.79-3.66-.27-1.36-1.46-1.87-2.7-1.76ZM42.29,44.61c-.02.05-.04.11-.06.16-.03.08-.07.15-.12.22-.05.07-.1.13-.16.19-2.34,2.15-5.13,3.15-7.91,3.59-.4.06-.79.12-1.19.16-.73-.09-1.12-.25-1.33-.6-.03-.05-.05-.1-.08-.16-.06-.15-.07-.29-.06-.41s.06-.23.13-.32c.1-.14.25-.27.4-.38.05-.04.1-.08.15-.11.51-.39,1.04-.75,1.59-1.06.72-.43,1.47-.79,2.24-1.1.38-.15.77-.3,1.17-.42,1.18-.38,2.41-.66,3.66-.84.21-.03.42-.06.63-.08.47-.06.78.02.93.2.04.05.08.11.1.18.07.2.03.48-.08.79Z"/>
      <path class="cls-1" d="M42.95,46.71s.01-.02.02-.03c0,0-.01.02-.02.03Z"/>
      <path class="cls-1" d="M42.81,46.93s.01-.02.02-.03c0,.01-.01.02-.02.03Z"/>
      <path class="cls-4" d="M42.28,43.64c-.16-.18-.46-.26-.93-.2-.21.03-.42.05-.63.08-1.26.18-2.48.45-3.66.84-.39.13-.78.27-1.17.42-.77.31-1.52.67-2.24,1.1-.54.32-1.07.67-1.59,1.06-.05.04-.1.08-.15.11-.15.12-.3.24-.4.38-.07.1-.12.2-.13.32-.02.12,0,.26.06.41.02.06.05.11.08.16.21.35.6.51,1.33.6.4-.04.79-.09,1.19-.16,2.78-.44,5.57-1.45,7.91-3.59.06-.05.12-.12.16-.19.05-.07.09-.14.12-.22.02-.06.05-.11.06-.16.12-.32.15-.59.08-.79-.02-.07-.06-.13-.1-.18Z"/>
      <path class="cls-4" d="M31.38,47.76c.02-.12.06-.23.13-.32-.07.1-.12.2-.13.32Z"/>
      <path class="cls-4" d="M42.11,44.99c.05-.07.09-.14.12-.22.02-.06.05-.11.06-.16-.02.05-.04.11-.06.16-.03.08-.07.15-.12.22Z"/>
      <path class="cls-4" d="M33.65,45.88c-.54.32-1.07.67-1.59,1.06-.05.04-.1.08-.15.11.05-.04.1-.08.15-.11.51-.39,1.04-.75,1.59-1.06Z"/>
      <path class="cls-4" d="M42.28,43.64c-.16-.18-.46-.26-.93-.2-.21.03-.42.05-.63.08.21-.03.42-.06.63-.08.47-.06.78.02.93.2Z"/>
      <path class="cls-4" d="M34.03,48.78c2.78-.44,5.57-1.45,7.91-3.59.06-.05.12-.12.16-.19-.05.07-.1.13-.16.19-2.34,2.15-5.13,3.15-7.91,3.59Z"/>
      <path class="cls-4" d="M42.38,43.82c-.02-.07-.06-.13-.1-.18.04.05.08.11.1.18Z"/>
    </g>
  </g>
</svg>