<?xml version="1.0" encoding="UTF-8"?><svg id="Layer_1" xmlns="http://www.w3.org/2000/svg" viewBox="0 0 20.31 22.26"><defs><style>.cls-1{fill:#332b27;}.cls-1,.cls-2,.cls-3,.cls-4{stroke-width:0px;}.cls-5{stroke:#000;stroke-miterlimit:10;stroke-width:.25px;}.cls-3{fill:none;}.cls-4{fill:#f5f7f6;}</style></defs><path class="cls-1" d="M15.62,22.02c-.11-.11-.22-.06-.31,0,.09-.07.19-.11.31,0,.06.1.06.17.03.25.03-.07.03-.15-.03-.25Z"/><path class="cls-3" d="M15.41,22.26s.01-.05.02-.08c0,.02-.02.05-.02.08Z"/><path class="cls-3" d="M15.47,22.26c.06-.12.14-.21.18-.3-.04.09-.12.18-.18.3Z"/><path class="cls-1" d="M15.43,22.26s.03-.07.04-.1c-.02.03-.03.06-.04.1Z"/><path class="cls-1" d="M15.62,22.02c-.11-.11-.22-.06-.31,0,.09-.07.19-.11.31,0,.06.1.06.17.03.25.03-.07.03-.15-.03-.25Z"/><path class="cls-3" d="M18.06,21.99s0-.02,0-.03c0,.01,0,.02,0,.03Z"/><path class="cls-3" d="M18.09,21.99c.03-.05.06-.09.08-.13-.02.04-.05.08-.08.13Z"/><path class="cls-1" d="M18.07,21.99s.01-.03.02-.04c0,.01-.01.03-.02.04Z"/><path class="cls-1" d="M18.16,21.88c-.05-.05-.1-.03-.14,0,.04-.03.09-.05.14,0,.03.04.03.08.01.11.01-.03.01-.07-.01-.11Z"/><path class="cls-2" d="M16.44,18.99c-.12.04.57-.35.44-.31-.23.04.18,1.45-.05,1.47-1.12.12-2.71,1.92-3.52,1.02-.05-.09-.1-.19-.16-.27-.15-.21-.04-.63-.3-.65-.52-.04-1.03-.28-1.55-.12-.09.03-.17.06-.18.16-.38.32-.75.63-1.13.95-.53.44-1.12.45-1.68.02-.16-.12-.3-.26-.44-.39-.09-.16-.19-.33-.28-.49-.18-.59.02-1.11.27-1.62,0,0,.02-.02.02-.02.15-.18.3-.36.45-.54.33-.31.79-.41,1.17-.63.58-.32.64-.52.26-1.08-.07-.1-.16-.19-.23-.29-.03-.03-.07-.07-.1-.1-.48-.6-.97-1.2-1.45-1.79-.06-.08-.11-.15-.17-.23-.31-.49-.61-.99-.92-1.48-.07-.22-.15-.43-.22-.65-.01-.06-.03-.12-.04-.19.05-.9.18-1.76,1.06-2.3.14-.09.05-.22.05-.33.02-1.17,1.2-1.97,2.41-1.61.23.07.38.08.6-.04.75-.44,1.52-.3,2.11.36.08.09.11.23.32.22,1.05-.06,1.43.14,1.83,1.06.36.83.84,1.59,1.51,2.24.51.5.97,1.04,1.46,1.55.32.5.64,1,.96,1.5.33.9.52,1.81.25,2.74-.08.29-.19.47.03.65.6.48.06.9-.12,1.58-.1.37-1.38-.27-1.58.05-.32.27-.86-.32-1.18-.05-.11.06.11-.06,0,0M12.87,8.88c-.18-.43-.38-.8-.78-1.11-.4-.31-.7-.1-1.04.05-.4.18-.08.39-.03.59.29,1.21,1,2.24,1.7,3.28-.31.1-.42-.1-.55-.26-.65-.82-1.19-1.69-1.49-2.68-.14-.45-.39-.86-.96-.91-.57-.05-1.04.14-1.35.62-.3.48-.21.73.34.96.41.17.72.45.9.82.17.35.33.7.45,1.07.21.66.51,1.26,1.06,1.75-.58-.2-1.03-.55-1.27-1.09-.16-.37-.31-.75-.45-1.12-.12-.3-.28-.57-.52-.8-.44-.42-.96-.42-1.31.06-.51.69-.63,1.44-.24,2.25.46.96,1.16,1.79,1.8,2.65.38.5.81.97,1.08,1.52.36.74.2,1.13-.6,1.41-.66.23-1.14.65-1.47,1.22-.23.4-.25.82-.04,1.25.39.78,1.2.92,1.83.33.49-.47.97-.94,1.75-1.03.37-.04.6.26.94.2.16-.03.33.05.43-.19.86-1.93,3.02-3,5.15-2.51.57.13.65-.05.66-.48.04-1.43-.4-2.71-1.45-3.8-.56-.58-1.11-1.18-1.68-1.76-.62-.63-.96-1.41-1.32-2.18-.16-.34-.41-.53-.79-.58-.32-.04-.44.03-.32.37.27.75.66,1.44,1.06,2.13.09.15.24.27.21.59-.85-.8-1.33-1.7-1.72-2.64ZM19.13,20.25c1.08-1.19.52-2.54-1.14-2.77-1.67-.23-3.08.29-4.13,1.5-.98,1.14-.46,2.36,1.36,2.72,1.4.16,2.83-.26,3.91-1.44Z"/><path class="cls-2" d="M15.79,21.99c-.2,0-.4-.01-.6-.03-.37-.07-.69-.18-.97-.31-.4.1-.79.05-1.1-.29l-.03-.05s-.03-.06-.05-.09c-.03-.05-.06-.11-.09-.15-.1-.14-.13-.31-.15-.44,0-.03-.01-.08-.02-.11-.17-.02-.33-.05-.48-.08-.32-.07-.62-.13-.91-.05v.04s-1.22,1.02-1.22,1.02c-.63.53-1.35.54-2.02.03-.12-.09-.22-.19-.33-.28-.04-.04-.09-.08-.13-.12l-.03-.03-.33-.59c-.21-.68.02-1.27.29-1.82l.05-.07.48-.57c.25-.23.54-.35.82-.47.14-.06.28-.12.4-.19.28-.15.35-.24.36-.28.01-.04-.01-.15-.19-.41-.04-.06-.09-.12-.14-.17-.02-.03-.05-.06-.07-.08l-.11-.11-1.62-2.03-.96-1.55-.28-.9v-.04c.05-.88.18-1.86,1.13-2.47,0-.04-.02-.09-.02-.14.01-.62.31-1.19.81-1.55.55-.4,1.26-.51,1.94-.31.19.06.26.05.38-.02.85-.5,1.76-.35,2.45.41.03.03.05.07.08.1,0,.01.02.03.03.04,1.18-.08,1.65.19,2.09,1.21.38.87.85,1.57,1.45,2.16.36.35.7.72,1.03,1.08.15.16.29.32.44.48l.03.04.99,1.56c.29.78.57,1.81.25,2.9-.01.04-.03.09-.04.13-.02.07-.06.18-.05.2h0s0,.01.03.03c.27.21.36.43.37.64.04.08.08.16.11.24.23.63.03,1.34-.53,1.96h0c-.93,1.02-2.17,1.56-3.54,1.56ZM14.94,21.35c.1.03.21.06.32.08,1.4.16,2.71-.32,3.66-1.36.13-.15.24-.3.32-.45-.2.22-.63.13-.99.06-.17-.04-.44-.09-.55-.08h0s-.03.03-.03.03c-.16.13-.34.15-.51.12.02.26,0,.43-.08.54-.06.07-.13.11-.22.12-.38.04-.86.33-1.33.6-.19.11-.39.23-.59.33ZM17.21,17.69c-1.26,0-2.32.49-3.15,1.46-.37.43-.51.88-.37,1.26.09.25.29.48.58.66.27-.1.6-.29.99-.51.46-.27.93-.55,1.38-.65,0-.09-.02-.22-.03-.33-.04-.01-.08-.01-.1,0,0,0-.01,0-.02.01h0s-.03.02-.03.02c0,0,0,0,0,0l-.03.02h0c-.24.11-.36-.09-.37-.1s-.12-.22.1-.37h0s.01,0,.01,0c.01-.01.03-.02.05-.03l-.04-.02c-.1-.22.06-.33.34-.5.04-.02.07-.05.11-.07.04-.06.1-.1.19-.12l.21-.07.11.21c.06.13.03.22-.06.31,0,.07,0,.19.02.31.09.03.18.06.22.05.22-.25.64-.16,1.05-.07.14.03.38.08.48.08.06-.19.14-.36.21-.51.07-.15.12-.26.15-.35-.24-.32-.68-.55-1.25-.62-.25-.03-.5-.05-.73-.05ZM8.22,10.02s-.02,0-.04,0c-.14.01-.28.1-.4.26-.47.64-.54,1.28-.21,1.97.37.77.91,1.47,1.43,2.15.12.15.23.3.35.45.1.13.2.25.3.38.29.37.6.75.81,1.19.22.45.27.8.15,1.09-.12.3-.41.52-.9.69-.59.21-1.02.57-1.33,1.1-.19.33-.2.66-.04.99.15.3.37.49.63.53.26.04.53-.05.77-.28l.04-.04c.5-.47,1.01-.96,1.86-1.06.25-.03.45.06.61.13.14.06.22.09.31.08.08-.01.16,0,.22-.01,0,0,0-.01,0-.02.92-2.06,3.22-3.17,5.45-2.66.24.06.3.03.31.03,0,0,.02-.05.03-.25.04-1.43-.41-2.6-1.37-3.6-.24-.25-.48-.5-.71-.75-.32-.34-.64-.68-.97-1.01-.61-.62-.96-1.37-1.3-2.09l-.07-.16c-.12-.26-.3-.39-.58-.43-.01,0-.02,0-.03,0,0,0,0,0,0,.01.26.73.64,1.4,1.04,2.08.01.02.03.05.05.07.09.13.23.32.2.67l-.05.56-.41-.38c-.95-.89-1.43-1.88-1.78-2.73h0c-.14-.35-.33-.71-.69-1-.22-.17-.35-.12-.65.03l-.12.06s0,0-.01,0c0,.01.01.02.02.03.04.07.09.15.11.24.28,1.15.94,2.13,1.64,3.16l.22.33-.34.11c-.46.15-.69-.15-.81-.31l-.03-.04c-.77-.97-1.26-1.85-1.53-2.77-.14-.47-.36-.69-.72-.72-.5-.04-.86.13-1.1.49-.14.22-.13.31-.13.34,0,.03.06.12.34.23.47.2.83.52,1.04.95.21.42.36.77.46,1.11.23.73.53,1.23.98,1.63l1.05.91-1.31-.46c-.69-.24-1.17-.66-1.43-1.24-.14-.32-.27-.65-.39-.96l-.07-.17c-.11-.28-.26-.51-.46-.7-.16-.15-.33-.23-.48-.23ZM16.43,18.98l.02.05s.02,0,.03,0l-.04-.05h0ZM8.02,9.23c.01.07.02.18-.03.28.05-.01.1-.02.15-.03.04,0,.07,0,.11,0-.09-.07-.17-.15-.23-.25ZM12.86,8.24c.06.09.11.19.15.28,0-.07.04-.14.09-.21-.1,0-.18-.04-.24-.07ZM10.42,7.84c.06.05.11.1.16.16,0-.03,0-.05.02-.08.01-.04.03-.08.05-.11-.08.02-.16.04-.23.04Z"/><path class="cls-4" d="M13.17,19.87c-.31.38-1.12-.19-1.48-.15-.78.09-1.25.56-1.75,1.03-.62.59-1.44.45-1.83-.33-.21-.43-.18-.85.04-1.25.33-.58.81-.99,1.47-1.22.8-.28.96-.67.6-1.41-.27-.56-.71-1.03-1.08-1.52-.65-.86-1.34-1.68-1.8-2.65-.39-.81-.28-1.56.24-2.25.35-.48.87-.48,1.31-.06.24.23.41.5.52.8.15.38.29.75.45,1.12.15.34.39.61.68.81.11.07.24-.07.16-.17-.29-.39-.49-.82-.63-1.29-.12-.36-.27-.72-.45-1.07-.19-.37-.5-.65-.9-.82-.55-.23-.64-.48-.34-.96.3-.48.78-.67,1.35-.62.56.05.82.46.96.91.3.99.84,1.86,1.49,2.68.09.11.16.23.3.27.11.03.19-.09.13-.19-.66-.98-1.3-1.97-1.58-3.1-.05-.2-.37-.41.03-.59.34-.15.64-.36,1.04-.05.39.3.6.68.78,1.11.33.8.72,1.56,1.35,2.26.1.11.28-.03.19-.15-.01-.02-.03-.04-.04-.06-.4-.69-.79-1.38-1.06-2.13-.12-.34,0-.41.32-.37.38.05.63.24.79.58.36.77.69,1.54,1.32,2.18.57.58,1.12,1.17,1.68,1.76,1.05,1.09,1.49,2.36,1.45,3.8l-.35,1.8-4.83,1.6-.52-.28"/><path class="cls-2" d="M9.11,21.28c-.07,0-.13,0-.2-.02-.4-.07-.74-.34-.95-.77-.23-.46-.21-.95.05-1.41.35-.62.88-1.06,1.56-1.3.36-.13.56-.27.63-.44.07-.17.03-.4-.13-.73-.19-.4-.47-.74-.76-1.11-.1-.13-.21-.26-.31-.39-.11-.15-.23-.3-.34-.45-.54-.7-1.09-1.42-1.48-2.23-.41-.84-.32-1.66.25-2.43.19-.26.44-.41.71-.43.29-.02.59.1.86.35.24.23.43.52.56.86l.07.17c.12.32.25.64.38.95.08.19.19.35.33.5-.18-.29-.32-.63-.45-1.03-.1-.32-.24-.65-.44-1.04-.17-.33-.44-.58-.82-.74-.34-.14-.52-.3-.59-.51-.08-.26.06-.53.17-.71.32-.51.85-.75,1.5-.7.54.04.92.39,1.11,1.03.23.75.61,1.48,1.19,2.27-.53-.82-.96-1.62-1.18-2.52,0-.03-.04-.07-.06-.11-.06-.1-.15-.24-.1-.4.03-.11.13-.2.29-.27l.11-.05c.3-.14.67-.32,1.11.02.45.34.66.77.83,1.18.2.49.48,1.1.9,1.69-.3-.53-.57-1.07-.78-1.65-.05-.14-.1-.34.01-.48.11-.14.31-.13.49-.11.43.06.73.28.92.68l.07.16c.33.72.65,1.4,1.21,1.97.33.34.65.68.98,1.02.23.25.47.49.71.74,1.04,1.07,1.54,2.39,1.5,3.92l-.37,1.93-5,1.66-.48-.26c-.28.19-.69.05-1.02-.07-.17-.06-.36-.13-.46-.12-.7.08-1.14.49-1.6.94l-.05.04c-.28.27-.61.41-.95.41ZM8.22,9.92s-.03,0-.04,0c-.17.01-.33.12-.47.29-.5.67-.57,1.35-.22,2.07.38.78.92,1.49,1.44,2.17.11.15.23.3.34.45.1.13.2.26.3.38.29.36.59.74.8,1.17.21.42.25.74.14,1.01-.11.27-.38.47-.84.64-.6.21-1.07.6-1.38,1.15-.2.36-.22.72-.04,1.08.16.33.41.53.7.59.29.05.59-.06.85-.31l.05-.04c.49-.46.99-.94,1.8-1.03.18-.01.39.06.62.14.3.1.63.22.75.08l.09-.11.58.31,4.66-1.55.33-1.7c.04-1.43-.42-2.63-1.4-3.65-.24-.25-.47-.49-.71-.74-.32-.34-.64-.68-.97-1.01-.6-.61-.94-1.35-1.28-2.07l-.07-.16c-.14-.29-.34-.44-.65-.48-.11-.01-.16,0-.18,0,0,.01.01.06.04.14.26.74.64,1.42,1.05,2.1l.03.05c.09.13.06.3-.06.4-.12.1-.3.08-.4-.03-.71-.79-1.11-1.65-1.38-2.31-.15-.36-.34-.74-.72-1.04-.26-.2-.44-.13-.75.02l-.12.06c-.08.04-.1.06-.1.06,0,.01.04.08.06.11.04.06.08.13.1.21.26,1.07.86,2.02,1.56,3.05.07.1.07.24,0,.34-.07.1-.2.14-.32.1-.17-.05-.27-.18-.35-.29l-.03-.04c-.76-.96-1.24-1.83-1.52-2.73-.15-.5-.41-.75-.81-.78-.53-.05-.93.14-1.19.54-.12.19-.16.33-.14.42.03.1.16.19.39.29.45.19.79.5.99.9.21.41.35.76.46,1.09.16.51.35.91.6,1.24.09.12.08.27-.02.38-.1.1-.25.12-.37.04-.33-.22-.58-.52-.74-.88-.14-.32-.27-.64-.39-.96l-.06-.17c-.12-.3-.27-.54-.48-.74-.18-.17-.37-.26-.55-.26ZM14.27,11.09h0,0Z"/><path class="cls-3" d="M18.16,19.62s-.08-.03-.12,0c.04-.02.08-.03.12,0,.03.04.03.08.01.11.01-.03.01-.07-.01-.11Z"/><path class="cls-3" d="M13.21,19.37c1.23-1.49,2.9-2.07,4.8-2.06-1.85-.02-3.85.47-4.8,2.06Z"/><path class="cls-3" d="M18.09,19.86s.01-.03.02-.04c0,.01-.01.02-.02.04Z"/><path class="cls-3" d="M18.12,19.82s.02-.03.03-.05c0,.02-.02.03-.03.05Z"/><path class="cls-3" d="M18.15,19.76s.01-.02.02-.03c0,.01,0,.02-.02.03Z"/><path class="cls-3" d="M16.25,19.25c.1-.04.21-.08.31-.11-.11.03-.21.07-.31.11Z"/><path class="cls-3" d="M15.04,20.05s0,.07.02.11c0,.02.01.03.02.04,0-.01-.01-.03-.02-.04-.02-.04-.02-.08-.02-.11Z"/><path class="cls-2" d="M19.73,17.97c-.12-.16-.35-.24-.52-.35,0,0,0,0,0,0,0,0-.65-.31-1.2-.31-1.9-.02-3.57.57-4.8,2.06-.07.13-.14.26-.21.4-.1.22-.18.46-.24.68.03.08.05.18.05.3,0,.27.18.5.39.69.36.33.8.49,1.27.54,1.89.17,3.52-.46,4.9-1.74.26-.24.45-.53.57-.86.19-.51.11-.97-.21-1.4ZM19.56,19.26c-.17.38-.44.68-.77.93-1.21.92-2.57,1.44-4.11,1.38-.62-.02-1.25-.16-1.5-.81-.25-.63.11-1.15.55-1.56,1.31-1.22,2.87-1.76,4.66-1.58.31.06.58.18.83.36.44.33.55.77.33,1.28Z"/><path class="cls-2" d="M15.06,22.26c-.2,0-.41,0-.61-.03-.56-.05-1.04-.25-1.42-.6-.21-.19-.49-.49-.48-.89,0-.09,0-.15-.03-.2l-.03-.09.03-.09c.08-.28.17-.51.25-.71.06-.14.14-.28.22-.42l.02-.03c1.2-1.45,2.89-2.18,5.01-2.15.6,0,1.28.32,1.31.34h.02s.09.06.13.09c.15.08.34.17.46.35h0c.38.52.46,1.08.24,1.66-.14.38-.36.7-.64.96-1.32,1.22-2.83,1.83-4.49,1.83ZM17.73,17.85c-1.42,0-2.71.52-3.82,1.54-.49.45-.64.86-.48,1.27.16.42.54.61,1.26.64,1.39.05,2.68-.38,3.93-1.33.33-.25.55-.52.68-.82h0c.17-.4.09-.7-.25-.96-.21-.16-.45-.26-.72-.31-.21-.02-.41-.03-.61-.03Z"/><path class="cls-4" d="M19.23,17.98c-.24-.18-.52-.3-.83-.36-1.79-.18-3.35.36-4.66,1.58-.44.41-.8.93-.55,1.56.25.65.88.79,1.5.81,1.54.06,2.89-.47,4.11-1.38.33-.25.6-.54.77-.93.22-.51.11-.95-.33-1.28Z"/><path class="cls-2" d="M14.91,21.8c-.08,0-.15,0-.23,0-.58-.02-1.39-.14-1.7-.95-.24-.62-.04-1.21.61-1.82,1.37-1.27,3-1.83,4.84-1.64.37.07.67.21.94.41h0c.53.39.67.94.41,1.55-.17.39-.44.72-.84,1.02-1.26.95-2.61,1.43-4.02,1.43ZM17.74,17.81c-1.44,0-2.73.52-3.84,1.55-.5.47-.66.88-.49,1.31.17.44.56.64,1.29.66,1.4.05,2.7-.39,3.96-1.34.33-.25.56-.53.7-.84.18-.41.09-.74-.26-1h0c-.21-.16-.46-.27-.74-.32-.21-.02-.42-.03-.62-.03Z"/><path class="cls-1" d="M18.15,19.77s0,0,0,0c0,0,0,0,0,0Z"/><path class="cls-1" d="M18.11,19.83s0,0,0,0c0,0,0,0,0,0Z"/><path class="cls-4" d="M15.04,20.05s.02-.06.04-.09c-.02.03-.03.05-.04.09Z"/><path class="cls-4" d="M17.92,19.31s.02-.04.03-.06c0-.01.01-.03.02-.04,0,.01-.01.03-.02.04,0,.02-.02.04-.03.06Z"/><path class="cls-4" d="M15.65,19.54c-.15.09-.29.18-.43.29-.01.01-.03.02-.04.03.01-.01.03-.02.04-.03.14-.11.28-.2.43-.29Z"/><path class="cls-4" d="M17.97,18.94s-.12-.07-.25-.05c-.06,0-.11.01-.17.02.06,0,.11-.02.17-.02.13-.02.21,0,.25.05Z"/><path class="cls-4" d="M15.76,20.32c.75-.12,1.5-.39,2.12-.97.02-.01.03-.03.04-.05-.01.02-.03.04-.04.05-.63.58-1.38.85-2.12.97Z"/><path class="cls-4" d="M18,18.99s-.01-.03-.03-.05c.01.01.02.03.03.05Z"/><path class="cls-5" d="M18.16,18.81c-.05-.05-.14-.08-.28-.06-.06,0-.13.02-.19.03-.37.06-.74.14-1.09.26-.12.04-.23.08-.35.13-.23.09-.45.2-.67.33-.16.1-.32.2-.47.32-.01.01-.03.02-.04.03-.04.03-.09.07-.12.12-.02.03-.03.06-.04.1,0,.04,0,.08.02.12,0,.02.01.03.02.05.06.11.18.15.39.18.12-.01.24-.03.35-.05.83-.14,1.65-.44,2.35-1.09.02-.02.03-.04.05-.06.01-.02.03-.04.04-.07,0-.02.01-.03.02-.05.03-.1.05-.18.03-.24,0-.02-.02-.04-.03-.05Z"/></svg>